<svg width="200" height="150" viewBox="0 0 200 150" fill="none" xmlns="http://www.w3.org/2000/svg">
<path d="M53.783 105.351H44.6445V111.339H53.783V105.351Z" fill="#F1F2F2"/>
<path d="M70.6414 105.351H61.5029V111.339H70.6414V105.351Z" fill="#F1F2F2"/>
<path d="M59.913 105.351H55.3438V111.339H59.913V105.351Z" fill="#F1F2F2"/>
<path d="M69.7326 124.649H68.5973C66.6391 124.649 65.0498 123.06 65.0498 121.102V119.967C65.0498 118.008 66.6391 116.419 68.5973 116.419H69.7326C71.6908 116.419 73.2801 118.008 73.2801 119.967V121.102C73.2518 123.06 71.6908 124.649 69.7326 124.649Z" fill="#F1F2F2"/>
<path d="M93.6855 85.0022H44.6445V86.3644H93.6855V85.0022Z" fill="#F1F2F2"/>
<path d="M93.6855 87.9535H44.6445V89.3157H93.6855V87.9535Z" fill="#F1F2F2"/>
<path d="M93.6855 90.8767H44.6445V92.239H93.6855V90.8767Z" fill="#F1F2F2"/>
<path d="M93.6855 93.8285H44.6445V95.1907H93.6855V93.8285Z" fill="#F1F2F2"/>
<path d="M93.6855 96.78H44.6445V98.1423H93.6855V96.78Z" fill="#F1F2F2"/>
<path d="M93.6855 99.703H44.6445V101.065H93.6855V99.703Z" fill="#F1F2F2"/>
<path opacity="0.2" d="M12.4616 52.1095C12.5183 58.495 31.0505 58.8072 32.7533 67.8605C34.7968 78.645 9.90737 85.8535 10.0209 102.257C10.0493 108.33 13.5116 115.482 18.762 117.299C28.8938 120.789 36.2725 100.214 51.8248 100.384C70.2153 100.611 75.4088 124.167 91.1883 123.429C108.954 122.634 113.24 90.4795 129.416 90.2807C145.224 90.082 150.702 120.42 165.913 119.484C177.436 118.774 187.426 100.526 188.192 85.229C188.362 81.937 189.1 66.5265 179.479 59.2327C169.205 51.485 155.129 58.7505 151.666 52.592C148.176 46.4617 160.578 36.8125 157.229 31.0797C154.334 26.1415 144.174 31.5622 128.679 28.866C108.16 25.3185 102.2 11.6676 92.4938 15.4422C83.7243 18.8478 86.704 30.7107 75.9765 36.6422C67.9733 41.0695 63.0068 36.245 47.88 37.0962C30.5113 38.0612 12.4048 45.7807 12.4616 52.1095Z" fill="#FFC7A8"/>
<path d="M128.934 133.164H16.804C16.7189 133.164 16.6621 133.107 16.6621 133.022C16.6621 132.937 16.7189 132.88 16.804 132.88H128.934C129.019 132.88 129.076 132.937 129.076 133.022C129.076 133.107 129.019 133.164 128.934 133.164Z" fill="#2F5373"/>
<path d="M44.5599 23.8714H34.8539C34.3146 23.8714 33.8604 23.4173 33.8604 22.8781C33.8604 22.3388 34.3146 21.8848 34.8539 21.8848H44.5599C45.0991 21.8848 45.5531 22.3388 45.5531 22.8781C45.5531 23.4173 45.0991 23.8714 44.5599 23.8714Z" fill="#F3E6DE"/>
<path d="M101.944 23.8714H92.2384C91.6991 23.8714 91.2451 23.4173 91.2451 22.8781C91.2451 22.3388 91.6991 21.8848 92.2384 21.8848H101.944C102.484 21.8848 102.938 22.3388 102.938 22.8781C102.966 23.4173 102.512 23.8714 101.944 23.8714Z" fill="#F3E6DE"/>
<path d="M129.615 62.3268H127.912V62.8943H129.615V62.3268Z" fill="#FFC7A8"/>
<path d="M178.003 62.8943H174.54V62.3268H178.003V62.8943ZM171.078 62.8943H167.616V62.3268H171.078V62.8943ZM164.182 62.8943H160.719V62.3268H164.182V62.8943ZM157.257 62.8943H153.795V62.3268H157.257V62.8943ZM150.361 62.8943H146.898V62.3268H150.361V62.8943ZM143.436 62.8943H139.973V62.3268H143.436V62.8943ZM136.539 62.8943H133.077V62.3268H136.539V62.8943Z" fill="#FFC7A8"/>
<path d="M183.14 62.3268H181.437V62.8943H183.14V62.3268Z" fill="#FFC7A8"/>
<path d="M168.041 21.6576V53.273C168.041 53.8123 167.928 54.3233 167.701 54.7773C167.133 55.9125 165.97 56.7355 164.607 56.7355H132.963C131.034 56.7355 129.501 55.1745 129.501 53.273V21.6576C129.501 19.7277 131.062 18.1952 132.963 18.1952H164.579C166.509 18.1668 168.041 19.7277 168.041 21.6576Z" fill="#F1F2F2"/>
<path opacity="0.16" d="M159.102 23.701C158.562 21.9415 156.774 20.7779 154.958 20.4941C155.441 20.3238 155.526 19.5859 155.213 19.1602C154.901 18.7345 154.362 18.5642 153.823 18.4791C153.539 18.4223 153.255 18.3656 153 18.3372C151.467 18.1385 150.077 17.3155 149.169 16.0951C147.636 13.995 144.457 11.5827 139.775 14.3923C138.072 13.7396 135.915 14.1369 134.95 15.8965C134.808 16.1803 134.695 16.4925 134.638 16.8046C134.354 18.5075 134.837 21.1752 136.028 21.8563C136.795 22.3104 137.902 22.651 139.15 22.9064C138.214 26.227 135.432 36.6425 136.426 37.2385C137.05 37.6072 140.144 38.26 143.18 38.544L143.351 39.821L144.003 44.9295C144.315 47.3132 146.472 48.9877 148.856 48.6755C151.24 48.3635 152.915 46.2065 152.603 43.8225L151.496 35.1667L151.382 34.372C151.666 33.7192 151.921 33.0382 152.177 32.357C153.057 32.6125 154.107 32.0165 154.334 31.1082C155.781 30.938 157.37 30.6825 158.25 29.5472C158.846 28.781 158.988 27.7877 159.102 26.8512C159.3 25.8295 159.414 24.7227 159.102 23.701Z" fill="#232323"/>
<path opacity="0.16" d="M168.042 51.4285V53.2732C168.042 53.8125 167.929 54.3232 167.702 54.7775C167.134 55.9125 165.97 56.7355 164.608 56.7355L157.258 40.871C159.244 40.9562 161.799 42.063 163.246 43.255C165.062 44.7592 166.935 48.562 168.042 51.4285Z" fill="#232323"/>
<path d="M169.574 59.6868H140.03C137.987 59.6868 136.341 58.0408 136.341 55.9973V26.482C136.341 24.4385 137.987 22.7925 140.03 22.7925H169.574C171.618 22.7925 173.264 24.4385 173.264 26.482V56.0258C173.264 58.0408 171.618 59.6868 169.574 59.6868ZM140.03 23.2182C138.242 23.2182 136.767 24.6656 136.767 26.482V56.0258C136.767 57.8138 138.214 59.2895 140.03 59.2895H169.574C171.362 59.2895 172.838 57.842 172.838 56.0258V26.482C172.838 24.694 171.39 23.2182 169.574 23.2182H140.03Z" fill="#232323"/>
<path d="M196.393 29.4052H188.844C188.248 29.4052 187.737 28.9227 187.737 28.2985V20.7777C187.737 20.1817 188.22 19.6709 188.844 19.6709H196.393C196.989 19.6709 197.5 20.1533 197.5 20.7777V28.2985C197.5 28.9227 197.018 29.4052 196.393 29.4052ZM188.873 20.0966C188.504 20.0966 188.191 20.4088 188.191 20.7777V28.2985C188.191 28.6675 188.504 28.9795 188.873 28.9795H196.422C196.791 28.9795 197.103 28.6675 197.103 28.2985V20.7777C197.103 20.4088 196.791 20.0966 196.422 20.0966H188.873Z" fill="#232323"/>
<path d="M196.393 43.2262H188.844C188.248 43.2262 187.737 42.7439 187.737 42.1194V34.5987C187.737 34.0027 188.22 33.4919 188.844 33.4919H196.393C196.989 33.4919 197.5 33.9744 197.5 34.5987V42.1479C197.5 42.7439 197.018 43.2262 196.393 43.2262ZM188.873 33.9177C188.504 33.9177 188.191 34.2297 188.191 34.5987V42.1479C188.191 42.5167 188.504 42.8289 188.873 42.8289H196.422C196.791 42.8289 197.103 42.5167 197.103 42.1479V34.5987C197.103 34.2297 196.791 33.9177 196.422 33.9177H188.873Z" fill="#232323"/>
<path d="M196.393 57.0478H188.844C188.248 57.0478 187.737 56.5653 187.737 55.9408V48.3918C187.737 47.7958 188.22 47.285 188.844 47.285H196.393C196.989 47.285 197.5 47.7675 197.5 48.3918V55.9408C197.5 56.5653 197.018 57.0478 196.393 57.0478ZM188.873 47.739C188.504 47.739 188.191 48.0513 188.191 48.42V55.9693C188.191 56.3383 188.504 56.6503 188.873 56.6503H196.422C196.791 56.6503 197.103 56.3383 197.103 55.9693V48.42C197.103 48.0513 196.791 47.739 196.422 47.739H188.873Z" fill="#232323"/>
<path d="M195.797 19.0748V27.1348C195.797 27.2768 195.769 27.3903 195.712 27.532C195.57 27.816 195.258 28.043 194.917 28.043H186.857C186.375 28.043 185.978 27.6458 185.978 27.1633V19.0748C185.978 18.5924 186.375 18.195 186.857 18.195H194.917C195.4 18.1667 195.797 18.564 195.797 19.0748Z" fill="#F1F2F2"/>
<path d="M195.797 32.8962V40.956C195.797 41.098 195.769 41.2115 195.712 41.3535C195.57 41.6372 195.258 41.8642 194.917 41.8642H186.857C186.375 41.8642 185.978 41.467 185.978 40.9845V32.8962C185.978 32.4137 186.375 32.0162 186.857 32.0162H194.917C195.4 32.0162 195.797 32.4137 195.797 32.8962Z" fill="#F1F2F2"/>
<path d="M195.797 46.717V54.777C195.797 54.919 195.769 55.0325 195.712 55.1745C195.57 55.4582 195.258 55.6852 194.917 55.6852H186.857C186.375 55.6852 185.978 55.288 185.978 54.8055V46.7455C185.978 46.263 186.375 45.8657 186.857 45.8657H194.917C195.4 45.8372 195.797 46.2347 195.797 46.717Z" fill="#F1F2F2"/>
<path d="M196.394 74.927H188.845C188.362 74.927 187.965 74.5298 187.965 74.0473V66.4983C187.965 66.0158 188.362 65.6185 188.845 65.6185H196.394C196.876 65.6185 197.274 66.0158 197.274 66.4983V74.0473C197.302 74.5298 196.905 74.927 196.394 74.927Z" fill="#FFC7A8"/>
<path d="M196.394 88.7768H188.845C188.362 88.7768 187.965 88.3795 187.965 87.897V80.3478C187.965 79.8653 188.362 79.468 188.845 79.468H196.394C196.876 79.468 197.274 79.8653 197.274 80.3478V87.897C197.302 88.3795 196.905 88.7768 196.394 88.7768Z" fill="#FFC7A8"/>
<path d="M196.394 102.598H188.845C188.362 102.598 187.965 102.201 187.965 101.718V94.1691C187.965 93.6868 188.362 93.2893 188.845 93.2893H196.394C196.876 93.2893 197.274 93.6868 197.274 94.1691V101.718C197.302 102.201 196.905 102.598 196.394 102.598Z" fill="#FFC7A8"/>
<path d="M194.918 73.9622H186.858C186.262 73.9622 185.751 73.48 185.751 72.8555V64.7955C185.751 64.1995 186.233 63.6887 186.858 63.6887H194.918C195.514 63.6887 196.024 64.1712 196.024 64.7955V72.8555C196.024 73.0257 195.996 73.196 195.911 73.338C195.712 73.7352 195.343 73.9622 194.918 73.9622ZM186.858 64.1427C186.489 64.1427 186.176 64.455 186.176 64.824V72.884C186.176 73.2527 186.489 73.565 186.858 73.565H194.918C195.173 73.565 195.4 73.423 195.514 73.196C195.57 73.111 195.57 72.9975 195.57 72.9122V64.8522C195.57 64.4832 195.258 64.1712 194.889 64.1712H186.858V64.1427Z" fill="#232323"/>
<path d="M194.918 87.812H186.858C186.262 87.812 185.751 87.3295 185.751 86.7052V78.6452C185.751 78.0492 186.233 77.5382 186.858 77.5382H194.918C195.514 77.5382 196.024 78.0207 196.024 78.6452V86.7052C196.024 86.8755 195.996 87.0457 195.911 87.1875C195.712 87.5565 195.343 87.812 194.918 87.812ZM186.858 77.964C186.489 77.964 186.176 78.2762 186.176 78.6452V86.7052C186.176 87.074 186.489 87.3862 186.858 87.3862H194.918C195.173 87.3862 195.4 87.2442 195.514 87.0172C195.57 86.9322 195.57 86.8187 195.57 86.7335V78.6735C195.57 78.3045 195.258 77.9925 194.889 77.9925H186.858V77.964Z" fill="#232323"/>
<path d="M194.918 101.633H186.858C186.262 101.633 185.751 101.151 185.751 100.526V92.4662C185.751 91.8702 186.233 91.3595 186.858 91.3595H194.918C195.514 91.3595 196.024 91.8417 196.024 92.4662V100.526C196.024 100.697 195.996 100.867 195.911 101.009C195.712 101.378 195.343 101.633 194.918 101.633ZM186.858 91.785C186.489 91.785 186.176 92.0972 186.176 92.4662V100.526C186.176 100.895 186.489 101.207 186.858 101.207H194.918C195.173 101.207 195.4 101.065 195.514 100.838C195.57 100.753 195.57 100.64 195.57 100.554V92.4945C195.57 92.1257 195.258 91.8135 194.889 91.8135H186.858V91.785Z" fill="#232323"/>
<path d="M98.2261 60.1126H98.0273V31.2216H98.2261C99.2761 31.2216 100.128 32.0728 100.128 33.1231V58.2111C100.128 59.2611 99.2761 60.1126 98.2261 60.1126Z" fill="#F1F2F2"/>
<path d="M40.0751 91.3308H40.2738V120.222H40.0751C39.0251 120.222 38.1738 119.371 38.1738 118.32V93.2323C38.1738 92.1823 39.0251 91.3308 40.0751 91.3308Z" fill="#F1F2F2"/>
<path d="M33.2646 73.6218V43.6523C33.2646 42.3468 34.3146 41.2968 35.6201 41.2968H86.2221C87.5276 41.2968 88.5776 42.3468 88.5776 43.6523V73.6218C88.5776 74.9273 87.5276 75.9773 86.2221 75.9773H35.6201C34.3146 75.9773 33.2646 74.9273 33.2646 73.6218Z" fill="#2F5373"/>
<path opacity="0.1" d="M40.5009 41.2968H40.0752V75.9773H40.5009V41.2968Z" fill="#D8D8D8"/>
<path d="M97.46 40.5873L115.283 55.884C115.283 55.884 123.825 78.191 115.198 90.1673L108.188 95.077L110.855 68.9673L97.9992 50.8325L97.46 40.5873Z" fill="#F3E6DE"/>
<path d="M55.0316 56.9625H37.5778C36.6413 56.9625 35.9033 56.1962 35.9033 55.288V45.5252C35.9033 44.5887 36.6696 43.8507 37.5778 43.8507H55.0316C55.9681 43.8507 56.7061 44.617 56.7061 45.5252V55.2597C56.7061 56.1962 55.9681 56.9625 55.0316 56.9625Z" fill="#F3E6DE"/>
<path d="M82.8154 23.3036H55.4854C51.9376 23.3036 49.0996 20.4372 49.0996 16.9181V13.853H89.2294V16.8897C89.2294 20.4372 86.3629 23.3036 82.8154 23.3036Z" fill="#F3E6DE"/>
<path d="M40.3022 41.5238C40.1887 41.5238 40.0752 41.4385 40.0752 41.2968V35.1383C40.0752 35.0248 40.1604 34.9113 40.3022 34.9113C40.4442 34.9113 40.5292 34.9963 40.5292 35.1383V41.2968C40.5009 41.4103 40.4157 41.5238 40.3022 41.5238Z" fill="#232323"/>
<path d="M92.8056 128.849H45.4959C42.5159 128.849 40.0751 126.409 40.0751 123.429V75.977C40.0751 75.8635 40.1604 75.75 40.3024 75.75C40.4441 75.75 40.5294 75.8352 40.5294 75.977V123.4C40.5294 126.153 42.7714 128.395 45.5241 128.395H92.8341C95.5869 128.395 97.8289 126.153 97.8289 123.4V23.3886C97.8289 20.6357 95.5869 18.3937 92.8341 18.3937H45.4959C42.7429 18.3937 40.5009 20.6357 40.5009 23.3886V29.2917C40.5009 29.4052 40.4159 29.5187 40.2739 29.5187C40.1321 29.5187 40.0469 29.4335 40.0469 29.2917V23.3886C40.0469 20.4087 42.4876 17.968 45.4674 17.968H92.7771C95.7571 17.968 98.1979 20.4087 98.1979 23.3886V123.4C98.2261 126.409 95.8139 128.849 92.8056 128.849Z" fill="#232323"/>
<path d="M14.1641 41.4952V96.8082H28.3259V41.4952H14.1641ZM19.9536 47.512H16.2642V43.8225H19.9536V47.512Z" fill="#FFC7A8"/>
<path d="M86.9029 75.2392H66.3274C66.2139 75.2392 66.1004 75.154 66.1004 75.012C66.1004 74.8702 66.1854 74.785 66.3274 74.785H86.9029C88.2369 74.785 89.3151 73.7067 89.3151 72.3727V42.971C89.3151 41.637 88.2369 40.5585 86.9029 40.5585H44.7016C44.5881 40.5585 44.4746 40.4735 44.4746 40.3315C44.4746 40.1897 44.5596 40.1045 44.7016 40.1045H86.9029C88.4639 40.1045 89.7409 41.3815 89.7409 42.9425V72.3727C89.7409 73.9905 88.4639 75.2392 86.9029 75.2392Z" fill="#232323"/>
<path d="M43.623 47.512V53.188C43.623 53.6138 44.1055 53.8975 44.4745 53.642L48.5895 50.946C48.9018 50.7473 48.93 50.2648 48.618 50.0378L44.5028 47.0578C44.1338 46.8025 43.623 47.0578 43.623 47.512Z" fill="#FFC7A8"/>
<path d="M86.1938 51.3998V55.2313C86.1938 55.7988 85.7395 56.2528 85.172 56.2528H79.6663C79.0985 56.2528 78.6445 55.7988 78.6445 55.2313V51.3998C78.6445 50.8323 79.0985 50.3783 79.6663 50.3783H85.172C85.7395 50.3783 86.1938 50.8323 86.1938 51.3998Z" fill="#F3E6DE"/>
<path d="M81.6807 52.3368V54.4653C81.6807 54.6355 81.8509 54.7208 81.9929 54.6355L83.5254 53.614C83.6389 53.5288 83.6389 53.3585 83.5254 53.2733L81.9929 52.1665C81.8794 52.053 81.6807 52.1665 81.6807 52.3368Z" fill="#FFC7A8"/>
<path d="M76.6576 51.3998V55.2313C76.6576 55.7988 76.2036 56.2528 75.6359 56.2528H70.1301C69.5626 56.2528 69.1084 55.7988 69.1084 55.2313V51.3998C69.1084 50.8323 69.5626 50.3783 70.1301 50.3783H75.6359C76.2036 50.3783 76.6576 50.8323 76.6576 51.3998Z" fill="#F3E6DE"/>
<path d="M72.1738 52.3368V54.4653C72.1738 54.6355 72.3441 54.7208 72.4858 54.6355L74.0183 53.614C74.1321 53.5288 74.1321 53.3585 74.0183 53.2733L72.4858 52.1665C72.3441 52.053 72.1738 52.1665 72.1738 52.3368Z" fill="#FFC7A8"/>
<path d="M67.1213 51.3998V55.2313C67.1213 55.7988 66.6673 56.2528 66.0998 56.2528H60.594C60.0263 56.2528 59.5723 55.7988 59.5723 55.2313V51.3998C59.5723 50.8323 60.0263 50.3783 60.594 50.3783H66.0998C66.6673 50.3783 67.1213 50.8323 67.1213 51.3998Z" fill="#F3E6DE"/>
<path d="M62.6377 52.3368V54.4653C62.6377 54.6355 62.8079 54.7208 62.9499 54.6355L64.4824 53.614C64.5959 53.5288 64.5959 53.3585 64.4824 53.2733L62.9499 52.1665C62.8079 52.053 62.6377 52.1665 62.6377 52.3368Z" fill="#FFC7A8"/>
<path d="M86.1938 59.091V62.9223C86.1938 63.49 85.7395 63.944 85.172 63.944H79.6663C79.0985 63.944 78.6445 63.49 78.6445 62.9223V59.091C78.6445 58.5235 79.0985 58.0693 79.6663 58.0693H85.172C85.7395 58.041 86.1938 58.5235 86.1938 59.091Z" fill="#F3E6DE"/>
<path d="M81.6807 59.9992V62.1277C81.6807 62.2982 81.8509 62.3832 81.9929 62.2982L83.5254 61.2765C83.6389 61.1912 83.6389 61.021 83.5254 60.936L81.9929 59.829C81.8794 59.744 81.6807 59.829 81.6807 59.9992Z" fill="#FFC7A8"/>
<path d="M76.6576 59.091V62.9223C76.6576 63.49 76.2036 63.944 75.6359 63.944H70.1301C69.5626 63.944 69.1084 63.49 69.1084 62.9223V59.091C69.1084 58.5235 69.5626 58.0693 70.1301 58.0693H75.6359C76.2036 58.041 76.6576 58.5235 76.6576 59.091Z" fill="#F3E6DE"/>
<path d="M72.1738 59.9992V62.1277C72.1738 62.2982 72.3441 62.3832 72.4858 62.2982L74.0183 61.2765C74.1321 61.1912 74.1321 61.021 74.0183 60.936L72.4858 59.829C72.3441 59.744 72.1738 59.829 72.1738 59.9992Z" fill="#FFC7A8"/>
<path d="M67.1213 59.091V62.9223C67.1213 63.49 66.6673 63.944 66.0998 63.944H60.594C60.0263 63.944 59.5723 63.49 59.5723 62.9223V59.091C59.5723 58.5235 60.0263 58.0693 60.594 58.0693H66.0998C66.6673 58.041 67.1213 58.5235 67.1213 59.091Z" fill="#F3E6DE"/>
<path d="M62.6377 59.9992V62.1277C62.6377 62.2982 62.8079 62.3832 62.9499 62.2982L64.4824 61.2765C64.5959 61.1912 64.5959 61.021 64.4824 60.936L62.9499 59.829C62.8079 59.744 62.6377 59.829 62.6377 59.9992Z" fill="#FFC7A8"/>
<path d="M86.1938 66.7538V70.5853C86.1938 71.1528 85.7395 71.6071 85.172 71.6071H79.6663C79.0985 71.6071 78.6445 71.1528 78.6445 70.5853V66.7538C78.6445 66.1863 79.0985 65.7323 79.6663 65.7323H85.172C85.7395 65.7323 86.1938 66.1863 86.1938 66.7538Z" fill="#F3E6DE"/>
<path d="M81.6807 67.6903V69.8188C81.6807 69.989 81.8509 70.0743 81.9929 69.989L83.5254 68.9673C83.6389 68.8823 83.6389 68.712 83.5254 68.6268L81.9929 67.52C81.8794 67.4348 81.6807 67.52 81.6807 67.6903Z" fill="#FFC7A8"/>
<path d="M76.6576 66.7538V70.5853C76.6576 71.1528 76.2036 71.6071 75.6359 71.6071H70.1301C69.5626 71.6071 69.1084 71.1528 69.1084 70.5853V66.7538C69.1084 66.1863 69.5626 65.7323 70.1301 65.7323H75.6359C76.2036 65.7323 76.6576 66.1863 76.6576 66.7538Z" fill="#F3E6DE"/>
<path d="M72.1738 67.6903V69.8188C72.1738 69.989 72.3441 70.0743 72.4858 69.989L74.0183 68.9673C74.1321 68.8823 74.1321 68.712 74.0183 68.6268L72.4858 67.52C72.3441 67.4348 72.1738 67.52 72.1738 67.6903Z" fill="#FFC7A8"/>
<path d="M66.0998 65.7323H60.594C60.0263 65.7323 59.5723 66.1863 59.5723 66.7538V70.5853C59.5723 71.1528 60.0263 71.6071 60.594 71.6071H66.0998C66.6673 71.6071 67.1213 71.1528 67.1213 70.5853V66.7538C67.1213 66.1863 66.6673 65.7323 66.0998 65.7323ZM64.482 68.9676L62.9495 69.9893C62.8075 70.0743 62.6373 69.9893 62.6373 69.8191V67.6906C62.6373 67.5203 62.836 67.4351 62.9778 67.5203L64.5103 68.6271C64.6238 68.7121 64.6238 68.8826 64.482 68.9676Z" fill="#FFC7A8"/>
<path d="M64.4824 68.9673L62.9499 69.989C62.8079 70.0743 62.6377 69.989 62.6377 69.8188V67.6903C62.6377 67.52 62.8362 67.4348 62.9782 67.52L64.5107 68.6268C64.6242 68.712 64.6242 68.8823 64.4824 68.9673Z" fill="#F3E6DE"/>
<path d="M88.5777 79.2125V79.3545C88.5777 79.7235 88.2655 80.0357 87.8967 80.0357H54.5215C54.6635 79.8652 54.7485 79.6382 54.7485 79.4112V79.1842C54.7485 78.9287 54.6635 78.7017 54.5215 78.5315H87.925C88.2655 78.5315 88.5777 78.8437 88.5777 79.2125Z" fill="#F3E6DE"/>
<path d="M49.2994 80.0357H33.9459C33.5769 80.0357 33.2646 79.7235 33.2646 79.3545V79.2125C33.2646 78.8437 33.5769 78.5315 33.9459 78.5315H49.2994C49.6684 78.5315 49.9806 78.8437 49.9806 79.2125V79.3545C49.9806 79.7517 49.6684 80.0357 49.2994 80.0357Z" fill="#2F5373"/>
<path d="M54.748 79.1842V79.4112C54.748 79.6382 54.6628 79.8655 54.521 80.0357C54.3508 80.2627 54.0385 80.433 53.7263 80.433H49.2705C48.703 80.433 48.249 79.979 48.249 79.4112V79.1842C48.249 78.6167 48.703 78.1625 49.2705 78.1625H53.7263C54.0385 78.1625 54.3223 78.3045 54.521 78.5315C54.6628 78.7302 54.748 78.9572 54.748 79.1842Z" fill="#FFC7A8"/>
<path opacity="0.4" d="M56.5075 58.8643H36.1305C35.9885 58.8643 35.875 58.7508 35.875 58.6088V58.552C35.875 58.4103 35.9885 58.2968 36.1305 58.2968H56.5075C56.6493 58.2968 56.7627 58.4103 56.7627 58.552V58.6088C56.7627 58.7508 56.6493 58.8643 56.5075 58.8643Z" fill="#F1F2F2"/>
<path d="M43.8216 59.006H42.1756C41.9769 59.006 41.8066 58.8355 41.8066 58.637V58.5517C41.8066 58.3532 41.9769 58.1827 42.1756 58.1827H43.8216C44.0204 58.1827 44.1906 58.3532 44.1906 58.5517V58.637C44.1906 58.864 44.0204 59.006 43.8216 59.006Z" fill="#FFC7A8"/>
<path d="M117.071 70.358C111.735 49.5555 103.079 37.0965 99.39 34.372C95.956 31.8462 91.614 31.534 90.9327 32.4137C90.507 32.953 92.7775 35.3085 93.6572 36.2735C101.15 44.5887 105.804 62.7522 100.014 76.9422C96.836 84.7185 89.826 93.0622 85.0297 91.927C83.1282 91.473 59.4592 69.1945 57.2172 71.3797C55.9685 72.6 59.374 76.3462 63.3472 85.4562C65.9582 91.4445 69.903 104.13 69.1085 117.356C68.8247 122.237 67.5192 130.921 61.162 140.996L100.241 140.485C100.241 140.485 118.234 104.982 121.186 82.0222C121.895 76.4315 118.036 74.161 117.071 70.358Z" fill="#FFC7A8"/>
<path d="M104.244 70.131C104.102 70.1025 104.017 70.0175 104.045 69.904C105.01 61.4468 101.462 50.1798 98.5391 45.27C98.4823 45.1565 98.5108 45.043 98.6243 44.9863C98.7378 44.9295 98.8513 44.9578 98.9081 45.0713C101.86 50.0378 105.436 61.4468 104.471 69.9608C104.442 70.0458 104.357 70.131 104.244 70.131Z" fill="#232323"/>
<path d="M19.9541 43.8225H16.2646V47.512H19.9541V43.8225Z" fill="#F3E6DE"/>
<path opacity="0.77" d="M26.6802 52.1097H16.2646V53.4152H26.6802V52.1097Z" fill="#F1F2F2"/>
<path opacity="0.77" d="M26.6802 54.976H16.2646V56.2815H26.6802V54.976Z" fill="#F1F2F2"/>
<path opacity="0.77" d="M26.6802 57.8423H16.2646V59.1478H26.6802V57.8423Z" fill="#F1F2F2"/>
<path opacity="0.77" d="M26.6802 60.7087H16.2646V62.0142H26.6802V60.7087Z" fill="#F1F2F2"/>
<path opacity="0.77" d="M26.6802 63.6035H16.2646V64.909H26.6802V63.6035Z" fill="#F1F2F2"/>
<path opacity="0.77" d="M26.6802 66.47H16.2646V67.7755H26.6802V66.47Z" fill="#F1F2F2"/>
<path opacity="0.77" d="M26.6802 69.3363H16.2646V70.6418H26.6802V69.3363Z" fill="#F1F2F2"/>
<path opacity="0.77" d="M26.6802 75.0975H16.2646V76.403H26.6802V75.0975Z" fill="#F1F2F2"/>
<path opacity="0.77" d="M26.6802 77.9637H16.2646V79.2692H26.6802V77.9637Z" fill="#F1F2F2"/>
<path opacity="0.77" d="M26.6802 80.83H16.2646V82.1355H26.6802V80.83Z" fill="#F1F2F2"/>
<path opacity="0.77" d="M26.6802 83.6968H16.2646V85.0023H26.6802V83.6968Z" fill="#F1F2F2"/>
<path opacity="0.77" d="M26.6802 86.5916H16.2646V87.8971H26.6802V86.5916Z" fill="#F1F2F2"/>
<path opacity="0.77" d="M26.6802 89.458H16.2646V90.7635H26.6802V89.458Z" fill="#F1F2F2"/>
<path d="M26.6802 99.8168H16.2646V101.122H26.6802V99.8168Z" fill="#FFC7A8"/>
<path d="M26.6802 102.598H16.2646V103.904H26.6802V102.598Z" fill="#FFC7A8"/>
<path opacity="0.77" d="M146.984 65.8455H136.568V67.151H146.984V65.8455Z" fill="#2F5373"/>
<path opacity="0.77" d="M151.922 68.7123H136.568V70.0178H151.922V68.7123Z" fill="#2F5373"/>
<path opacity="0.77" d="M151.922 71.5782H136.568V72.8838H151.922V71.5782Z" fill="#2F5373"/>
<path d="M173.321 124.876H138.441V126.182H173.321V124.876Z" fill="#2F5373"/>
<path d="M173.321 127.743H138.441V129.049H173.321V127.743Z" fill="#2F5373"/>
<path d="M85.9377 35.3369H35.9034C34.3424 35.3369 33.0654 34.0597 33.0654 32.4989V31.9029C33.0654 30.3419 34.3424 29.0649 35.9034 29.0649H85.9377C87.4987 29.0649 88.7757 30.3419 88.7757 31.9029V32.4989C88.7757 34.0882 87.5269 35.3369 85.9377 35.3369ZM35.9034 29.5189C34.5697 29.5189 33.4912 30.5974 33.4912 31.9312V32.5272C33.4912 33.8612 34.5697 34.9397 35.9034 34.9397H85.9377C87.2717 34.9397 88.3499 33.8612 88.3499 32.5272V31.9312C88.3499 30.5974 87.2717 29.5189 85.9377 29.5189H35.9034Z" fill="#232323"/>
<path opacity="0.2" d="M40.5009 29.15H40.0752V34.9963H40.5009V29.15Z" fill="#232323"/>
<path d="M39.5933 71.2663H37.2093C36.8406 71.2663 36.5283 70.954 36.5283 70.585V68.2013C36.5283 67.8323 36.8406 67.52 37.2093 67.52H39.5933C39.9623 67.52 40.2746 67.8323 40.2746 68.2013V70.585C40.2746 70.954 39.9623 71.2663 39.5933 71.2663Z" fill="#FFC7A8"/>
<path d="M47.823 67.8037H41.4375V68.428H47.823V67.8037Z" fill="#FFC7A8"/>
<path d="M43.6227 69.0811H41.4375V69.7056H43.6227V69.0811Z" fill="#FFC7A8"/>
<path d="M42.2605 60.1128H35.875V60.7373H42.2605V60.1128Z" fill="#FFC7A8"/>
<path d="M38.0602 61.3615H35.875V61.986H38.0602V61.3615Z" fill="#FFC7A8"/>
<path d="M52.2217 70.3295H41.4375V70.954H52.2217V70.3295Z" fill="#FFC7A8"/>
<path d="M86.4771 43.8225H72.7129V46.2633H86.4771V43.8225Z" fill="#FFC7A8"/>
<path d="M162.167 43.085C160.578 42.1485 158.052 40.7577 156.094 40.6727C150.333 40.4172 136.114 39.4807 132.425 42.943C129.615 45.5825 128.168 49.4705 127.43 52.3085C126.919 54.2385 128.253 56.1682 130.268 56.367C131.375 56.4805 133.645 56.6222 136.483 56.7925L168.524 56.7075C168.524 56.7357 166.481 45.6392 162.167 43.085Z" fill="#F3E6DE"/>
<path d="M147.466 47.143C145.082 47.455 142.925 45.7523 142.641 43.3968L141.988 38.2883L141.421 33.719L150.02 32.6405L150.162 33.634L151.269 42.29C151.524 44.6738 149.85 46.859 147.466 47.143Z" fill="#FFBF85"/>
<path opacity="0.4" d="M150.134 33.6623C149.396 35.4503 148.544 37.0113 147.92 37.6923C147.21 38.4585 144.656 38.5153 141.988 38.2883L141.421 33.719L150.02 32.6405L150.134 33.6623Z" fill="#232323"/>
<path d="M138.072 20.352C138.072 20.352 133.872 34.9962 135.064 35.7057C136.256 36.4152 146.473 38.118 148.033 36.4152C149.594 34.7407 152.489 27.5322 151.751 25.2617C151.013 22.9913 142.613 19.0465 138.072 20.352Z" fill="#FFBF85"/>
<path d="M135.433 20.6925C134.241 20.0114 133.758 17.3153 134.042 15.6409C134.099 15.3287 134.184 15.0165 134.354 14.7327C135.319 12.9447 137.476 12.5758 139.179 13.2285C143.833 10.4189 147.04 12.8312 148.573 14.9313C149.481 16.1801 150.872 16.9747 152.404 17.1734C152.688 17.2018 152.972 17.2585 153.227 17.3153C153.738 17.4288 154.277 17.5991 154.618 17.9964C154.93 18.4221 154.873 19.16 154.362 19.3303C156.179 19.6141 157.995 20.7777 158.506 22.5372C158.818 23.5589 158.676 24.6374 158.534 25.6875C158.421 26.624 158.279 27.6458 157.683 28.3835C156.803 29.5188 155.185 29.7743 153.766 29.9445C153.539 30.881 152.433 31.477 151.524 31.1648C150.247 29.604 149.935 27.3335 150.73 25.4605C149.481 24.836 148.459 23.8143 147.807 22.594C147.778 22.594 138.64 22.5372 135.433 20.6925Z" fill="#2F5373"/>
<path d="M139.008 32.8677C138.526 32.8677 137.987 32.6974 137.533 32.4137C137.447 32.3569 137.419 32.2152 137.476 32.13C137.533 32.0447 137.674 32.0164 137.76 32.0732C138.327 32.4422 139.037 32.584 139.519 32.3855C139.831 32.2435 140.058 31.9879 140.144 31.6192C140.172 31.5054 140.285 31.4204 140.399 31.4487C140.512 31.4772 140.598 31.5907 140.569 31.7042C140.456 32.2152 140.144 32.5839 139.689 32.7827C139.462 32.8394 139.235 32.8677 139.008 32.8677Z" fill="#232323"/>
<path d="M139.547 29.8595C139.519 29.8595 139.519 29.8595 139.491 29.8595C139.037 29.7743 137.532 29.4053 137.419 28.6958C137.305 28.0715 138.895 25.943 139.377 25.2903C139.462 25.205 139.576 25.1768 139.689 25.2618C139.774 25.347 139.803 25.4605 139.718 25.574C138.781 26.7945 137.788 28.327 137.845 28.639C137.901 28.923 138.781 29.2635 139.604 29.4338C139.718 29.462 139.803 29.5758 139.774 29.6893C139.746 29.7743 139.661 29.8595 139.547 29.8595Z" fill="#232323"/>
<path d="M139.492 76.3177L140.4 78.1342L142.443 78.4465L140.967 79.8655L141.308 81.8805L139.492 80.9155L137.704 81.8805L138.044 79.8655L136.568 78.4465L138.612 78.1342L139.492 76.3177Z" fill="#F3DF88"/>
<path d="M147.693 76.3177L148.601 78.1342L150.616 78.4465L149.169 79.8655L149.509 81.8805L147.693 80.9155L145.877 81.8805L146.217 79.8655L144.77 78.4465L146.785 78.1342L147.693 76.3177Z" fill="#F3DF88"/>
<path d="M155.895 76.3177L156.775 78.1342L158.818 78.4465L157.342 79.8655L157.683 81.8805L155.895 80.9155L154.079 81.8805L154.419 79.8655L152.943 78.4465L154.987 78.1342L155.895 76.3177Z" fill="#F3DF88"/>
<path d="M164.069 76.3177L164.977 78.1342L166.992 78.4465L165.545 79.8655L165.885 81.8805L164.069 80.9155L162.252 81.8805L162.593 79.8655L161.146 78.4465L163.161 78.1342L164.069 76.3177Z" fill="#F3DF88"/>
<path d="M172.271 76.3177L173.151 78.1342L175.194 78.4465L173.718 79.8655L174.059 81.8805L172.271 80.9155L170.454 81.8805L170.795 79.8655L169.319 78.4465L171.363 78.1342L172.271 76.3177Z" fill="#F3DF88"/>
<path d="M148.375 111.537H138.441V118.178H148.375V111.537Z" fill="#FFC7A8"/>
<path d="M148.375 119.456H138.441V120.761H148.375V119.456Z" fill="#F1F2F2"/>
<path d="M160.862 111.537H150.929V118.178H160.862V111.537Z" fill="#F3E6DE"/>
<path d="M160.862 119.456H150.929V120.761H160.862V119.456Z" fill="#F1F2F2"/>
<path d="M173.321 111.537H163.388V118.178H173.321V111.537Z" fill="#FFC7A8"/>
<path d="M173.321 119.456H163.388V120.761H173.321V119.456Z" fill="#F1F2F2"/>
<path d="M148.375 98.3977H138.441V105.039H148.375V98.3977Z" fill="#F3E6DE"/>
<path d="M148.375 106.344H138.441V107.65H148.375V106.344Z" fill="#F1F2F2"/>
<path d="M160.862 98.3977H150.929V105.039H160.862V98.3977Z" fill="#FFC7A8"/>
<path d="M160.862 106.344H150.929V107.65H160.862V106.344Z" fill="#F1F2F2"/>
<path d="M173.321 98.3977H163.388V105.039H173.321V98.3977Z" fill="#F3E6DE"/>
<path d="M173.321 106.344H163.388V107.65H173.321V106.344Z" fill="#F1F2F2"/>
<path d="M148.375 85.286H138.441V91.9268H148.375V85.286Z" fill="#F3E6DE"/>
<path d="M148.375 93.2323H138.441V94.5378H148.375V93.2323Z" fill="#F1F2F2"/>
<path d="M160.862 85.286H150.929V91.9268H160.862V85.286Z" fill="#F3E6DE"/>
<path d="M160.862 93.2323H150.929V94.5378H160.862V93.2323Z" fill="#F1F2F2"/>
<path d="M173.321 85.286H163.388V91.9268H173.321V85.286Z" fill="#FFC7A8"/>
<path d="M173.321 93.2323H163.388V94.5378H173.321V93.2323Z" fill="#F1F2F2"/>
<path d="M148.375 95.4742H138.441V96.127H148.375V95.4742Z" fill="#F1F2F2"/>
<path d="M160.862 95.4742H150.929V96.127H160.862V95.4742Z" fill="#F1F2F2"/>
<path d="M173.321 95.4742H163.388V96.127H173.321V95.4742Z" fill="#F1F2F2"/>
<path d="M148.375 108.586H138.441V109.239H148.375V108.586Z" fill="#F1F2F2"/>
<path d="M160.862 108.586H150.929V109.239H160.862V108.586Z" fill="#F1F2F2"/>
<path d="M173.321 108.586H163.388V109.239H173.321V108.586Z" fill="#F1F2F2"/>
<path d="M148.375 121.839H138.441V122.492H148.375V121.839Z" fill="#F1F2F2"/>
<path d="M160.862 121.839H150.929V122.492H160.862V121.839Z" fill="#F1F2F2"/>
<path d="M173.321 121.839H163.388V122.492H173.321V121.839Z" fill="#F1F2F2"/>
<path d="M65.5602 9H63.8574V9.5676H65.5602V9Z" fill="#FFC7A8"/>
<path d="M113.921 9.5676H110.459V9H113.921V9.5676ZM107.025 9.5676H103.562V9H107.025V9.5676ZM100.1 9.5676H96.6374V9H100.1V9.5676ZM93.2034 9.5676H89.7411V9H93.2034V9.5676ZM86.2786 9.5676H82.8164V9H86.2786V9.5676ZM79.3824 9.5676H75.9199V9H79.3824V9.5676ZM72.4576 9.5676H68.9951V9H72.4576V9.5676Z" fill="#FFC7A8"/>
<path d="M119.086 9H117.383V9.5676H119.086V9Z" fill="#FFC7A8"/>
<path d="M60.7934 139.606C60.8216 139.634 60.8784 139.634 60.9069 139.663C60.9636 139.691 61.0204 139.719 61.0771 139.719C61.1339 139.719 61.1906 139.719 61.2474 139.719C61.3041 139.719 61.3609 139.691 61.3891 139.634C61.4461 139.606 61.4744 139.577 61.5029 139.521C61.5311 139.492 61.5311 139.464 61.5596 139.407C61.5879 139.322 61.5879 139.265 61.5596 139.18C61.5311 139.152 61.5311 139.123 61.5029 139.067C61.4744 139.01 61.4176 138.953 61.3609 138.925C61.3324 138.896 61.2756 138.896 61.2474 138.868C61.1906 138.84 61.1339 138.811 61.0771 138.811C61.0204 138.811 60.9636 138.811 60.9069 138.811C60.8501 138.811 60.7934 138.84 60.7649 138.896C60.7081 138.925 60.6796 138.953 60.6514 139.01C60.6229 139.038 60.6229 139.067 60.5946 139.123C60.5661 139.208 60.5661 139.265 60.5946 139.35C60.6229 139.379 60.6229 139.407 60.6514 139.464C60.6796 139.521 60.7364 139.577 60.7934 139.606Z" fill="#2F5373"/>
<path d="M65.0499 137.704C65.5892 137.704 65.5892 136.853 65.0499 136.853C64.5107 136.853 64.5107 137.704 65.0499 137.704Z" fill="#2F5373"/>
<path d="M71.2648 139.634C71.804 139.634 71.804 138.782 71.2648 138.782C70.7255 138.782 70.7255 139.634 71.2648 139.634Z" fill="#2F5373"/>
<path d="M84.8878 138.84C85.4271 138.84 85.4271 137.988 84.8878 137.988C84.3486 137.988 84.3486 138.84 84.8878 138.84Z" fill="#2F5373"/>
<path d="M87.7257 140.117C88.265 140.117 88.265 139.265 87.7257 139.265C87.1865 139.265 87.1865 140.117 87.7257 140.117Z" fill="#2F5373"/>
<path d="M81.5108 139.038C82.0501 139.038 82.0501 138.187 81.5108 138.187C80.9716 138.187 80.9433 139.038 81.5108 139.038Z" fill="#2F5373"/>
<path d="M69.7326 136.427C70.2718 136.427 70.2718 135.576 69.7326 135.576C69.1933 135.576 69.1933 136.427 69.7326 136.427Z" fill="#2F5373"/>
<path d="M84.632 136.995C85.171 136.995 85.171 136.143 84.632 136.143C84.0927 136.143 84.0927 136.995 84.632 136.995Z" fill="#2F5373"/>
<path d="M89.5702 137.137C90.1094 137.137 90.1094 136.285 89.5702 136.285C89.0027 136.285 89.0027 137.137 89.5702 137.137Z" fill="#2F5373"/>
<path d="M73.536 138.045C74.0752 138.045 74.0752 137.193 73.536 137.193C72.9685 137.193 72.9685 138.045 73.536 138.045Z" fill="#2F5373"/>
<path d="M78.8428 137.279C79.3821 137.279 79.3821 136.427 78.8428 136.427C78.2751 136.427 78.2751 137.279 78.8428 137.279Z" fill="#2F5373"/>
<path d="M77.5939 139.889C78.1331 139.889 78.1331 139.038 77.5939 139.038C77.0546 139.038 77.0546 139.889 77.5939 139.889Z" fill="#2F5373"/>
<path d="M92.408 139.35C92.9473 139.35 92.9473 138.499 92.408 138.499C91.8405 138.499 91.8405 139.35 92.408 139.35Z" fill="#2F5373"/>
<path d="M73.9328 141.025C74.472 141.025 74.472 140.173 73.9328 140.173C73.3935 140.173 73.3935 141.025 73.9328 141.025Z" fill="#2F5373"/>
<path d="M97.3751 136.143C97.9144 136.143 97.9144 135.292 97.3751 135.292C96.8359 135.292 96.8359 136.143 97.3751 136.143Z" fill="#2F5373"/>
<path d="M103.931 140.06C104.47 140.06 104.47 139.208 103.931 139.208C103.363 139.208 103.363 140.06 103.931 140.06Z" fill="#2F5373"/>
<path d="M61.5594 136.342C62.0987 136.342 62.0987 135.491 61.5594 135.491C60.9919 135.491 60.9919 136.342 61.5594 136.342Z" fill="#2F5373"/>
<path d="M97.3751 138.811C97.9144 138.811 97.9144 137.96 97.3751 137.96C96.8359 137.96 96.8359 138.811 97.3751 138.811Z" fill="#2F5373"/>
<path d="M100.922 139.294C101.461 139.294 101.461 138.442 100.922 138.442C100.383 138.442 100.383 139.294 100.922 139.294Z" fill="#2F5373"/>
<path d="M94.7355 140.599C95.2747 140.599 95.2747 139.748 94.7355 139.748C94.1962 139.748 94.1962 140.599 94.7355 140.599Z" fill="#2F5373"/>
<path d="M99.8439 135.916C100.383 135.916 100.383 135.065 99.8439 135.065C99.3046 135.065 99.3046 135.916 99.8439 135.916Z" fill="#2F5373"/>
<path d="M102.994 136.03C103.534 136.03 103.534 135.178 102.994 135.178C102.455 135.178 102.455 136.03 102.994 136.03Z" fill="#2F5373"/>
<path d="M64.6522 140.117C65.1914 140.117 65.1914 139.265 64.6522 139.265C64.0847 139.265 64.0847 140.117 64.6522 140.117Z" fill="#2F5373"/>
<path d="M68.7393 139.35C69.2785 139.35 69.2785 138.499 68.7393 138.499C68.1715 138.499 68.1715 139.35 68.7393 139.35Z" fill="#2F5373"/>
<path d="M95.1613 131.518C95.7003 131.518 95.7003 130.666 95.1613 130.666C94.622 130.666 94.622 131.518 95.1613 131.518Z" fill="#2F5373"/>
<path d="M98.1408 131.716C98.68 131.716 98.68 130.865 98.1408 130.865C97.6015 130.865 97.6015 131.716 98.1408 131.716Z" fill="#2F5373"/>
<path d="M99.3048 126.182C99.8441 126.182 99.8441 125.33 99.3048 125.33C98.7656 125.33 98.7656 126.182 99.3048 126.182Z" fill="#2F5373"/>
<path d="M101.888 130.24C102.427 130.24 102.427 129.389 101.888 129.389C101.32 129.389 101.32 130.24 101.888 130.24Z" fill="#2F5373"/>
<path d="M107.308 122.123C107.847 122.123 107.847 121.272 107.308 121.272C106.769 121.272 106.769 122.123 107.308 122.123Z" fill="#2F5373"/>
<path d="M98.1408 118.519C98.68 118.519 98.68 117.668 98.1408 117.668C97.6015 117.668 97.6015 118.519 98.1408 118.519Z" fill="#2F5373"/>
<path d="M101.972 123.315C102.511 123.315 102.511 122.464 101.972 122.464C101.433 122.464 101.433 123.315 101.972 123.315Z" fill="#2F5373"/>
<path d="M104.328 116.05C104.867 116.05 104.867 115.199 104.328 115.199C103.789 115.199 103.789 116.05 104.328 116.05Z" fill="#2F5373"/>
<path d="M93.5721 135.462C94.1114 135.462 94.1114 134.61 93.5721 134.61C93.0046 134.61 93.0046 135.462 93.5721 135.462Z" fill="#2F5373"/>
<path d="M86.3068 131.829C86.846 131.829 86.846 130.978 86.3068 130.978C85.7675 130.978 85.7675 131.829 86.3068 131.829Z" fill="#2F5373"/>
<path d="M92.8058 128.112C93.3451 128.112 93.3451 127.26 92.8058 127.26C92.2666 127.26 92.2666 128.112 92.8058 128.112Z" fill="#2F5373"/>
<path d="M108.698 116.164C109.238 116.164 109.238 115.312 108.698 115.312C108.159 115.312 108.159 116.164 108.698 116.164Z" fill="#2F5373"/>
<path d="M113.921 117.866C114.46 117.866 114.46 117.015 113.921 117.015C113.382 117.015 113.382 117.866 113.921 117.866Z" fill="#2F5373"/>
<path d="M111.679 109.665C112.218 109.665 112.218 108.813 111.679 108.813C111.14 108.813 111.14 109.665 111.679 109.665Z" fill="#2F5373"/>
<path d="M116.588 98.9935C117.127 98.9935 117.127 98.142 116.588 98.142C116.049 98.142 116.02 98.9935 116.588 98.9935Z" fill="#2F5373"/>
<path d="M109.124 104.982C109.663 104.982 109.663 104.13 109.124 104.13C108.585 104.13 108.585 104.982 109.124 104.982Z" fill="#2F5373"/>
<path d="M102.738 112.644C103.277 112.644 103.277 111.793 102.738 111.793C102.171 111.793 102.171 112.644 102.738 112.644Z" fill="#2F5373"/>
<path d="M116.163 103.052C116.702 103.052 116.702 102.201 116.163 102.201C115.624 102.201 115.595 103.052 116.163 103.052Z" fill="#2F5373"/>
<path d="M116.787 107.423C117.326 107.423 117.326 106.571 116.787 106.571C116.248 106.571 116.248 107.423 116.787 107.423Z" fill="#2F5373"/>
<path d="M118.065 95.2761C118.604 95.2761 118.604 94.4246 118.065 94.4246C117.525 94.4246 117.525 95.2761 118.065 95.2761Z" fill="#2F5373"/>
<path d="M119.767 87.0738C120.306 87.0738 120.306 86.2225 119.767 86.2225C119.227 86.2225 119.227 87.0738 119.767 87.0738Z" fill="#2F5373"/>
<path d="M117.865 76.9422C118.405 76.9422 118.405 76.0907 117.865 76.0907C117.326 76.0907 117.326 76.9422 117.865 76.9422Z" fill="#2F5373"/>
<path d="M116.163 81.9369C116.702 81.9369 116.702 81.0857 116.163 81.0857C115.624 81.0857 115.595 81.9369 116.163 81.9369Z" fill="#2F5373"/>
<path d="M115.51 88.9753C116.049 88.9753 116.049 88.1238 115.51 88.1238C114.971 88.1238 114.971 88.9753 115.51 88.9753Z" fill="#2F5373"/>
<path d="M112.416 98.9083C112.955 98.9083 112.955 98.057 112.416 98.057C111.877 98.057 111.877 98.9083 112.416 98.9083Z" fill="#2F5373"/>
<path d="M122.435 91.4445C122.974 91.4445 122.974 90.593 122.435 90.593C121.895 90.593 121.895 91.4445 122.435 91.4445Z" fill="#2F5373"/>
<path d="M15.6115 112.645C16.4266 112.645 17.0873 111.984 17.0873 111.169C17.0873 110.353 16.4266 109.693 15.6115 109.693C14.7965 109.693 14.1357 110.353 14.1357 111.169C14.1357 111.984 14.7965 112.645 15.6115 112.645Z" fill="#F3E6DE"/>
<path d="M15.6115 121.357C16.4266 121.357 17.0873 120.696 17.0873 119.881C17.0873 119.066 16.4266 118.406 15.6115 118.406C14.7965 118.406 14.1357 119.066 14.1357 119.881C14.1357 120.696 14.7965 121.357 15.6115 121.357Z" fill="#FFC7A8"/>
<path d="M15.6115 114.489C16.1791 114.489 16.6616 114.943 16.6616 115.539C16.6616 116.107 16.2075 116.589 15.6115 116.589C15.0155 116.589 14.5614 116.135 14.5614 115.539C14.5898 114.972 15.0439 114.489 15.6115 114.489ZM15.6115 114.063C14.7885 114.063 14.1357 114.716 14.1357 115.539C14.1357 116.362 14.7885 117.015 15.6115 117.015C16.4345 117.015 17.0873 116.362 17.0873 115.539C17.0873 114.716 16.4345 114.063 15.6115 114.063Z" fill="#2F5373"/>
<path d="M10.8725 20.6643H5.59375V25.943H10.8725V20.6643Z" fill="#F3E6DE"/>
<path d="M21.4574 20.6643H16.1787V25.943H21.4574V20.6643Z" fill="#F3E6DE"/>
<path d="M16.1791 25.9712H10.9004V31.2499H16.1791V25.9712Z" fill="#F3E6DE"/>
<path d="M16.1791 15.3855H10.9004V20.6642H16.1791V15.3855Z" fill="#F3E6DE"/>
<path d="M120.618 23.0764H115.936V27.7592H120.618V23.0764Z" fill="#F3E6DE"/>
<path d="M115.936 27.7593H111.253V32.442H115.936V27.7593Z" fill="#F3E6DE"/>
<path d="M144.401 22.0265C144.401 22.0265 144.061 23.8429 145.111 24.9497C146.161 26.0565 150.986 26.7375 150.986 26.7375L154.051 23.701L148.772 21.0332L144.401 22.0265Z" fill="#2F5373"/>
<path d="M149.055 31.3636C148.942 31.3636 148.857 31.3353 148.8 31.2783C148.232 30.9378 148.005 30.1148 148.062 29.462C148.119 28.866 148.403 28.412 148.828 28.27C148.942 28.2418 149.055 28.2985 149.112 28.3835C149.14 28.497 149.084 28.6108 148.999 28.6675C148.601 28.8093 148.516 29.2918 148.516 29.5188C148.459 30.1148 148.686 30.7393 149.055 30.9378C149.112 30.9663 149.254 30.9095 149.424 30.7675C150.219 30.0865 151.212 27.816 150.786 26.8228C150.701 26.624 150.559 26.482 150.361 26.4253C149.736 26.255 148.63 26.9078 148.289 27.1633C148.204 27.22 148.062 27.22 148.005 27.1065C147.948 27.0213 147.948 26.8795 148.062 26.8228C148.119 26.766 149.538 25.7443 150.503 25.9998C150.815 26.0848 151.07 26.3118 151.212 26.6525C151.723 27.8443 150.673 30.285 149.736 31.0798C149.424 31.3068 149.226 31.3636 149.055 31.3636Z" fill="#232323"/>
<path d="M149.055 31.3636C148.942 31.3636 148.857 31.3353 148.8 31.2783C148.232 30.9378 148.005 30.1148 148.062 29.462C148.119 28.866 148.403 28.412 148.828 28.27C148.942 28.2418 149.055 28.2985 149.112 28.3835C149.14 28.497 149.084 28.6108 148.999 28.6675C148.601 28.8093 148.516 29.2918 148.516 29.5188C148.459 30.1148 148.686 30.7393 149.055 30.9378C149.112 30.9663 149.254 30.9095 149.424 30.7675C150.219 30.0865 151.212 27.816 150.786 26.8228C150.701 26.624 150.559 26.482 150.361 26.4253C149.736 26.255 148.63 26.9078 148.289 27.1633C148.204 27.22 148.062 27.22 148.005 27.1065C147.948 27.0213 147.948 26.8795 148.062 26.8228C148.119 26.766 149.538 25.7443 150.503 25.9998C150.815 26.0848 151.07 26.3118 151.212 26.6525C151.723 27.8443 150.673 30.285 149.736 31.0798C149.424 31.3068 149.226 31.3636 149.055 31.3636Z" fill="#232323"/>
<path d="M8.85693 94.339C8.74341 94.339 8.62988 94.254 8.62988 94.112V92.9767C8.62988 92.8632 8.71503 92.7497 8.85693 92.7497C8.99883 92.7497 9.08398 92.835 9.08398 92.9767V94.112C9.08398 94.254 8.97046 94.339 8.85693 94.339ZM8.85693 92.0687C8.74341 92.0687 8.62988 91.9835 8.62988 91.8415V90.7065C8.62988 90.593 8.71503 90.4792 8.85693 90.4792C8.99883 90.4792 9.08398 90.5645 9.08398 90.7065V91.8415C9.08398 91.9835 8.97046 92.0687 8.85693 92.0687ZM8.85693 89.7982C8.74341 89.7982 8.62988 89.713 8.62988 89.5712V88.436C8.62988 88.3225 8.71503 88.209 8.85693 88.209C8.99883 88.209 9.08398 88.294 9.08398 88.436V89.5712C9.08398 89.713 8.97046 89.7982 8.85693 89.7982ZM8.85693 87.5277C8.74341 87.5277 8.62988 87.4427 8.62988 87.3007V86.1655C8.62988 86.052 8.71503 85.9385 8.85693 85.9385C8.99883 85.9385 9.08398 86.0237 9.08398 86.1655V87.3007C9.08398 87.4427 8.97046 87.5277 8.85693 87.5277ZM8.85693 85.2575C8.74341 85.2575 8.62988 85.1722 8.62988 85.0302V83.8952C8.62988 83.7817 8.71503 83.668 8.85693 83.668C8.99883 83.668 9.08398 83.7532 9.08398 83.8952V85.0302C9.08398 85.1722 8.97046 85.2575 8.85693 85.2575ZM8.85693 82.987C8.74341 82.987 8.62988 82.9017 8.62988 82.76V81.6247C8.62988 81.5112 8.71503 81.3977 8.85693 81.3977C8.99883 81.3977 9.08398 81.4827 9.08398 81.6247V82.76C9.08398 82.9017 8.97046 82.987 8.85693 82.987Z" fill="#2F5373"/>
<path d="M8.85693 81.8521C8.74341 81.8521 8.62988 81.7668 8.62988 81.6248V53.4433C8.62988 53.3298 8.71503 53.2163 8.85693 53.2163C8.99883 53.2163 9.08398 53.3016 9.08398 53.4433V81.6248C9.08398 81.7668 8.97046 81.8521 8.85693 81.8521Z" fill="#2F5373"/>
<path d="M8.85704 78.3895H5.79199V44.8442H8.85704C8.97057 44.8442 9.08409 44.9295 9.08409 45.0712C9.08409 45.2132 8.99894 45.2982 8.85704 45.2982H6.21769V77.964H8.85704C8.97057 77.964 9.08409 78.049 9.08409 78.191C9.08409 78.3327 8.97057 78.3895 8.85704 78.3895Z" fill="#2F5373"/>
<path d="M9.19762 45.6672C9.54244 45.6672 9.82199 45.3877 9.82199 45.0427C9.82199 44.698 9.54244 44.4185 9.19762 44.4185C8.85279 44.4185 8.57324 44.698 8.57324 45.0427C8.57324 45.3877 8.85279 45.6672 9.19762 45.6672Z" fill="#F3E6DE"/>
<path d="M8.8568 96.723C9.20162 96.723 9.48115 96.4435 9.48115 96.0987C9.48115 95.754 9.20162 95.4742 8.8568 95.4742C8.51197 95.4742 8.23242 95.754 8.23242 96.0987C8.23242 96.4435 8.51197 96.723 8.8568 96.723Z" fill="#F3E6DE"/>
<path d="M128.933 124.394C128.82 124.394 128.706 124.309 128.706 124.167V123.032C128.706 122.918 128.791 122.805 128.933 122.805C129.075 122.805 129.16 122.89 129.16 123.032V124.167C129.16 124.309 129.075 124.394 128.933 124.394ZM128.933 122.124C128.82 122.124 128.706 122.039 128.706 121.897V120.761C128.706 120.648 128.791 120.534 128.933 120.534C129.075 120.534 129.16 120.62 129.16 120.761V121.897C129.16 122.039 129.075 122.124 128.933 122.124ZM128.933 119.853C128.82 119.853 128.706 119.768 128.706 119.626V118.491C128.706 118.378 128.791 118.264 128.933 118.264C129.075 118.264 129.16 118.349 129.16 118.491V119.626C129.16 119.768 129.075 119.853 128.933 119.853ZM128.933 117.583C128.82 117.583 128.706 117.498 128.706 117.356V116.221C128.706 116.107 128.791 115.994 128.933 115.994C129.075 115.994 129.16 116.079 129.16 116.221V117.356C129.16 117.498 129.075 117.583 128.933 117.583ZM128.933 115.312C128.82 115.312 128.706 115.227 128.706 115.085V113.95C128.706 113.837 128.791 113.723 128.933 113.723C129.075 113.723 129.16 113.808 129.16 113.95V115.085C129.16 115.227 129.075 115.312 128.933 115.312ZM128.933 113.042C128.82 113.042 128.706 112.957 128.706 112.815V111.68C128.706 111.566 128.791 111.453 128.933 111.453C129.075 111.453 129.16 111.538 129.16 111.68V112.815C129.16 112.957 129.075 113.042 128.933 113.042Z" fill="#2F5373"/>
<path d="M128.933 111.907C128.82 111.907 128.706 111.821 128.706 111.679V101.065C128.706 100.952 128.791 100.838 128.933 100.838C129.075 100.838 129.16 100.923 129.16 101.065V111.679C129.16 111.821 129.075 111.907 128.933 111.907Z" fill="#2F5373"/>
<path d="M128.934 126.778C129.279 126.778 129.558 126.498 129.558 126.154C129.558 125.809 129.279 125.529 128.934 125.529C128.589 125.529 128.31 125.809 128.31 126.154C128.31 126.498 128.589 126.778 128.934 126.778Z" fill="#FFC7A8"/>
<path d="M131.687 91.5012C132.032 91.5012 132.311 91.2217 132.311 90.8767C132.311 90.5319 132.032 90.2524 131.687 90.2524C131.342 90.2524 131.062 90.5319 131.062 90.8767C131.062 91.2217 131.342 91.5012 131.687 91.5012Z" fill="#2F5373"/>
<path d="M8.8568 54.0112C9.20162 54.0112 9.48115 53.7317 9.48115 53.3867C9.48115 53.0419 9.20162 52.7625 8.8568 52.7625C8.51197 52.7625 8.23242 53.0419 8.23242 53.3867C8.23242 53.7317 8.51197 54.0112 8.8568 54.0112Z" fill="#F3E6DE"/>
<path d="M131.687 104.045C131.573 104.045 131.46 103.96 131.46 103.818V93.2041C131.46 93.0906 131.545 92.9771 131.687 92.9771C131.829 92.9771 131.914 93.0623 131.914 93.2041V103.818C131.914 103.932 131.8 104.045 131.687 104.045Z" fill="#2F5373"/>
<path d="M35.8754 122.578C35.7619 122.578 35.6484 122.493 35.6484 122.351V111.736C35.6484 111.623 35.7337 111.509 35.8754 111.509C36.0174 111.509 36.1027 111.595 36.1027 111.736V122.351C36.1027 122.464 35.9892 122.578 35.8754 122.578Z" fill="#2F5373"/>
<path d="M35.8754 108.955C35.7619 108.955 35.6484 108.87 35.6484 108.728V107.593C35.6484 107.479 35.7337 107.365 35.8754 107.365C36.0174 107.365 36.1027 107.451 36.1027 107.593V108.728C36.1027 108.841 35.9892 108.955 35.8754 108.955ZM35.8754 106.684C35.7619 106.684 35.6484 106.599 35.6484 106.457V105.322C35.6484 105.209 35.7337 105.095 35.8754 105.095C36.0174 105.095 36.1027 105.18 36.1027 105.322V106.457C36.1027 106.571 35.9892 106.684 35.8754 106.684ZM35.8754 104.414C35.7619 104.414 35.6484 104.329 35.6484 104.187V103.052C35.6484 102.938 35.7337 102.825 35.8754 102.825C36.0174 102.825 36.1027 102.91 36.1027 103.052V104.187C36.1027 104.3 35.9892 104.414 35.8754 104.414ZM35.8754 102.144C35.7619 102.144 35.6484 102.058 35.6484 101.916V100.781C35.6484 100.668 35.7337 100.554 35.8754 100.554C36.0174 100.554 36.1027 100.639 36.1027 100.781V101.916C36.1027 102.03 35.9892 102.144 35.8754 102.144ZM35.8754 99.8732C35.7619 99.8732 35.6484 99.7879 35.6484 99.6462V98.5109C35.6484 98.3974 35.7337 98.2839 35.8754 98.2839C36.0174 98.2839 36.1027 98.3689 36.1027 98.5109V99.6462C36.1027 99.7597 35.9892 99.8732 35.8754 99.8732Z" fill="#2F5373"/>
<path d="M8.06252 135.036H2.5V140.599H8.06252V135.036Z" fill="#F3E6DE"/>
<path d="M16.5762 135.036H11.0137V140.599H16.5762V135.036Z" fill="#FFC7A8"/>
<path d="M187.074 119.535L185.528 121.08L187.074 122.626L188.619 121.08L187.074 119.535Z" fill="#FFC7A8"/>
<path d="M189.701 116.88L188.155 118.425L189.701 119.97L191.246 118.425L189.701 116.88Z" fill="#FFC7A8"/>
<path d="M189.901 122.371L188.355 123.917L189.901 125.462L191.446 123.917L189.901 122.371Z" fill="#FFC7A8"/>
<path d="M192.548 119.736L191.003 121.281L192.548 122.826L194.093 121.281L192.548 119.736Z" fill="#FFC7A8"/>
</svg>
