<svg width="702" height="428" viewBox="0 0 702 428" fill="none" xmlns="http://www.w3.org/2000/svg">
<g clip-path="url(#clip0)">
<rect x="6.8457" y="39.982" width="123.23" height="19.1691" rx="3.42305" fill="black" fill-opacity="0.2"/>
<path d="M16.7418 52.5421C17.4328 52.5421 18.0803 52.3335 18.6191 51.9772L20.5225 53.8849C20.6486 54.0066 20.8094 54.0675 20.9832 54.0675C21.3439 54.0675 21.609 53.785 21.609 53.4287C21.609 53.2635 21.5525 53.1027 21.4308 52.981L19.5404 51.082C19.9315 50.5301 20.1619 49.8522 20.1619 49.1221C20.1619 47.2404 18.6235 45.7021 16.7418 45.7021C14.8645 45.7021 13.3218 47.2404 13.3218 49.1221C13.3218 51.0038 14.8601 52.5421 16.7418 52.5421ZM16.7418 51.6295C15.3642 51.6295 14.2344 50.4997 14.2344 49.1221C14.2344 47.7489 15.3642 46.6146 16.7418 46.6146C18.1194 46.6146 19.2493 47.7489 19.2493 49.1221C19.2493 50.4997 18.1194 51.6295 16.7418 51.6295Z" fill="white"/>
<path d="M27.9536 53.2418C29.4138 53.2418 30.3481 52.4943 30.3481 51.2949V51.2906C30.3481 50.3606 29.8092 49.8304 28.4925 49.548L27.8102 49.3959C26.9976 49.222 26.6673 48.9178 26.6673 48.4529V48.4485C26.6673 47.8575 27.2105 47.5142 27.9449 47.5142C28.7054 47.5099 29.1965 47.8836 29.2791 48.3964L29.2878 48.4529H30.2308L30.2264 48.392C30.1569 47.4186 29.2878 46.6668 27.958 46.6668C26.6282 46.6668 25.6895 47.4142 25.6852 48.4963V48.5007C25.6852 49.4263 26.2328 50.0173 27.506 50.2867L28.1927 50.4345C29.0227 50.6127 29.3616 50.9255 29.3616 51.4079V51.4123C29.3616 51.9946 28.7924 52.3944 27.9928 52.3944C27.154 52.3944 26.55 52.0293 26.4978 51.4601L26.4935 51.4123H25.5374L25.5418 51.4688C25.6287 52.5248 26.537 53.2418 27.9536 53.2418ZM33.5031 53.181C34.7112 53.181 35.363 52.4856 35.5195 51.8642L35.5281 51.8251L34.6199 51.8294L34.6025 51.8642C34.4895 52.1076 34.1288 52.4074 33.5248 52.4074C32.7469 52.4074 32.2515 51.8816 32.2341 50.9777H35.5803V50.6474C35.5803 49.2307 34.772 48.279 33.4553 48.279C32.1385 48.279 31.2868 49.2655 31.2868 50.7387V50.743C31.2868 52.2379 32.1211 53.181 33.5031 53.181ZM33.4596 49.0526C34.0984 49.0526 34.5721 49.4611 34.646 50.3041H32.2472C32.3297 49.4915 32.8164 49.0526 33.4596 49.0526ZM37.9965 53.1679C38.6223 53.1679 39.1177 52.8985 39.3958 52.4205H39.4697V53.0897H40.404V49.8609C40.404 48.87 39.7348 48.279 38.5484 48.279C37.475 48.279 36.7319 48.7962 36.6189 49.5697L36.6146 49.6001H37.5228L37.5271 49.5827C37.6401 49.2481 37.9834 49.0569 38.5049 49.0569C39.1437 49.0569 39.4697 49.3437 39.4697 49.8609V50.278L38.192 50.3519C37.0665 50.4214 36.432 50.9125 36.432 51.7556V51.7643C36.432 52.6204 37.0969 53.1679 37.9965 53.1679ZM37.3707 51.7252V51.7165C37.3707 51.2906 37.6662 51.0559 38.3181 51.0168L39.4697 50.9429V51.3471C39.4697 51.9555 38.9525 52.4161 38.2485 52.4161C37.7401 52.4161 37.3707 52.1597 37.3707 51.7252ZM41.7338 53.0897H42.6768V50.2694C42.6768 49.5871 43.1678 49.1438 43.8892 49.1438C44.0674 49.1438 44.2282 49.1656 44.3977 49.2003V48.3312C44.3021 48.3095 44.1369 48.2877 43.9848 48.2877C43.3547 48.2877 42.9158 48.5832 42.7463 49.083H42.6768V48.3703H41.7338V53.0897ZM47.1615 53.181C48.3305 53.181 49.0041 52.5508 49.1735 51.6339L49.1822 51.5948H48.2783L48.2696 51.6165C48.1175 52.125 47.7525 52.3944 47.1615 52.3944C46.3836 52.3944 45.9013 51.7599 45.9013 50.717V50.7083C45.9013 49.6914 46.3749 49.0656 47.1615 49.0656C47.7873 49.0656 48.1697 49.4133 48.274 49.8782L48.2783 49.8913L49.1822 49.8869V49.8652C49.0519 48.9483 48.3435 48.279 47.1572 48.279C45.7796 48.279 44.9409 49.2134 44.9409 50.7083V50.717C44.9409 52.2423 45.7839 53.181 47.1615 53.181ZM50.2947 53.0897H51.2377V50.3215C51.2377 49.561 51.668 49.0873 52.3589 49.0873C53.0499 49.0873 53.3758 49.4741 53.3758 50.2563V53.0897H54.3145V50.0347C54.3145 48.9092 53.7322 48.279 52.6762 48.279C51.9895 48.279 51.5376 48.5832 51.3073 49.0873H51.2377V46.519H50.2947V53.0897Z" fill="white" fill-opacity="0.6"/>
<rect x="6.8457" y="67.3664" width="123.23" height="19.1691" rx="3.42305" fill="white" fill-opacity="0.1"/>
<g clip-path="url(#clip1)">
<path d="M21.9086 83.1126H15.7471C15.3706 83.1126 15.0625 82.8045 15.0625 82.428V71.4742C15.0625 71.0977 15.3706 70.7896 15.7471 70.7896H21.9086V83.1126Z" stroke="white" stroke-opacity="0.6" stroke-width="0.821532" stroke-miterlimit="10" stroke-linecap="round" stroke-linejoin="round"/>
<path d="M28.0707 83.113H21.9092V70.79H28.0707C28.4472 70.79 28.7553 71.0981 28.7553 71.4746V82.4284C28.7553 82.8049 28.4472 83.113 28.0707 83.113Z" stroke="white" stroke-opacity="0.6" stroke-width="0.821532" stroke-miterlimit="10" stroke-linecap="round" stroke-linejoin="round"/>
<path d="M16.4326 76.9517H20.5403" stroke="white" stroke-opacity="0.6" stroke-width="0.821532" stroke-miterlimit="10"/>
<path d="M16.4326 74.2135H20.5403" stroke="white" stroke-opacity="0.6" stroke-width="0.821532" stroke-miterlimit="10"/>
<path d="M16.4326 79.6898H20.5403" stroke="white" stroke-opacity="0.6" stroke-width="0.821532" stroke-miterlimit="10"/>
<path d="M23.2764 76.9517H27.384" stroke="white" stroke-opacity="0.6" stroke-width="0.821532" stroke-miterlimit="10"/>
<path d="M23.2764 74.2135H27.384" stroke="white" stroke-opacity="0.6" stroke-width="0.821532" stroke-miterlimit="10"/>
<rect x="36.9678" y="75.8567" width="31.7337" height="2.18853" rx="1.09427" fill="white" fill-opacity="0.3"/>
</g>
<g clip-path="url(#clip2)">
<path d="M21.2251 94.7482C19.6231 94.7482 17.6035 95.9257 17.6377 98.9654L15.091 102.265C15.0157 102.361 15.1047 102.484 15.2416 102.484L16.9394 103.326C17.0284 103.956 17.357 105.791 17.535 106.708C17.5966 106.996 20.4035 106.777 20.4035 106.777L21.2251 108.44" stroke="white" stroke-opacity="0.6" stroke-width="0.821532" stroke-miterlimit="10" stroke-linecap="round" stroke-linejoin="round"/>
<path fill-rule="evenodd" clip-rule="evenodd" d="M24.544 94.8869C24.6205 94.6733 24.5093 94.4382 24.2957 94.3618C24.0821 94.2853 23.847 94.3965 23.7706 94.6101L23.0723 96.5612C22.9958 96.7748 23.107 97.0099 23.3206 97.0864C23.5342 97.1628 23.7693 97.0516 23.8457 96.838L24.544 94.8869ZM28.7873 96.954C28.9689 96.8181 29.0059 96.5606 28.87 96.379C28.734 96.1974 28.4766 96.1604 28.295 96.2963L25.9536 98.0489C25.772 98.1849 25.735 98.4423 25.8709 98.6239C26.0068 98.8055 26.2643 98.8426 26.4459 98.7066L28.7873 96.954ZM26.1079 101.475C26.1245 101.249 26.3214 101.079 26.5476 101.095L28.7863 101.26C29.0125 101.276 29.1825 101.473 29.1659 101.699C29.1493 101.926 28.9524 102.096 28.7262 102.079L26.4875 101.915C26.2612 101.898 26.0913 101.701 26.1079 101.475ZM21.7192 105.23C21.4923 105.23 21.3084 105.414 21.3084 105.641C21.3084 105.868 21.4923 106.052 21.7192 106.052H23.5197C23.7466 106.052 23.9305 105.868 23.9305 105.641C23.9305 105.414 23.7466 105.23 23.5197 105.23H21.7192ZM21.3084 103.874C21.3084 103.647 21.4923 103.463 21.7192 103.463H21.8276C20.9244 102.705 19.6878 101.042 20.6983 99.7117C21.6841 98.4178 23.5531 98.4178 24.5389 99.7117C25.5484 101.041 24.3201 102.707 23.4148 103.463H23.5197C23.7466 103.463 23.9305 103.647 23.9305 103.874C23.9305 104.101 23.7466 104.285 23.5197 104.285H21.7192C21.4923 104.285 21.3084 104.101 21.3084 103.874ZM23.0353 103.463V101.713C23.2246 101.576 23.3478 101.353 23.3478 101.102C23.3478 100.686 23.0106 100.349 22.5947 100.349C22.1788 100.349 21.8416 100.686 21.8416 101.102C21.8416 101.379 21.9911 101.621 22.2138 101.752V103.463H23.0353ZM22.58 101.035C22.5858 101.034 22.5917 101.034 22.5977 101.033L22.5947 101.033C22.5897 101.033 22.5847 101.034 22.58 101.035Z" fill="white" fill-opacity="0.6"/>
<rect x="36.9678" y="100.206" width="45.8946" height="2.78149" rx="1.39075" fill="white" fill-opacity="0.3"/>
</g>
<path d="M7.55973 128.454V134.243H8.59467V132.329H9.85023C11.0216 132.329 11.8399 131.547 11.8399 130.404C11.8399 129.241 11.0496 128.454 9.89436 128.454H7.55973ZM8.59467 129.301H9.62158C10.3677 129.301 10.7889 129.686 10.7889 130.404C10.7889 131.102 10.3557 131.495 9.61757 131.495H8.59467V129.301ZM12.8788 134.243H13.8737V131.696C13.8737 131.078 14.3229 130.677 14.9688 130.677C15.1372 130.677 15.402 130.705 15.4782 130.733V129.826C15.3859 129.802 15.2094 129.786 15.065 129.786C14.4994 129.786 14.0261 130.107 13.9057 130.54H13.8376V129.858H12.8788V134.243ZM18.0776 134.331C19.3893 134.331 20.1876 133.473 20.1876 132.049C20.1876 130.633 19.3853 129.774 18.0776 129.774C16.7739 129.774 15.9676 130.637 15.9676 132.049C15.9676 133.473 16.7619 134.331 18.0776 134.331ZM18.0776 133.517C17.3836 133.517 16.9865 132.979 16.9865 132.053C16.9865 131.126 17.3836 130.589 18.0776 130.589C18.7675 130.589 19.1647 131.126 19.1647 132.053C19.1647 132.979 18.7716 133.517 18.0776 133.517ZM21.7039 129.124C22.0288 129.124 22.2976 128.864 22.2976 128.535C22.2976 128.21 22.0288 127.945 21.7039 127.945C21.3749 127.945 21.1062 128.21 21.1062 128.535C21.1062 128.864 21.3749 129.124 21.7039 129.124ZM22.1933 129.858H21.2025V134.399C21.2025 134.804 21.046 134.969 20.6048 134.969C20.5847 134.969 20.4884 134.969 20.4764 134.965V135.731C20.5045 135.735 20.6649 135.739 20.7171 135.739C21.6999 135.739 22.1933 135.31 22.1933 134.411V129.858ZM26.2889 133.043C26.1445 133.372 25.8035 133.557 25.3101 133.557C24.6563 133.557 24.2351 133.092 24.211 132.35V132.297H27.2757V131.98C27.2757 130.605 26.5256 129.774 25.274 129.774C24.0024 129.774 23.2122 130.661 23.2122 132.069C23.2122 133.473 23.9904 134.331 25.282 134.331C26.317 134.331 27.0511 133.834 27.2316 133.043H26.2889ZM25.27 130.548C25.8677 130.548 26.2608 130.97 26.2809 131.635H24.215C24.2591 130.978 24.6763 130.548 25.27 130.548ZM32.0653 131.323C31.961 130.416 31.2791 129.774 30.1519 129.774C28.8321 129.774 28.0579 130.621 28.0579 132.041C28.0579 133.477 28.8361 134.331 30.1559 134.331C31.267 134.331 31.957 133.713 32.0653 132.807H31.1186C31.0143 133.268 30.6693 133.513 30.1519 133.513C29.4739 133.513 29.0648 132.971 29.0648 132.041C29.0648 131.126 29.4699 130.589 30.1519 130.589C30.6974 130.589 31.0263 130.897 31.1186 131.323H32.0653ZM33.3891 128.783V129.887H32.6951V130.661H33.3891V133.08C33.3891 133.926 33.7902 134.263 34.7971 134.263C34.9896 134.263 35.1741 134.247 35.3185 134.219V133.457C35.1982 133.469 35.122 133.477 34.9816 133.477C34.5644 133.477 34.3799 133.28 34.3799 132.843V130.661H35.3185V129.887H34.3799V128.783H33.3891ZM36.1569 131.11C36.1569 131.768 36.554 132.153 37.3964 132.346L38.1746 132.526C38.5918 132.622 38.7804 132.783 38.7804 133.031C38.7804 133.364 38.4314 133.593 37.9299 133.593C37.4325 133.593 37.1237 133.392 37.0274 133.068H36.0446C36.1208 133.858 36.8108 134.331 37.9059 134.331C39.001 134.331 39.7752 133.774 39.7752 132.935C39.7752 132.289 39.3861 131.932 38.5477 131.74L37.7735 131.567C37.3322 131.463 37.1237 131.307 37.1237 131.058C37.1237 130.733 37.4646 130.512 37.9179 130.512C38.3832 130.512 38.6761 130.713 38.7483 131.022H39.6829C39.6107 130.232 38.9569 129.774 37.9139 129.774C36.879 129.774 36.1569 130.324 36.1569 131.11Z" fill="white" fill-opacity="0.6"/>
<g clip-path="url(#clip3)">
<g clip-path="url(#clip4)">
<path d="M29.7797 150.889C29.7797 155.237 26.2549 158.762 21.9067 158.762C17.5586 158.762 14.0337 155.237 14.0337 150.889C14.0337 146.541 17.5586 143.016 21.9067 143.016C26.2549 143.016 29.7797 146.541 29.7797 150.889Z" stroke="white" stroke-opacity="0.2" stroke-width="0.68461"/>
<g filter="url(#filter0_d)">
<path d="M23.8494 153.958C22.8275 154.557 21.4224 154.618 20.0088 154.004C18.8642 153.51 17.9145 152.645 17.3057 151.657C17.5979 151.904 17.9388 152.102 18.3041 152.274C19.764 152.969 21.2235 152.921 22.2507 152.276C22.2501 152.275 22.2496 152.275 22.2492 152.274C20.788 151.138 19.5461 149.656 18.6207 148.445C18.4258 148.247 18.2797 148 18.1336 147.778C19.2538 148.816 21.0316 150.125 21.6646 150.496C20.3254 149.063 19.1321 147.284 19.1807 147.333C21.2994 149.507 23.272 150.743 23.272 150.743C23.3373 150.78 23.3876 150.811 23.4281 150.839C23.4708 150.729 23.5083 150.614 23.5398 150.496C23.8807 149.236 23.4912 147.803 22.6388 146.617C24.6112 147.827 25.7803 150.1 25.2931 152.003C25.2804 152.054 25.2666 152.105 25.2517 152.154C25.2574 152.161 25.2631 152.168 25.2688 152.176C26.2427 153.411 25.9749 154.72 25.8532 154.473C25.3248 153.424 24.3467 153.745 23.8494 153.958L23.8494 153.958Z" fill="white"/>
</g>
</g>
<rect x="36.9678" y="149.795" width="31.7337" height="2.18853" rx="1.09427" fill="white" fill-opacity="0.3"/>
</g>
<g clip-path="url(#clip5)">
<path d="M29.7797 174.166C29.7797 178.514 26.2549 182.039 21.9067 182.039C17.5586 182.039 14.0337 178.514 14.0337 174.166C14.0337 169.817 17.5586 166.293 21.9067 166.293C26.2549 166.293 29.7797 169.817 29.7797 174.166Z" stroke="white" stroke-opacity="0.2" stroke-width="0.68461"/>
<path d="M24.4443 173.767L21.5107 176.7L22.7122 177.902L25.6457 174.968L24.4443 173.767Z" fill="white"/>
<path fill-rule="evenodd" clip-rule="evenodd" d="M18.3115 171.148L20.6478 173.484L20.6477 173.498C20.6477 173.828 20.9152 174.095 21.2452 174.095C21.5751 174.095 21.8426 173.828 21.8426 173.498C21.8426 173.168 21.5751 172.9 21.2452 172.9L21.2265 172.901L18.8962 170.57L23.1095 171.368H23.1132L23.9123 174.303L22.0452 176.17L19.1101 175.367L18.3115 171.148Z" fill="white"/>
<rect x="36.9678" y="172.775" width="37.5501" height="2.78149" rx="1.39075" fill="white" fill-opacity="0.3"/>
</g>
<g clip-path="url(#clip6)">
<g clip-path="url(#clip7)">
<path d="M29.7797 201.55C29.7797 205.898 26.2549 209.423 21.9067 209.423C17.5586 209.423 14.0337 205.898 14.0337 201.55C14.0337 197.202 17.5586 193.677 21.9067 193.677C26.2549 193.677 29.7797 197.202 29.7797 201.55Z" stroke="white" stroke-opacity="0.2" stroke-width="0.68461"/>
<g filter="url(#filter1_d)">
<path d="M23.8494 204.619C22.8275 205.218 21.4224 205.28 20.0088 204.665C18.8642 204.171 17.9145 203.306 17.3057 202.318C17.5979 202.565 17.9388 202.763 18.3041 202.935C19.764 203.63 21.2235 203.582 22.2507 202.937C22.2501 202.937 22.2496 202.936 22.2492 202.935C20.788 201.799 19.5461 200.317 18.6207 199.106C18.4258 198.909 18.2797 198.662 18.1336 198.439C19.2538 199.477 21.0316 200.786 21.6646 201.157C20.3254 199.724 19.1321 197.945 19.1807 197.994C21.2994 200.169 23.272 201.404 23.272 201.404C23.3373 201.441 23.3876 201.472 23.4281 201.5C23.4708 201.39 23.5083 201.275 23.5398 201.157C23.8807 199.897 23.4912 198.464 22.6388 197.278C24.6112 198.489 25.7803 200.761 25.2931 202.664C25.2804 202.715 25.2666 202.766 25.2517 202.816C25.2574 202.822 25.2631 202.83 25.2688 202.837C26.2427 204.072 25.9749 205.382 25.8532 205.134C25.3248 204.086 24.3467 204.406 23.8494 204.619L23.8494 204.619Z" fill="white"/>
</g>
</g>
<rect x="36.9678" y="200.456" width="31.7337" height="2.18853" rx="1.09427" fill="white" fill-opacity="0.3"/>
</g>
<g clip-path="url(#clip8)">
<path d="M29.7797 224.827C29.7797 229.175 26.2549 232.7 21.9067 232.7C17.5586 232.7 14.0337 229.175 14.0337 224.827C14.0337 220.479 17.5586 216.954 21.9067 216.954C26.2549 216.954 29.7797 220.479 29.7797 224.827Z" stroke="white" stroke-opacity="0.2" stroke-width="0.68461"/>
<path d="M24.4443 224.428L21.5107 227.361L22.7122 228.563L25.6457 225.629L24.4443 224.428Z" fill="white"/>
<path fill-rule="evenodd" clip-rule="evenodd" d="M18.3115 221.809L20.6478 224.145L20.6477 224.159C20.6477 224.489 20.9152 224.757 21.2452 224.757C21.5751 224.757 21.8426 224.489 21.8426 224.159C21.8426 223.829 21.5751 223.562 21.2452 223.562L21.2265 223.562L18.8962 221.232L23.1095 222.029H23.1132L23.9123 224.964L22.0452 226.831L19.1101 226.028L18.3115 221.809Z" fill="white"/>
<rect x="36.9678" y="223.436" width="37.5501" height="2.78149" rx="1.39075" fill="white" fill-opacity="0.3"/>
</g>
<g clip-path="url(#clip9)">
<g clip-path="url(#clip10)">
<path d="M29.7797 252.211C29.7797 256.559 26.2549 260.084 21.9067 260.084C17.5586 260.084 14.0337 256.559 14.0337 252.211C14.0337 247.863 17.5586 244.338 21.9067 244.338C26.2549 244.338 29.7797 247.863 29.7797 252.211Z" stroke="white" stroke-opacity="0.2" stroke-width="0.68461"/>
<g filter="url(#filter2_d)">
<path d="M23.8494 255.28C22.8275 255.879 21.4224 255.941 20.0088 255.326C18.8642 254.832 17.9145 253.967 17.3057 252.979C17.5979 253.226 17.9388 253.424 18.3041 253.597C19.764 254.291 21.2235 254.243 22.2507 253.598C22.2501 253.598 22.2496 253.597 22.2492 253.597C20.788 252.46 19.5461 250.978 18.6207 249.767C18.4258 249.57 18.2797 249.323 18.1336 249.1C19.2538 250.138 21.0316 251.447 21.6646 251.818C20.3254 250.385 19.1321 248.606 19.1807 248.656C21.2994 250.83 23.272 252.065 23.272 252.065C23.3373 252.102 23.3876 252.133 23.4281 252.161C23.4708 252.051 23.5083 251.937 23.5398 251.818C23.8807 250.558 23.4912 249.125 22.6388 247.939C24.6112 249.15 25.7803 251.423 25.2931 253.325C25.2804 253.376 25.2666 253.427 25.2517 253.477C25.2574 253.484 25.2631 253.491 25.2688 253.498C26.2427 254.733 25.9749 256.043 25.8532 255.796C25.3248 254.747 24.3467 255.067 23.8494 255.28L23.8494 255.28Z" fill="white"/>
</g>
</g>
<rect x="36.9678" y="251.117" width="31.7337" height="2.18853" rx="1.09427" fill="white" fill-opacity="0.3"/>
</g>
<g clip-path="url(#clip11)">
<path d="M29.7797 275.488C29.7797 279.836 26.2549 283.361 21.9067 283.361C17.5586 283.361 14.0337 279.836 14.0337 275.488C14.0337 271.14 17.5586 267.615 21.9067 267.615C26.2549 267.615 29.7797 271.14 29.7797 275.488Z" stroke="white" stroke-opacity="0.2" stroke-width="0.68461"/>
<g clip-path="url(#clip12)">
<path d="M24.4443 275.089L21.5107 278.022L22.7122 279.224L25.6457 276.29L24.4443 275.089Z" fill="white"/>
<path fill-rule="evenodd" clip-rule="evenodd" d="M18.3115 272.47L20.6478 274.806L20.6477 274.82C20.6477 275.15 20.9152 275.418 21.2452 275.418C21.5751 275.418 21.8426 275.15 21.8426 274.82C21.8426 274.49 21.5751 274.223 21.2452 274.223L21.2265 274.223L18.8962 271.893L23.1095 272.69H23.1132L23.9123 275.625L22.0452 277.492L19.1101 276.689L18.3115 272.47Z" fill="white"/>
</g>
<rect x="36.9678" y="274.097" width="37.5501" height="2.78149" rx="1.39075" fill="white" fill-opacity="0.3"/>
</g>
<g clip-path="url(#clip13)">
<g clip-path="url(#clip14)">
<path d="M29.7797 302.872C29.7797 307.22 26.2549 310.745 21.9067 310.745C17.5586 310.745 14.0337 307.22 14.0337 302.872C14.0337 298.524 17.5586 294.999 21.9067 294.999C26.2549 294.999 29.7797 298.524 29.7797 302.872Z" stroke="white" stroke-opacity="0.2" stroke-width="0.68461"/>
<g filter="url(#filter3_d)">
<path d="M23.8494 305.941C22.8275 306.54 21.4224 306.602 20.0088 305.987C18.8642 305.493 17.9145 304.628 17.3057 303.64C17.5979 303.887 17.9388 304.085 18.3041 304.258C19.764 304.952 21.2235 304.904 22.2507 304.26C22.2501 304.259 22.2496 304.258 22.2492 304.258C20.788 303.121 19.5461 301.639 18.6207 300.429C18.4258 300.231 18.2797 299.984 18.1336 299.761C19.2538 300.799 21.0316 302.108 21.6646 302.479C20.3254 301.046 19.1321 299.267 19.1807 299.317C21.2994 301.491 23.272 302.726 23.272 302.726C23.3373 302.763 23.3876 302.795 23.4281 302.822C23.4708 302.712 23.5083 302.598 23.5398 302.479C23.8807 301.219 23.4912 299.786 22.6388 298.6C24.6112 299.811 25.7803 302.084 25.2931 303.986C25.2804 304.037 25.2666 304.088 25.2517 304.138C25.2574 304.145 25.2631 304.152 25.2688 304.159C26.2427 305.394 25.9749 306.704 25.8532 306.457C25.3248 305.408 24.3467 305.729 23.8494 305.941L23.8494 305.941Z" fill="white"/>
</g>
</g>
<rect x="36.9678" y="301.778" width="31.7337" height="2.18853" rx="1.09427" fill="white" fill-opacity="0.3"/>
</g>
<g clip-path="url(#clip15)">
<path d="M29.7797 326.149C29.7797 330.497 26.2549 334.022 21.9067 334.022C17.5586 334.022 14.0337 330.497 14.0337 326.149C14.0337 321.801 17.5586 318.276 21.9067 318.276C26.2549 318.276 29.7797 321.801 29.7797 326.149Z" stroke="white" stroke-opacity="0.2" stroke-width="0.68461"/>
<path d="M24.4443 325.75L21.5107 328.684L22.7122 329.885L25.6457 326.951L24.4443 325.75Z" fill="white"/>
<path fill-rule="evenodd" clip-rule="evenodd" d="M18.3115 323.131L20.6478 325.467L20.6477 325.481C20.6477 325.811 20.9152 326.079 21.2452 326.079C21.5751 326.079 21.8426 325.811 21.8426 325.481C21.8426 325.151 21.5751 324.884 21.2452 324.884L21.2265 324.884L18.8962 322.554L23.1095 323.351H23.1132L23.9123 326.286L22.0452 328.153L19.1101 327.351L18.3115 323.131Z" fill="white"/>
<rect x="36.9678" y="324.758" width="37.5501" height="2.78149" rx="1.39075" fill="white" fill-opacity="0.3"/>
</g>
<path d="M7.55973 357.114V362.903H8.59467V360.989H9.85023C11.0216 360.989 11.8399 360.207 11.8399 359.064C11.8399 357.9 11.0496 357.114 9.89436 357.114H7.55973ZM8.59467 357.961H9.62158C10.3677 357.961 10.7889 358.346 10.7889 359.064C10.7889 359.762 10.3557 360.155 9.61757 360.155H8.59467V357.961ZM16.6977 358.518H15.7028V361.073C15.7028 361.735 15.3498 362.136 14.704 362.136C14.1103 362.136 13.8335 361.808 13.8335 361.126V358.518H12.8387V361.366C12.8387 362.393 13.4003 362.991 14.359 362.991C15.0289 362.991 15.4582 362.706 15.6708 362.205H15.7389V362.903H16.6977V358.518ZM20.3561 362.975C21.4632 362.975 22.1572 362.104 22.1572 360.712C22.1572 359.312 21.4672 358.446 20.3561 358.446C19.7543 358.446 19.2489 358.739 19.0203 359.216H18.9521V356.821H17.9572V362.903H18.916V362.209H18.9842C19.2329 362.69 19.7423 362.975 20.3561 362.975ZM20.0432 359.276C20.7211 359.276 21.1343 359.818 21.1343 360.712C21.1343 361.607 20.7251 362.149 20.0432 362.149C19.3612 362.149 18.936 361.599 18.936 360.712C18.936 359.826 19.3652 359.276 20.0432 359.276ZM23.1961 362.903H24.1909V356.821H23.1961V362.903ZM25.956 357.784C26.2849 357.784 26.5537 357.523 26.5537 357.194C26.5537 356.87 26.2849 356.605 25.956 356.605C25.631 356.605 25.3623 356.87 25.3623 357.194C25.3623 357.523 25.631 357.784 25.956 357.784ZM25.4626 362.903H26.4534V358.518H25.4626V362.903ZM31.4796 359.982C31.3753 359.076 30.6934 358.434 29.5662 358.434C28.2465 358.434 27.4723 359.28 27.4723 360.7C27.4723 362.136 28.2505 362.991 29.5702 362.991C30.6814 362.991 31.3713 362.373 31.4796 361.467H30.5329C30.4287 361.928 30.0837 362.173 29.5662 362.173C28.8883 362.173 28.4791 361.631 28.4791 360.7C28.4791 359.786 28.8843 359.248 29.5662 359.248C30.1118 359.248 30.4407 359.557 30.5329 359.982H31.4796ZM33.6378 362.975C34.2114 362.975 34.6928 362.726 34.9375 362.301H35.0056V362.903H35.9644V359.906C35.9644 358.98 35.3306 358.434 34.2034 358.434C33.1604 358.434 32.4343 358.923 32.3541 359.69H33.2928C33.385 359.389 33.6979 359.224 34.1552 359.224C34.6928 359.224 34.9816 359.469 34.9816 359.906V360.283L33.8504 360.351C32.7833 360.412 32.1856 360.873 32.1856 361.659C32.1856 362.461 32.7914 362.975 33.6378 362.975ZM33.9306 362.209C33.4893 362.209 33.1724 361.988 33.1724 361.611C33.1724 361.246 33.4332 361.041 33.9908 361.005L34.9816 360.937V361.294C34.9816 361.816 34.5323 362.209 33.9306 362.209ZM37.4807 357.443V358.546H36.7867V359.32H37.4807V361.739C37.4807 362.586 37.8818 362.923 38.8887 362.923C39.0812 362.923 39.2657 362.907 39.4101 362.879V362.116C39.2898 362.128 39.2136 362.136 39.0732 362.136C38.656 362.136 38.4715 361.94 38.4715 361.503V359.32H39.4101V358.546H38.4715V357.443H37.4807ZM40.9104 357.784C41.2393 357.784 41.5081 357.523 41.5081 357.194C41.5081 356.87 41.2393 356.605 40.9104 356.605C40.5855 356.605 40.3167 356.87 40.3167 357.194C40.3167 357.523 40.5855 357.784 40.9104 357.784ZM40.417 362.903H41.4078V358.518H40.417V362.903ZM44.5367 362.991C45.8484 362.991 46.6467 362.132 46.6467 360.708C46.6467 359.292 45.8444 358.434 44.5367 358.434C43.233 358.434 42.4267 359.296 42.4267 360.708C42.4267 362.132 43.221 362.991 44.5367 362.991ZM44.5367 362.177C43.8427 362.177 43.4456 361.639 43.4456 360.712C43.4456 359.786 43.8427 359.248 44.5367 359.248C45.2267 359.248 45.6238 359.786 45.6238 360.712C45.6238 361.639 45.2307 362.177 44.5367 362.177ZM47.6495 362.903H48.6444V360.347C48.6444 359.69 49.0174 359.276 49.6111 359.276C50.2168 359.276 50.4976 359.617 50.4976 360.299V362.903H51.4924V360.067C51.4924 359.024 50.9589 358.434 49.9802 358.434C49.3263 358.434 48.885 358.731 48.6765 359.22H48.6083V358.518H47.6495V362.903ZM52.5715 359.77C52.5715 360.428 52.9686 360.813 53.811 361.005L54.5892 361.186C55.0064 361.282 55.195 361.443 55.195 361.691C55.195 362.024 54.846 362.253 54.3445 362.253C53.8471 362.253 53.5383 362.052 53.442 361.727H52.4592C52.5354 362.518 53.2254 362.991 54.3205 362.991C55.4156 362.991 56.1898 362.433 56.1898 361.595C56.1898 360.949 55.8007 360.592 54.9623 360.4L54.1881 360.227C53.7468 360.123 53.5383 359.966 53.5383 359.718C53.5383 359.393 53.8792 359.172 54.3325 359.172C54.7978 359.172 55.0907 359.373 55.1629 359.682H56.0975C56.0253 358.891 55.3715 358.434 54.3285 358.434C53.2936 358.434 52.5715 358.984 52.5715 359.77Z" fill="white" fill-opacity="0.6"/>
<g clip-path="url(#clip16)">
<path d="M29.7797 379.549C29.7797 383.897 26.2549 387.422 21.9067 387.422C17.5586 387.422 14.0337 383.897 14.0337 379.549C14.0337 375.2 17.5586 371.676 21.9067 371.676C26.2549 371.676 29.7797 375.2 29.7797 379.549Z" stroke="white" stroke-opacity="0.2" stroke-width="0.68461"/>
<g clip-path="url(#clip17)">
<path d="M24.4443 379.149L21.5107 382.083L22.7122 383.284L25.6457 380.351L24.4443 379.149Z" fill="white"/>
<path fill-rule="evenodd" clip-rule="evenodd" d="M18.3125 376.53L20.6488 378.867L20.6486 378.881C20.6486 379.211 20.9161 379.478 21.2461 379.478C21.5761 379.478 21.8436 379.211 21.8436 378.881C21.8436 378.551 21.5761 378.283 21.2461 378.283L21.2274 378.283L18.897 375.953L23.1104 376.75H23.1141L23.9133 379.686L22.0461 381.553L19.111 380.75L18.3125 376.53Z" fill="white"/>
</g>
<rect x="36.9678" y="378.454" width="31.7337" height="2.18853" rx="1.09427" fill="white" fill-opacity="0.3"/>
</g>
</g>
<g clip-path="url(#clip18)">
<rect x="13.6943" y="13.6924" width="8.21532" height="8.21532" rx="4.10766" fill="#EB6A5D"/>
<rect x="28.0713" y="13.6924" width="8.21532" height="8.21532" rx="4.10766" fill="#F3BE4F"/>
<rect x="42.4482" y="13.6924" width="8.21532" height="8.21532" rx="4.10766" fill="#64C354"/>
</g>
<path d="M136.921 1.52588e-05H694.193C697.974 1.52588e-05 701.04 3.06512 701.04 6.84612V421.035C701.04 424.816 697.974 427.881 694.193 427.881H136.921V1.52588e-05Z" fill="#1A164A" fill-opacity="0.63"/>
<mask id="mask0" mask-type="alpha" maskUnits="userSpaceOnUse" x="136" y="0" width="566" height="428">
<path d="M136.921 1.52588e-05H694.193C697.974 1.52588e-05 701.04 3.06512 701.04 6.84612V421.035C701.04 424.816 697.974 427.881 694.193 427.881H136.921V1.52588e-05Z" fill="#1A164A"/>
</mask>
<g mask="url(#mask0)">
<path fill-rule="evenodd" clip-rule="evenodd" d="M714.395 524.465C751.859 427.679 813.495 261.072 628.406 154.057C443.317 47.0421 362.424 106.459 284.993 131.989C207.561 157.519 13.4858 167.581 48.4325 286.669C83.3791 405.758 99.7207 611.972 239.826 618.375C379.931 624.779 358.479 568.111 447.988 562.342C537.498 556.574 676.93 621.252 714.395 524.465Z" fill="url(#paint0_linear)"/>
<path fill-rule="evenodd" clip-rule="evenodd" d="M714.395 524.465C751.859 427.679 813.495 261.072 628.406 154.057C443.317 47.0421 362.424 106.459 284.993 131.989C207.561 157.519 13.4858 167.581 48.4325 286.669C83.3791 405.758 99.7207 611.972 239.826 618.375C379.931 624.779 358.479 568.111 447.988 562.342C537.498 556.574 676.93 621.252 714.395 524.465Z" fill="#4382FF"/>
<g filter="url(#filter4_d)">
<path fill-rule="evenodd" clip-rule="evenodd" d="M99.9897 -62.7067C68.5662 33.9235 17.2197 200.069 200.291 291.676C383.362 383.284 458.323 320.069 531.568 290.037C604.812 260.005 790.958 237.167 751.69 123.722C712.422 10.2773 686.902 -189.137 551.872 -185.939C416.842 -182.742 440.165 -129.084 354.366 -117.455C268.567 -105.825 131.413 -159.337 99.9897 -62.7067Z" fill="url(#paint1_linear)"/>
</g>
</g>
<path fill-rule="evenodd" clip-rule="evenodd" d="M561.585 27.1691C566.878 27.1691 571.169 22.8779 571.169 17.5845C571.169 12.2911 566.878 8 561.585 8C556.291 8 552 12.2911 552 17.5845C552 22.8779 556.291 27.1691 561.585 27.1691Z" fill="white" fill-opacity="0.1" stroke="white" stroke-opacity="0.3" stroke-width="0.821532"/>
<path d="M568.431 17.5849C568.431 18.2832 568.329 18.9609 568.13 19.5976C567.589 18.4132 566.398 17.5849 565.008 17.5849C563.119 17.5849 561.585 19.1184 561.585 21.0079C561.585 22.3977 562.414 23.5889 563.598 24.1297C562.961 24.3283 562.284 24.431 561.585 24.431C557.806 24.431 554.739 21.3639 554.739 17.5849C554.739 13.8058 557.806 10.7388 561.585 10.7388C565.364 10.7388 568.431 13.8058 568.431 17.5849Z" fill="#00CFFD" stroke="black" stroke-width="0.821532" stroke-miterlimit="10" stroke-linecap="round" stroke-linejoin="round"/>
<path d="M563.591 24.1219C562.407 23.581 561.586 22.3898 561.586 21.0069C561.586 20.2538 561.825 19.5624 562.243 18.9942C562.024 18.9668 561.805 18.9531 561.586 18.9531C559.34 18.9531 557.416 20.3018 556.567 22.2324C557.82 23.581 559.6 24.43 561.586 24.43C562.284 24.43 562.955 24.3273 563.591 24.1219Z" fill="white" stroke="black" stroke-width="0.821532" stroke-miterlimit="10" stroke-linecap="round"/>
<path d="M562.352 18.8441H562.359C562.735 18.3785 563.242 18.0088 563.817 17.7966C564.139 17.3448 564.324 16.8039 564.324 16.2152C564.324 14.7022 563.098 13.4767 561.585 13.4767C560.072 13.4767 558.847 14.7022 558.847 16.2152C558.847 17.7281 560.072 18.9536 561.585 18.9536C561.852 18.9536 562.112 18.9125 562.359 18.8441" fill="white"/>
<path d="M562.352 18.8441H562.359C562.735 18.3785 563.242 18.0088 563.817 17.7966C564.139 17.3448 564.324 16.8039 564.324 16.2152C564.324 14.7022 563.098 13.4767 561.585 13.4767C560.072 13.4767 558.847 14.7022 558.847 16.2152C558.847 17.7281 560.072 18.9536 561.585 18.9536C561.852 18.9536 562.112 18.9125 562.359 18.8441" stroke="black" stroke-width="0.821532" stroke-miterlimit="10" stroke-linecap="round" stroke-linejoin="round"/>
<path d="M565.008 24.4316C566.899 24.4316 568.431 22.899 568.431 21.0085C568.431 19.118 566.899 17.5855 565.008 17.5855C563.118 17.5855 561.585 19.118 561.585 21.0085C561.585 22.899 563.118 24.4316 565.008 24.4316Z" fill="black" stroke="black" stroke-width="0.821532" stroke-miterlimit="10" stroke-linecap="round" stroke-linejoin="round"/>
<path d="M563.361 20.5623L564.594 21.7946L566.647 19.7408" stroke="#00CFFD" stroke-width="0.821532" stroke-miterlimit="10"/>
<g clip-path="url(#clip19)">
<path d="M578.582 19.4926C578.662 20.7762 579.741 21.5985 581.345 21.5985C583.06 21.5985 584.133 20.7361 584.133 19.3672C584.133 18.2841 583.521 17.6874 582.037 17.3314L581.24 17.1359C580.297 16.9052 579.916 16.6044 579.916 16.0779C579.916 15.401 580.508 14.9647 581.395 14.9647C582.238 14.9647 582.819 15.3859 582.925 16.0729H584.018C583.952 14.8644 582.879 14.012 581.41 14.012C579.831 14.012 578.778 14.8644 578.778 16.138C578.778 17.191 579.374 17.8128 580.683 18.1287L581.616 18.3543C582.574 18.585 582.995 18.936 582.995 19.5026C582.995 20.1645 582.333 20.6408 581.43 20.6408C580.463 20.6408 579.791 20.1946 579.695 19.4926H578.582ZM586.966 21.5133C587.683 21.5133 588.28 21.2024 588.606 20.6509H588.691V21.423H589.729V17.6975C589.729 16.5542 588.957 15.8723 587.588 15.8723C586.349 15.8723 585.467 16.469 585.356 17.3866H586.399C586.52 16.9905 586.936 16.7648 587.538 16.7648C588.275 16.7648 588.656 17.1008 588.656 17.6975V18.1738L587.177 18.2641C585.878 18.3443 585.146 18.9109 585.146 19.8887C585.146 20.8815 585.913 21.5133 586.966 21.5133ZM587.242 20.6458C586.655 20.6458 586.229 20.35 586.229 19.8436C586.229 19.3472 586.57 19.0814 587.322 19.0313L588.656 18.941V19.4123C588.656 20.1143 588.054 20.6458 587.242 20.6458ZM592.477 18.2741H592.391V13.8415H591.313V21.423H592.391V19.4424L592.868 18.9861L594.743 21.423H596.067L593.67 18.3092L595.916 15.9776H594.643L592.477 18.2741ZM596.724 17.5019C596.724 18.3092 597.205 18.7705 598.243 19.0112L599.196 19.2368C599.742 19.3672 599.998 19.5878 599.998 19.9288C599.998 20.3751 599.522 20.686 598.85 20.686C598.198 20.686 597.797 20.4202 597.661 19.994H596.583C596.679 20.9417 597.526 21.5283 598.825 21.5283C600.128 21.5283 601.086 20.8414 601.086 19.8285C601.086 19.0363 600.6 18.59 599.562 18.3493L598.654 18.1387C598.063 17.9983 597.787 17.7877 597.787 17.4518C597.787 17.0105 598.243 16.7147 598.845 16.7147C599.456 16.7147 599.848 16.9804 599.948 17.3866H600.981C600.876 16.4439 600.073 15.8723 598.845 15.8723C597.611 15.8723 596.724 16.5542 596.724 17.5019ZM602.435 21.423H603.513V18.234C603.513 17.3816 604.004 16.815 604.887 16.815C605.649 16.815 606.055 17.2612 606.055 18.1588V21.423H607.133V17.9031C607.133 16.6144 606.416 15.8773 605.253 15.8773C604.431 15.8773 603.854 16.2383 603.588 16.8451H603.503V13.8415H602.435V21.423ZM610.162 21.5133C610.879 21.5133 611.476 21.2024 611.802 20.6509H611.887V21.423H612.925V17.6975C612.925 16.5542 612.153 15.8723 610.784 15.8723C609.545 15.8723 608.663 16.469 608.552 17.3866H609.595C609.716 16.9905 610.132 16.7648 610.734 16.7648C611.471 16.7648 611.852 17.1008 611.852 17.6975V18.1738L610.372 18.2641C609.074 18.3443 608.342 18.9109 608.342 19.8887C608.342 20.8815 609.109 21.5133 610.162 21.5133ZM610.438 20.6458C609.851 20.6458 609.425 20.35 609.425 19.8436C609.425 19.3472 609.766 19.0814 610.518 19.0313L611.852 18.941V19.4123C611.852 20.1143 611.25 20.6458 610.438 20.6458ZM614.459 21.423H615.537V18.0786C615.537 17.3665 616.034 16.81 616.69 16.81C617.332 16.81 617.743 17.1961 617.743 17.8178V21.423H618.801V17.9783C618.801 17.3214 619.258 16.81 619.955 16.81C620.662 16.81 621.013 17.176 621.013 17.9281V21.423H622.091V17.6674C622.091 16.5342 621.449 15.8723 620.346 15.8723C619.589 15.8723 618.962 16.2584 618.686 16.8451H618.601C618.36 16.2584 617.844 15.8723 617.097 15.8723C616.37 15.8723 615.818 16.2333 615.577 16.8451H615.497V15.9776H614.459V21.423ZM627.662 21.423V19.0112L628.474 18.0886L630.901 21.423H632.305L629.266 17.3264L632.064 14.1875H630.735L627.742 17.6072H627.662V14.1875H626.538V21.423H627.662ZM633.413 21.423H634.491V18.234C634.491 17.3816 634.982 16.815 635.865 16.815C636.627 16.815 637.033 17.2612 637.033 18.1588V21.423H638.111V17.9031C638.111 16.6144 637.394 15.8773 636.231 15.8773C635.409 15.8773 634.832 16.2383 634.566 16.8451H634.481V13.8415H633.413V21.423ZM641.14 21.5133C641.857 21.5133 642.454 21.2024 642.779 20.6509H642.865V21.423H643.903V17.6975C643.903 16.5542 643.13 15.8723 641.762 15.8723C640.523 15.8723 639.641 16.469 639.53 17.3866H640.573C640.694 16.9905 641.11 16.7648 641.711 16.7648C642.449 16.7648 642.83 17.1008 642.83 17.6975V18.1738L641.35 18.2641C640.052 18.3443 639.32 18.9109 639.32 19.8887C639.32 20.8815 640.087 21.5133 641.14 21.5133ZM641.416 20.6458C640.829 20.6458 640.403 20.35 640.403 19.8436C640.403 19.3472 640.744 19.0814 641.496 19.0313L642.83 18.941V19.4123C642.83 20.1143 642.228 20.6458 641.416 20.6458ZM645.818 14.6037V15.9926H644.951V16.8551H645.818V19.989C645.818 21.037 646.294 21.4581 647.493 21.4581C647.703 21.4581 647.904 21.4331 648.08 21.403V20.5456C647.929 20.5606 647.834 20.5706 647.668 20.5706C647.132 20.5706 646.896 20.3149 646.896 19.7282V16.8551H648.08V15.9926H646.896V14.6037H645.818ZM651.594 21.5283C653.189 21.5283 654.167 20.4603 654.167 18.7003C654.167 16.9403 653.184 15.8723 651.594 15.8723C650 15.8723 649.017 16.9453 649.017 18.7003C649.017 20.4603 649.995 21.5283 651.594 21.5283ZM651.594 20.6107C650.657 20.6107 650.13 19.9138 650.13 18.7003C650.13 17.4869 650.657 16.7849 651.594 16.7849C652.527 16.7849 653.059 17.4869 653.059 18.7003C653.059 19.9088 652.527 20.6107 651.594 20.6107ZM657.461 21.5133C658.213 21.5133 658.85 21.1573 659.176 20.5606H659.261V21.423H660.294V13.8415H659.216V16.84H659.136C658.84 16.2433 658.208 15.8823 657.461 15.8823C656.082 15.8823 655.195 16.9804 655.195 18.6953C655.195 20.4202 656.072 21.5133 657.461 21.5133ZM657.767 16.8049C658.67 16.8049 659.236 17.537 659.236 18.7003C659.236 19.8737 658.675 20.5907 657.767 20.5907C656.854 20.5907 656.308 19.8837 656.308 18.7003C656.308 17.522 656.859 16.8049 657.767 16.8049Z" fill="white"/>
</g>
<path d="M681.157 20.3602C681.309 20.3559 681.448 20.2994 681.561 20.1777L684.864 16.7968C684.959 16.7012 685.012 16.5795 685.012 16.4361C685.012 16.1493 684.786 15.9189 684.499 15.9189C684.36 15.9189 684.225 15.9754 684.125 16.0754L681.161 19.1217L678.189 16.0754C678.089 15.9798 677.959 15.9189 677.815 15.9189C677.528 15.9189 677.302 16.1493 677.302 16.4361C677.302 16.5795 677.355 16.7012 677.45 16.7968L680.757 20.1777C680.875 20.2994 681.005 20.3602 681.157 20.3602Z" fill="white"/>
<rect x="136.921" y="34.2318" width="564.119" height="0.342305" fill="white" fill-opacity="0.2"/>
<rect y="372.427" width="136.922" height="0.68461" fill="white" fill-opacity="0.05"/>
<rect x="145.139" y="7.53079" width="25.3306" height="19.1691" rx="2.73844" fill="black" fill-opacity="0.2"/>
<path d="M154.084 21.5684H161.519C162.462 21.5684 162.953 21.0817 162.953 20.1517V14.8631C162.953 13.9331 162.462 13.4464 161.519 13.4464H154.084C153.145 13.4464 152.654 13.9287 152.654 14.8631V20.1517C152.654 21.0817 153.145 21.5684 154.084 21.5684ZM154.14 20.7036C153.74 20.7036 153.519 20.4951 153.519 20.0735V14.9413C153.519 14.5198 153.74 14.3112 154.14 14.3112H156.122V20.7036H154.14ZM161.463 14.3112C161.862 14.3112 162.084 14.5198 162.084 14.9413V20.0735C162.084 20.4951 161.862 20.7036 161.463 20.7036H156.943V14.3112H161.463ZM155.27 15.9017C155.427 15.9017 155.557 15.767 155.557 15.6192C155.557 15.4715 155.427 15.3411 155.27 15.3411H154.379C154.223 15.3411 154.092 15.4715 154.092 15.6192C154.092 15.767 154.223 15.9017 154.379 15.9017H155.27ZM155.27 17.0707C155.427 17.0707 155.557 16.9403 155.557 16.7882C155.557 16.6404 155.427 16.5101 155.27 16.5101H154.379C154.223 16.5101 154.092 16.6404 154.092 16.7882C154.092 16.9403 154.223 17.0707 154.379 17.0707H155.27ZM155.27 18.2353C155.427 18.2353 155.557 18.1093 155.557 17.9572C155.557 17.8094 155.427 17.6834 155.27 17.6834H154.379C154.223 17.6834 154.092 17.8094 154.092 17.9572C154.092 18.1093 154.223 18.2353 154.379 18.2353H155.27Z" fill="white"/>
<defs>
<filter id="filter0_d" x="-16.4669" y="112.844" width="76.2205" height="75.4318" filterUnits="userSpaceOnUse" color-interpolation-filters="sRGB">
<feFlood flood-opacity="0" result="BackgroundImageFix"/>
<feColorMatrix in="SourceAlpha" type="matrix" values="0 0 0 0 0 0 0 0 0 0 0 0 0 0 0 0 0 0 127 0"/>
<feOffset/>
<feGaussianBlur stdDeviation="16.8863"/>
<feColorMatrix type="matrix" values="0 0 0 0 0.250017 0 0 0 0 0.215353 0 0 0 0 0.847968 0 0 0 0.610768 0"/>
<feBlend mode="normal" in2="BackgroundImageFix" result="effect1_dropShadow"/>
<feBlend mode="normal" in="SourceGraphic" in2="effect1_dropShadow" result="shape"/>
</filter>
<filter id="filter1_d" x="-16.4669" y="163.505" width="76.2205" height="75.4318" filterUnits="userSpaceOnUse" color-interpolation-filters="sRGB">
<feFlood flood-opacity="0" result="BackgroundImageFix"/>
<feColorMatrix in="SourceAlpha" type="matrix" values="0 0 0 0 0 0 0 0 0 0 0 0 0 0 0 0 0 0 127 0"/>
<feOffset/>
<feGaussianBlur stdDeviation="16.8863"/>
<feColorMatrix type="matrix" values="0 0 0 0 0.250017 0 0 0 0 0.215353 0 0 0 0 0.847968 0 0 0 0.610768 0"/>
<feBlend mode="normal" in2="BackgroundImageFix" result="effect1_dropShadow"/>
<feBlend mode="normal" in="SourceGraphic" in2="effect1_dropShadow" result="shape"/>
</filter>
<filter id="filter2_d" x="-16.4669" y="214.167" width="76.2205" height="75.4318" filterUnits="userSpaceOnUse" color-interpolation-filters="sRGB">
<feFlood flood-opacity="0" result="BackgroundImageFix"/>
<feColorMatrix in="SourceAlpha" type="matrix" values="0 0 0 0 0 0 0 0 0 0 0 0 0 0 0 0 0 0 127 0"/>
<feOffset/>
<feGaussianBlur stdDeviation="16.8863"/>
<feColorMatrix type="matrix" values="0 0 0 0 0.250017 0 0 0 0 0.215353 0 0 0 0 0.847968 0 0 0 0.610768 0"/>
<feBlend mode="normal" in2="BackgroundImageFix" result="effect1_dropShadow"/>
<feBlend mode="normal" in="SourceGraphic" in2="effect1_dropShadow" result="shape"/>
</filter>
<filter id="filter3_d" x="-16.4669" y="264.828" width="76.2205" height="75.4318" filterUnits="userSpaceOnUse" color-interpolation-filters="sRGB">
<feFlood flood-opacity="0" result="BackgroundImageFix"/>
<feColorMatrix in="SourceAlpha" type="matrix" values="0 0 0 0 0 0 0 0 0 0 0 0 0 0 0 0 0 0 127 0"/>
<feOffset/>
<feGaussianBlur stdDeviation="16.8863"/>
<feColorMatrix type="matrix" values="0 0 0 0 0.250017 0 0 0 0 0.215353 0 0 0 0 0.847968 0 0 0 0.610768 0"/>
<feBlend mode="normal" in2="BackgroundImageFix" result="effect1_dropShadow"/>
<feBlend mode="normal" in="SourceGraphic" in2="effect1_dropShadow" result="shape"/>
</filter>
<filter id="filter4_d" x="7.99865" y="-246.583" width="809.677" height="646.556" filterUnits="userSpaceOnUse" color-interpolation-filters="sRGB">
<feFlood flood-opacity="0" result="BackgroundImageFix"/>
<feColorMatrix in="SourceAlpha" type="matrix" values="0 0 0 0 0 0 0 0 0 0 0 0 0 0 0 0 0 0 127 0"/>
<feOffset/>
<feGaussianBlur stdDeviation="30.3029"/>
<feColorMatrix type="matrix" values="0 0 0 0 0.129427 0 0 0 0 0.224219 0 0 0 0 0.4375 0 0 0 0.3 0"/>
<feBlend mode="normal" in2="BackgroundImageFix" result="effect1_dropShadow"/>
<feBlend mode="normal" in="SourceGraphic" in2="effect1_dropShadow" result="shape"/>
</filter>
<linearGradient id="paint0_linear" x1="-80" y1="435.23" x2="528.264" y2="821.208" gradientUnits="userSpaceOnUse">
<stop stop-color="#E1467C"/>
<stop offset="1" stop-color="#FF9CE3"/>
</linearGradient>
<linearGradient id="paint1_linear" x1="868.127" y1="-29.3689" x2="264.863" y2="-363.763" gradientUnits="userSpaceOnUse">
<stop stop-color="#73B3FF"/>
<stop offset="1" stop-color="#491EB8"/>
</linearGradient>
<clipPath id="clip0">
<rect width="136.922" height="360.105" fill="white" transform="translate(0 39.982)"/>
</clipPath>
<clipPath id="clip1">
<rect width="55.0105" height="16.4306" fill="white" transform="translate(13.6914 68.7356)"/>
</clipPath>
<clipPath id="clip2">
<rect width="69.1713" height="16.4306" fill="white" transform="translate(13.6914 93.3816)"/>
</clipPath>
<clipPath id="clip3">
<rect width="55.0105" height="16.4306" fill="white" transform="translate(13.6914 142.674)"/>
</clipPath>
<clipPath id="clip4">
<rect width="16.4306" height="16.4306" fill="white" transform="translate(13.6914 142.674)"/>
</clipPath>
<clipPath id="clip5">
<rect width="60.8269" height="16.4306" fill="white" transform="translate(13.6914 165.95)"/>
</clipPath>
<clipPath id="clip6">
<rect width="55.0105" height="16.4306" fill="white" transform="translate(13.6914 193.335)"/>
</clipPath>
<clipPath id="clip7">
<rect width="16.4306" height="16.4306" fill="white" transform="translate(13.6914 193.335)"/>
</clipPath>
<clipPath id="clip8">
<rect width="60.8269" height="16.4306" fill="white" transform="translate(13.6914 216.611)"/>
</clipPath>
<clipPath id="clip9">
<rect width="55.0105" height="16.4306" fill="white" transform="translate(13.6914 243.996)"/>
</clipPath>
<clipPath id="clip10">
<rect width="16.4306" height="16.4306" fill="white" transform="translate(13.6914 243.996)"/>
</clipPath>
<clipPath id="clip11">
<rect width="60.8269" height="16.4306" fill="white" transform="translate(13.6914 267.273)"/>
</clipPath>
<clipPath id="clip12">
<rect width="8.96217" height="8.96217" fill="white" transform="translate(17.4297 271.006)"/>
</clipPath>
<clipPath id="clip13">
<rect width="55.0105" height="16.4306" fill="white" transform="translate(13.6914 294.657)"/>
</clipPath>
<clipPath id="clip14">
<rect width="16.4306" height="16.4306" fill="white" transform="translate(13.6914 294.657)"/>
</clipPath>
<clipPath id="clip15">
<rect width="60.8269" height="16.4306" fill="white" transform="translate(13.6914 317.934)"/>
</clipPath>
<clipPath id="clip16">
<rect width="55.0105" height="16.4306" fill="white" transform="translate(13.6914 371.333)"/>
</clipPath>
<clipPath id="clip17">
<rect width="8.96217" height="8.96217" fill="white" transform="translate(17.4297 375.068)"/>
</clipPath>
<clipPath id="clip18">
<rect width="36.9689" height="8.21532" fill="white" transform="translate(13.6943 13.6924)"/>
</clipPath>
<clipPath id="clip19">
<rect width="85" height="12.323" fill="white" transform="translate(578.016 11.423)"/>
</clipPath>
</defs>
</svg>
