<svg width="120" height="90" viewBox="0 0 120 90" fill="none" xmlns="http://www.w3.org/2000/svg">
<path d="M110.567 33.4841H100.652V36.0704H110.567V33.4841Z" fill="#5C76FF"/>
<path d="M115.524 35.9617H105.609V38.548H115.524V35.9617Z" fill="#5C76FF"/>
<path fill-rule="evenodd" clip-rule="evenodd" d="M100.686 34.0352C100.772 34.0352 100.841 34.1045 100.841 34.19V35.9156H109.63C109.715 35.9156 109.785 35.9849 109.785 36.0704C109.785 36.156 109.715 36.2253 109.63 36.2253H100.531V34.19C100.531 34.1045 100.601 34.0352 100.686 34.0352Z" fill="#75E0E6"/>
<path fill-rule="evenodd" clip-rule="evenodd" d="M110.412 36.0703C110.412 35.9848 110.482 35.9155 110.567 35.9155H112.042C112.127 35.9155 112.197 35.9848 112.197 36.0703C112.197 36.1558 112.127 36.2251 112.042 36.2251H110.567C110.482 36.2251 110.412 36.1558 110.412 36.0703Z" fill="#75E0E6"/>
<path d="M65.4883 76.1924H74.1922V73.9219H65.4883V76.1924Z" fill="#5C76FF"/>
<path d="M37.3066 11.7403H46.0105V9.46973H37.3066V11.7403Z" fill="#5C76FF"/>
<path fill-rule="evenodd" clip-rule="evenodd" d="M103.918 20.0818C104.046 20.0818 104.15 20.1857 104.15 20.314V80.3773C104.15 80.5055 104.046 80.6095 103.918 80.6095C103.79 80.6095 103.686 80.5055 103.686 80.3773V20.314C103.686 20.1857 103.79 20.0818 103.918 20.0818Z" fill="#5C76FF"/>
<path fill-rule="evenodd" clip-rule="evenodd" d="M83.9824 6.08236C83.9824 5.95408 84.0864 5.8501 84.2148 5.8501H100.27C102.413 5.8501 104.151 7.5877 104.151 9.73112V18.1003C104.151 18.2285 104.047 18.3325 103.918 18.3325C103.79 18.3325 103.686 18.2285 103.686 18.1003V9.73112C103.686 7.84423 102.157 6.3146 100.27 6.3146H84.2148C84.0864 6.3146 83.9824 6.21062 83.9824 6.08236Z" fill="#5C76FF"/>
<path fill-rule="evenodd" clip-rule="evenodd" d="M70.3538 6.3146C68.4668 6.3146 66.9372 7.84423 66.9372 9.73112C66.9372 9.8594 66.8333 9.96338 66.705 9.96338C66.5766 9.96338 66.4727 9.8594 66.4727 9.73112C66.4727 7.5877 68.2103 5.8501 70.3538 5.8501H82.9161C83.0444 5.8501 83.1483 5.95408 83.1483 6.08236C83.1483 6.21062 83.0444 6.3146 82.9161 6.3146H70.3538Z" fill="#5C76FF"/>
<path d="M118.298 81.8154H89.5391C89.5391 80.3404 90.7347 79.1448 92.2097 79.1448H115.627C117.102 79.1448 118.298 80.3404 118.298 81.8154Z" fill="#5C76FF"/>
<path d="M78.929 29.0995H54.8721C54.7011 29.0995 54.5625 28.9609 54.5625 28.7899V22.7431C54.5625 15.9289 60.0864 10.405 66.9005 10.405H66.9006C73.7147 10.405 79.2386 15.9289 79.2386 22.7431V28.7899C79.2386 28.9609 79.1 29.0995 78.929 29.0995Z" fill="#5C76FF"/>
<path d="M69.2299 78.6555H51.0332V55.4089H63.0897C66.4808 55.4089 69.2299 58.1578 69.2299 61.5489V78.6555Z" fill="#5C76FF"/>
<path d="M69.2299 78.6554H51.0332V55.4087H63.0897C66.4808 55.4087 69.2299 58.1577 69.2299 61.5488V78.6554Z" fill="black" fill-opacity="0.19"/>
<path d="M59.0234 55.86C62.2289 55.86 64.8366 58.4698 64.8366 61.6779V78.3286H47.2935V55.86H59.0234ZM59.0234 55.533H46.9668V78.6556H65.1635V61.6779C65.1635 58.2841 62.4144 55.533 59.0234 55.533Z" fill="#75E0E6"/>
<path fill-rule="evenodd" clip-rule="evenodd" d="M6.29688 78.0713H9.49963V81.7967H6.29688V78.0713ZM6.60655 78.3809V81.4871H9.18996V78.3809H6.60655Z" fill="#5C76FF"/>
<path fill-rule="evenodd" clip-rule="evenodd" d="M25.4375 78.071H28.6403V81.7966H25.4375V78.071ZM25.7472 78.3808V81.4868H28.3305V78.3808H25.7472Z" fill="#5C76FF"/>
<path d="M44.4302 78.052H41.5371V80.9451H44.4302V78.052Z" fill="#5C76FF"/>
<path d="M62.985 78.1216H60.0918V81.0146H62.985V78.1216Z" fill="#5C76FF"/>
<path d="M63.7098 65.0164H6.16797V78.6605H63.7098V65.0164Z" fill="#B5CDFB"/>
<path d="M40.862 39.8401H7.92578L12.9233 63.8089H45.8596L40.862 39.8401Z" fill="#B5CDFB"/>
<path d="M51.9914 63.8089H45.8296L40.832 39.8401H44.7454C47.1295 39.8401 49.1866 41.5126 49.6732 43.8464L53.459 62.0038C53.6531 62.9348 52.9424 63.8089 51.9914 63.8089Z" fill="#B5CDFB"/>
<path opacity="0.2" d="M40.9163 78.6605C40.9163 78.6605 41.2058 67.3652 40.2412 65.9747C39.9781 65.5954 34.2878 65.4376 32.8555 65.0164H50.033L50.7454 78.6605H40.9163Z" fill="#5C76FF"/>
<path fill-rule="evenodd" clip-rule="evenodd" d="M4.83203 39.6851H8.93582C11.3932 39.6851 13.5136 41.409 14.0152 43.8146L18.2162 63.9636H9.8941L7.9204 54.4974C7.90295 54.4137 7.95667 54.3317 8.04037 54.3143C8.12408 54.2967 8.2061 54.3504 8.22355 54.4343L10.1459 63.6539H17.8352L13.712 43.8779C13.2404 41.6157 11.2465 39.9948 8.93582 39.9948H5.21293L7.94963 53.1204C7.96709 53.2041 7.91338 53.2862 7.82966 53.3036C7.74595 53.3211 7.66393 53.2674 7.64648 53.1837L4.83203 39.6851Z" fill="#5C76FF"/>
<path d="M30.2582 65.0161H6.16797V69.7198H30.2582V65.0161Z" fill="#5C76FF"/>
<path d="M28.0514 20.2368H18.1367V22.8231H28.0514V20.2368Z" fill="#5C76FF"/>
<path d="M23.0592 21.9646H13.1445V24.551H23.0592V21.9646Z" fill="#5C76FF"/>
<path d="M77.8555 46.8626H86.5594V44.592H77.8555V46.8626Z" fill="#5C76FF"/>
<path d="M85.0664 13.7147H93.7703V11.4441H85.0664V13.7147Z" fill="#5C76FF"/>
<path fill-rule="evenodd" clip-rule="evenodd" d="M84.9854 70.2743C79.0637 70.2743 74.2631 75.0747 74.2631 80.9964C74.2631 81.4241 73.9165 81.7707 73.489 81.7707C73.0615 81.7707 72.7148 81.4241 72.7148 80.9964C72.7148 74.2196 78.2086 68.7258 84.9854 68.7258C91.7623 68.7258 97.256 74.2196 97.256 80.9964C97.256 81.4241 96.9094 81.7707 96.4817 81.7707C96.0542 81.7707 95.7076 81.4241 95.7076 80.9964C95.7076 75.0747 90.9071 70.2743 84.9854 70.2743Z" fill="#5C76FF"/>
<path fill-rule="evenodd" clip-rule="evenodd" d="M60.582 68.8786C60.582 68.4511 60.9285 68.1045 61.3562 68.1045H108.616C109.044 68.1045 109.39 68.4511 109.39 68.8786C109.39 69.3063 109.044 69.6529 108.616 69.6529H61.3562C60.9285 69.6529 60.582 69.3063 60.582 68.8786Z" fill="#5C76FF"/>
<path d="M70.3383 67.9925C68.6823 67.9925 67.3398 66.6501 67.3398 64.9941V64.1153C67.3398 63.7806 67.6112 63.5093 67.9458 63.5093H72.7307C73.0653 63.5093 73.3367 63.7806 73.3367 64.1153V64.9941C73.3367 66.6501 71.9943 67.9925 70.3383 67.9925Z" fill="#75E0E6"/>
<path d="M67.3206 65.7513H66.8031C66.3639 65.7513 66.0078 65.3951 66.0078 64.9559C66.0078 64.5165 66.3639 64.1604 66.8031 64.1604H67.3206C67.76 64.1604 68.1161 64.5165 68.1161 64.9559C68.1161 65.3951 67.76 65.7513 67.3206 65.7513Z" fill="#75E0E6"/>
<path d="M70.6252 62.2498C69.7666 61.7632 68.7787 61.0093 68.647 59.9593C68.4843 58.6612 69.7626 57.9633 70.1566 56.3154C70.3851 55.3605 70.3479 53.9563 69.1677 51.9946C71.446 53.1847 71.967 54.2602 72.0307 55.014C72.1383 56.2846 71.6029 57.4428 71.4061 57.7729C70.7457 58.8805 70.0224 58.978 69.8097 59.8206C69.6741 60.3573 69.7611 61.1361 70.6252 62.2498Z" fill="#75E0E6"/>
<path d="M73.5521 68.2988H67.3398C67.3398 67.9154 67.6506 67.6047 68.034 67.6047H72.858C73.2413 67.6047 73.5521 67.9154 73.5521 68.2988Z" fill="#75E0E6"/>
<path d="M101.513 68.2986H98.4824V58.6194C98.4824 57.9108 99.0571 57.3362 99.7658 57.3362H100.23C100.939 57.3362 101.513 57.9108 101.513 58.6194V68.2986Z" fill="#75E0E6"/>
<path d="M99.3105 58.7046H100.375V52.6365H99.3105V58.7046Z" fill="#75E0E6"/>
<path d="M99.127 53.3424H100.56V52.5237C100.56 52.4104 100.468 52.3186 100.355 52.3186H99.332C99.2188 52.3186 99.127 52.4104 99.127 52.5237V53.3424Z" fill="#5C76FF"/>
<path d="M104.601 68.2989H101.248V57.5909C101.248 56.8068 101.884 56.1711 102.668 56.1711H103.181C103.965 56.1711 104.601 56.8068 104.601 57.5909V68.2989Z" fill="#75E0E6"/>
<path d="M102.236 56.9694H103.301V50.9011H102.236V56.9694Z" fill="#75E0E6"/>
<path d="M102.053 51.6073H103.486V50.7885C103.486 50.6753 103.394 50.5835 103.281 50.5835H102.258C102.145 50.5835 102.053 50.6753 102.053 50.7885V51.6073Z" fill="#5C76FF"/>
<path d="M93.1338 64.5349H93.1336C92.0124 64.5349 91.1035 63.6261 91.1035 62.5047V59.1904H95.1639V62.5047C95.1639 63.6261 94.255 64.5349 93.1338 64.5349Z" fill="#75E0E6"/>
<path d="M93.3817 63.9624H93V68.1645H93.3817V63.9624Z" fill="#75E0E6"/>
<path d="M91.6758 68.2035C91.6758 67.9926 91.8468 67.8218 92.0575 67.8218H94.2093C94.42 67.8218 94.591 67.9926 94.591 68.2035H91.6758Z" fill="#75E0E6"/>
<path d="M88.206 64.5349C87.0848 64.5349 86.1758 63.6261 86.1758 62.5047V59.1904H90.2363V62.5047C90.2363 63.6261 89.3273 64.5349 88.206 64.5349Z" fill="#75E0E6"/>
<path d="M88.454 63.9624H88.0723V68.1645H88.454V63.9624Z" fill="#75E0E6"/>
<path d="M86.748 68.2035C86.748 67.9926 86.9189 67.8218 87.1298 67.8218H89.2815C89.4923 67.8218 89.6633 67.9926 89.6633 68.2035H86.748Z" fill="#75E0E6"/>
<path d="M79.957 51.3079H88.6609V49.0374H79.957V51.3079Z" fill="#5C76FF"/>
<path d="M75.6055 49.1333H84.3094V46.8628H75.6055V49.1333Z" fill="#5C76FF"/>
<path fill-rule="evenodd" clip-rule="evenodd" d="M1.5 83.9688C1.5 83.8833 1.56933 83.814 1.65483 83.814H118.345C118.431 83.814 118.5 83.8833 118.5 83.9688C118.5 84.0544 118.431 84.1237 118.345 84.1237H1.65483C1.56933 84.1237 1.5 84.0544 1.5 83.9688Z" fill="#5C76FF"/>
<path d="M69.6274 11.0264H64.1719C64.1719 9.93751 65.0545 8.74512 66.1435 8.74512H67.6558C68.7446 8.74512 69.6274 9.93751 69.6274 11.0264Z" fill="#5C76FF"/>
<path fill-rule="evenodd" clip-rule="evenodd" d="M17.9805 21.9645C17.9805 21.879 18.0499 21.8096 18.1354 21.8096H23.2135V23.8449C23.2135 23.9304 23.1442 23.9997 23.0587 23.9997C22.9732 23.9997 22.9039 23.9304 22.9039 23.8449V22.1193H18.1354C18.0499 22.1193 17.9805 22.05 17.9805 21.9645Z" fill="#75E0E6"/>
<path fill-rule="evenodd" clip-rule="evenodd" d="M63.084 26.5205C63.084 26.435 63.1533 26.3657 63.2388 26.3657H76.5217C76.6072 26.3657 76.6765 26.435 76.6765 26.5205C76.6765 26.606 76.6072 26.6753 76.5217 26.6753H63.2388C63.1533 26.6753 63.084 26.606 63.084 26.5205Z" fill="#75E0E6"/>
<path fill-rule="evenodd" clip-rule="evenodd" d="M57.877 26.5205C57.877 26.435 57.9464 26.3657 58.0319 26.3657H62.1554C62.2409 26.3657 62.3102 26.435 62.3102 26.5205C62.3102 26.606 62.2409 26.6753 62.1554 26.6753H58.0319C57.9464 26.6753 57.877 26.606 57.877 26.5205Z" fill="#75E0E6"/>
<path fill-rule="evenodd" clip-rule="evenodd" d="M53.1641 26.5205C53.1641 26.435 53.2334 26.3657 53.3189 26.3657H56.9478C57.0333 26.3657 57.1026 26.435 57.1026 26.5205C57.1026 26.606 57.0333 26.6753 56.9478 26.6753H53.3189C53.2334 26.6753 53.1641 26.606 53.1641 26.5205Z" fill="#75E0E6"/>
<path d="M101.515 61.6296C101.514 61.8783 101.514 62.0448 101.514 62.0448L101.515 61.6296Z" fill="#75E0E6"/>
<path d="M101.517 59.7495C101.518 60.0875 101.517 60.6696 101.516 61.1654L101.517 59.7495Z" fill="#75E0E6"/>
<path fill-rule="evenodd" clip-rule="evenodd" d="M101.517 59.6733C101.559 59.6732 101.593 59.7072 101.593 59.7494C101.594 60.0875 101.593 60.6699 101.592 61.1657C101.592 61.2078 101.558 61.2419 101.516 61.2417C101.473 61.2416 101.439 61.2074 101.439 61.1652C101.441 60.6695 101.442 60.0875 101.441 59.7498C101.441 59.7078 101.475 59.6735 101.517 59.6733Z" fill="#5C76FF"/>
<path d="M101.188 57.761C101.329 57.9072 101.466 58.1114 101.487 58.3626C101.502 58.5474 101.51 58.8971 101.514 59.285" fill="#75E0E6"/>
<path fill-rule="evenodd" clip-rule="evenodd" d="M101.135 57.7063C101.165 57.6769 101.213 57.6778 101.242 57.7081C101.39 57.8608 101.541 58.0807 101.563 58.3566C101.578 58.5447 101.586 58.8969 101.59 59.2843C101.59 59.3265 101.557 59.361 101.515 59.3614C101.472 59.3617 101.438 59.328 101.437 59.2858C101.433 58.8975 101.425 58.5507 101.411 58.3689L101.135 57.7063ZM101.135 57.7063C101.104 57.7356 101.103 57.7839 101.133 57.8142L101.135 57.7063ZM101.133 57.8142C101.268 57.954 101.392 58.1422 101.411 58.3689L101.133 57.8142Z" fill="#5C76FF"/>
<path d="M71.99 62.0701C71.1861 61.7559 70.6823 61.0618 70.7274 60.3903C70.7505 60.0477 70.9193 59.67 71.2019 59.4118C71.5655 59.0796 71.8701 59.1715 72.2099 58.9374C72.486 58.7473 72.7935 58.3362 72.8325 57.3364C72.9629 57.4755 73.3652 57.9408 73.3662 58.6113C73.3664 58.6896 73.3614 59.044 73.1588 59.4415C72.8286 60.0888 72.3522 60.1087 72.0617 60.5979C71.9093 60.8544 71.7747 61.2963 71.99 62.0701Z" fill="#B5CDFB"/>
<path d="M68.3238 56.979C69.1473 56.72 69.6969 56.0615 69.6972 55.3886C69.6973 55.0451 69.5545 54.6569 69.2901 54.3803C68.9497 54.024 68.3164 53.8386 68.3164 53.8386C68.4361 54.0359 68.589 54.3356 68.6844 54.7256C68.7852 55.137 68.7771 55.464 68.7733 55.5558C68.7478 56.204 68.4957 56.7029 68.3238 56.979Z" fill="#B5CDFB"/>
<path fill-rule="evenodd" clip-rule="evenodd" d="M72.8516 67.6814L72.8507 67.6815L72.8465 67.682H71.4251C71.3823 67.682 71.3477 67.6473 71.3477 67.6046C71.3477 67.5618 71.3823 67.5272 71.4251 67.5272H72.8382C72.8411 67.5269 72.8451 67.5266 72.8501 67.5264C72.8598 67.526 72.8733 67.5257 72.89 67.5261C72.9233 67.5273 72.9695 67.5318 73.0238 67.545C73.1328 67.5717 73.2735 67.6337 73.4052 67.7726C73.4346 67.8036 73.4334 67.8527 73.4024 67.8821C73.3713 67.9115 73.3224 67.9103 73.2929 67.8792C73.1844 67.7648 73.0713 67.716 72.987 67.6954C72.9446 67.6851 72.909 67.6817 72.8847 67.6809C72.8727 67.6805 72.8634 67.6808 72.8576 67.6811C72.8547 67.6812 72.8528 67.6814 72.8516 67.6814Z" fill="#5C76FF"/>
<path fill-rule="evenodd" clip-rule="evenodd" d="M70.6328 67.6047C70.6328 67.562 70.6675 67.5273 70.7102 67.5273H71.1154C71.1581 67.5273 71.1928 67.562 71.1928 67.6047C71.1928 67.6475 71.1581 67.6821 71.1154 67.6821H70.7102C70.6675 67.6821 70.6328 67.6475 70.6328 67.6047Z" fill="#5C76FF"/>
<path fill-rule="evenodd" clip-rule="evenodd" d="M70.1562 67.6047C70.1562 67.562 70.1909 67.5273 70.2336 67.5273H70.4009C70.4437 67.5273 70.4783 67.562 70.4783 67.6047C70.4783 67.6475 70.4437 67.6821 70.4009 67.6821H70.2336C70.1909 67.6821 70.1562 67.6475 70.1562 67.6047Z" fill="#5C76FF"/>
<path d="M47.2872 80.3281L45.4195 80.0578L45.0801 78.2185L46.8498 78.2087L47.2872 80.3281Z" fill="#9C7159"/>
<path d="M52.7024 79.8712L51.0421 80.0654L50.5879 77.6663L52.2619 77.575L52.7024 79.8712Z" fill="#9C7159"/>
<path d="M57.3311 81.368H49.8449C49.6868 81.368 49.5586 81.2399 49.5586 81.0818C49.5586 80.9235 49.6868 80.7954 49.8449 80.7954H57.3311C57.4892 80.7954 57.6175 80.9235 57.6175 81.0818C57.6175 81.2399 57.4892 81.368 57.3311 81.368Z" fill="#5C76FF"/>
<path d="M50.9365 79.5064C50.9365 79.5064 50.0741 80.6095 50.7161 80.7883C51.3583 80.967 56.3365 80.7954 56.3365 80.7954L56.0935 79.7422L52.1198 79.2563L50.9365 79.5064Z" fill="#9C7159"/>
<path d="M57.3791 80.7952L53.1161 81.0816L53.0293 79.1868L55.84 79.2561C56.69 79.2561 57.3791 79.9452 57.3791 80.7952Z" fill="#5C76FF"/>
<path d="M45.983 52.1429C45.983 52.1429 44.6751 51.267 44.5932 51.4061C44.3027 51.8994 45.1616 52.841 45.1616 52.841L45.983 52.1429Z" fill="#231F20"/>
<path d="M47.2116 59.2301L39.3216 58.3471C39.0368 58.3186 38.8025 58.1101 38.7414 57.8303L36.4988 47.5673C36.3465 46.8706 36.788 46.1824 37.4847 46.0301C38.1807 45.8776 38.8695 46.3193 39.0219 47.0159L40.9478 55.8301L47.0345 57.6859C47.7467 57.7256 47.064 58.9421 47.2116 59.2301Z" fill="#835A4B"/>
<path d="M42.3613 52.3527C42.3613 52.3527 42.4515 52.1417 43.1631 51.5342C43.3981 51.3336 43.906 51.1902 43.906 51.1902C43.906 51.1902 44.6631 51.003 44.7376 51.1211C44.9785 51.5019 44.5129 51.7055 44.2225 51.7614C44.2078 51.7643 44.1973 51.7763 44.1858 51.786L44.7807 52.3515L42.3613 52.3527Z" fill="#835A4B"/>
<path d="M42.3613 52.3528C42.3613 52.3528 42.9354 51.5047 43.5855 51.4564C43.8937 51.4336 44.7376 52.6711 44.7376 52.6711L42.3613 52.3528Z" fill="#9C7159"/>
<path d="M46.2263 51.776C46.2263 51.776 45.2438 50.9153 45.1619 51.0542C44.8714 51.5476 45.5296 52.1503 45.5296 52.1503L46.2263 51.776Z" fill="#835A4B"/>
<path d="M39.3849 57.3525L32.0385 57.4601C31.7468 56.6288 31.3395 55.436 30.8846 53.9895C29.3819 49.2123 30.7239 45.9216 30.8871 45.351C31.0493 44.7839 33.4392 43.4562 34.3659 43.7105C34.7852 43.8081 36.7362 43.4835 37.2792 43.9476C38.895 45.3282 39.279 48.5216 39.2195 49.4316C39.1088 51.1241 38.8973 52.4901 38.8667 54.1631C38.8421 55.5035 39.1289 56.6099 39.3849 57.3525Z" fill="#75E0E6"/>
<path fill-rule="evenodd" clip-rule="evenodd" d="M36.6022 60.802C36.6892 59.2653 38.0054 58.0899 39.5422 58.1769L46.7887 58.5868C48.5888 58.6887 50.111 59.9521 50.5444 61.6999L53.9309 74.8046C54.3161 76.295 53.4202 77.8152 51.9299 78.2004C50.4397 78.5855 48.9193 77.6897 48.5342 76.1993L45.4052 64.0917L39.2273 63.7422C37.6906 63.6552 36.5152 62.3389 36.6022 60.802Z" fill="#75E0E6"/>
<path fill-rule="evenodd" clip-rule="evenodd" d="M29.916 61.5821C29.916 59.7008 31.4411 58.1758 33.3224 58.1758H42.6956C44.4698 58.1758 45.6731 59.2297 46.2591 59.9414C46.8455 60.6538 47.3303 61.6219 47.4561 62.7044L49.5458 75.4375C49.8504 77.2939 48.5925 79.0459 46.736 79.3505C44.8796 79.6552 43.1276 78.3973 42.8229 76.5407L40.9269 64.9886H33.3224C31.4411 64.9886 29.916 63.4634 29.916 61.5821Z" fill="#5C76FF"/>
<path d="M46.2949 57.4602C46.2949 57.4602 48.9948 57.6489 49.2172 57.8712C49.4395 58.0937 50.67 60.0642 50.4328 60.1383C50.3406 60.1671 50.5684 60.4496 49.9584 60.3014C49.7691 60.2555 49.0096 59.6787 49.0096 59.6787C49.0096 59.6787 47.6224 59.1197 47.3938 59.0589C47.2759 59.0276 47.1657 58.967 47.0668 58.8936C46.7538 58.6617 46.5706 58.6032 46.5402 58.2147L46.5214 57.975L46.2949 57.4602Z" fill="#835A4B"/>
<path d="M44.9131 50.5674C43.7918 50.5674 42.8828 49.6584 42.8828 48.5371V46.1743H46.9433V48.5371C46.9433 49.6584 46.0343 50.5674 44.9131 50.5674Z" fill="#5C76FF"/>
<path d="M45.161 49.9946H44.7793V54.835H45.161V49.9946Z" fill="#5C76FF"/>
<path d="M43.457 55.1264C43.457 54.9156 43.6279 54.7446 43.8388 54.7446H45.9905C46.2013 54.7446 46.3723 54.9156 46.3723 55.1264H43.457Z" fill="#5C76FF"/>
<path d="M52.1896 81.9168H44.5675C44.4094 81.9168 44.2812 81.7887 44.2812 81.6306C44.2812 81.4725 44.4094 81.3442 44.5675 81.3442H52.1896C52.3478 81.3442 52.4759 81.4725 52.4759 81.6306C52.4759 81.7887 52.3478 81.9168 52.1896 81.9168Z" fill="#5C76FF"/>
<path d="M45.4205 80.0579C45.4205 80.0579 44.6656 81.1655 45.3076 81.3442C45.9497 81.523 51.0598 81.3442 51.0598 81.3442L50.8168 80.291L46.8431 79.8052L45.4205 80.0579Z" fill="#9C7159"/>
<path d="M52.2385 81.3444L47.9754 81.6308L47.8887 79.7358L50.6994 79.8053C51.5494 79.8053 52.2385 80.4944 52.2385 81.3444Z" fill="#5C76FF"/>
<path d="M31.8451 56.8554C30.6401 58.4856 29.9506 60.0619 29.9414 61.6863L41.7221 59.6929C41.7221 59.6929 40.9529 58.0983 39.1228 56.4612L31.8451 56.8554Z" fill="#5C76FF"/>
<path d="M39.3239 40.7988C39.2697 41.0337 39.1988 41.2728 39.1212 41.5029C39.1046 41.5553 39.0861 41.6063 39.0678 41.6556C38.9619 41.9528 38.844 42.2292 38.7318 42.4556C38.6319 42.6546 38.4128 42.7656 38.193 42.729L36.6026 42.1746L36.5963 42.1736C36.5963 42.1736 36.5102 42.5331 36.4553 42.9185C36.429 43.1049 36.4094 43.2971 36.4107 43.457C36.419 44.4356 36.3413 45.1298 36.104 45.155C35.7819 45.189 35.4233 45.2084 35.0831 45.1583C34.3059 45.0458 33.6297 44.5667 33.7361 43.0512C33.7382 43.0122 33.7385 42.9702 33.7355 42.9255C33.6617 41.8256 32.1321 40.19 32.1321 40.19C31.9784 40.0497 31.8392 39.8946 31.7177 39.7259C31.4574 39.3615 31.2782 38.9328 31.2075 38.4596C30.9722 36.8693 32.0708 35.3865 33.6627 35.151L35.9369 34.8138C36.0168 34.8023 36.0954 34.7939 36.1727 34.7888C37.6727 34.6883 39.0215 35.757 39.2454 37.269C39.2613 37.3658 39.2691 37.4598 39.2741 37.5573L39.2877 37.5516C39.2877 37.5516 39.3107 37.6851 39.3378 37.9068C39.4173 38.5362 39.5424 39.8702 39.3239 40.7988Z" fill="#9C7159"/>
<path d="M39.3288 38.5527C39.3288 38.5527 40.0919 40.3388 39.9302 40.5649C39.8825 40.6315 39.6425 40.5924 39.281 40.6082C39.0281 40.6191 38.691 40.0241 38.7917 39.7919L39.3288 38.5527Z" fill="#9C7159"/>
<path fill-rule="evenodd" clip-rule="evenodd" d="M37.7057 38.9964L37.6283 38.8623C37.5542 38.9051 37.5288 38.9997 37.5716 39.0738C37.6145 39.1478 37.7091 39.1731 37.7831 39.1305L37.7844 39.1298L37.7898 39.1266C37.7948 39.1239 37.8026 39.1197 37.8126 39.1142C37.833 39.1032 37.8633 39.0876 37.9016 39.0689C37.9782 39.0315 38.0864 38.9829 38.2118 38.9381C38.4684 38.8463 38.7733 38.7791 39.0271 38.8313C39.111 38.8485 39.1929 38.7945 39.21 38.7108C39.2273 38.627 39.1734 38.5451 39.0896 38.528C38.7504 38.4582 38.3789 38.5494 38.1075 38.6465C37.9689 38.696 37.8501 38.7495 37.7658 38.7905C37.7237 38.8112 37.6899 38.8287 37.6664 38.8413C37.6547 38.8476 37.6454 38.8526 37.6391 38.8562L37.6314 38.8604L37.6293 38.8617L37.6287 38.862L37.6284 38.8622C37.6284 38.8622 37.6283 38.8623 37.7057 38.9964Z" fill="#231F20"/>
<path d="M38.5272 39.7132C38.635 39.7132 38.7225 39.6258 38.7225 39.5179C38.7225 39.4102 38.635 39.3228 38.5272 39.3228C38.4193 39.3228 38.332 39.4102 38.332 39.5179C38.332 39.6258 38.4193 39.7132 38.5272 39.7132Z" fill="#231F20"/>
<path d="M39.1206 41.5032C39.104 41.5556 39.0855 41.6066 39.0672 41.6559C38.7443 41.631 38.5853 41.3886 38.5449 41.2502L38.694 41.2061C38.6979 41.2182 38.7884 41.5023 39.1206 41.5032Z" fill="#231F20"/>
<path d="M36.6013 42.1748L36.595 42.1738C36.595 42.1738 36.509 42.5333 36.4541 42.9187C36.2849 42.8261 36.0367 42.073 36.0892 41.9531C36.0892 41.9531 36.1388 41.9762 36.2266 42.0137C36.3512 42.0674 36.3569 42.0718 36.6013 42.1748Z" fill="#231F20"/>
<path d="M33.6676 56.0527C33.2239 56.0527 29.8468 46.4929 29.8468 46.4929C29.6997 45.6803 30.0945 44.0747 31.7154 44.0752C33.3367 44.0756 33.8509 45.0439 34.0285 45.8504C34.3959 47.519 35.7303 53.2549 35.7303 53.2549L42.9082 52.2023C43.6939 51.9479 44.4183 52.0295 44.6722 52.8152C44.9263 53.6009 44.4055 53.9611 43.6197 54.2152C43.6197 54.2152 34.6485 56.2504 33.6676 56.0527Z" fill="#9C7159"/>
<path d="M43.4561 52.1338C43.4561 52.1338 43.931 52.1731 44.3294 52.077C44.6327 52.0038 45.3749 51.8484 45.3749 51.8484C45.3749 51.8484 45.7613 54.0678 45.4144 54.2413C45.0673 54.4147 44.7662 54.5272 44.2022 54.5446C43.774 54.5578 42.8047 54.4071 42.8047 54.4071L43.4561 52.1338Z" fill="#9C7159"/>
<path d="M45.2951 53.6687C45.2951 53.6687 46.1111 53.0402 46.1453 52.6151C46.1795 52.1898 46.5209 51.4992 45.8008 51.7256C45.0808 51.9521 44.8574 52.0634 44.8574 52.0634L45.2951 53.6687Z" fill="#9C7159"/>
<path d="M36.3415 38.553C37.4633 38.4053 38.8297 38.156 39.9515 38.0082C39.8846 37.4301 39.9146 35.8554 39.0593 34.806C37.4558 32.8391 34.8518 33.9669 34.392 33.9759C33.9884 33.9837 32.4852 34.0137 32.2317 34.7307C32.1492 34.9637 32.2233 35.2064 32.3007 35.3768C31.7238 35.283 30.9209 35.3111 30.6387 37.2077C30.4278 38.6261 30.3296 38.9499 30.2435 39.1941C30.032 39.7937 29.7432 40.2314 29.4887 40.7558C28.6439 42.4962 28.5566 42.6713 28.4996 43.0724C28.44 43.491 29.5437 43.8309 29.3492 44.3999C29.2646 44.6468 29.1659 44.8602 28.941 45.2628C28.0784 46.8065 27.579 47.2085 27.4833 48.126C27.3765 49.1516 26.858 49.1202 28.1174 52.3427C28.4331 53.1504 28.6328 53.7539 29.2626 54.2687C29.8511 54.7496 30.8543 54.4452 31.3077 54.504C30.7361 52.6847 30.6594 51.4908 30.6599 50.4515C30.6606 48.9881 30.3029 47.8736 31.1367 46.8245C31.3076 46.6097 31.886 45.6323 32.6985 45.6272C33.3794 45.623 33.7595 46.292 34.3747 46.1307C34.7218 46.0397 34.9204 45.743 35.0665 45.518C35.4595 44.9129 35.963 44.0109 35.8313 41.7737C35.7568 40.5081 36.3674 39.5157 36.3415 38.553Z" fill="#231F20"/>
<path fill-rule="evenodd" clip-rule="evenodd" d="M38.0781 58.2009C38.0781 58.1154 38.1474 58.0461 38.2331 58.0461H38.8754C38.9609 58.0461 39.0302 58.1154 39.0302 58.2009C39.0302 58.2865 38.9609 58.3558 38.8754 58.3558H38.2331C38.1474 58.3558 38.0781 58.2865 38.0781 58.2009Z" fill="#B5CDFB"/>
<path fill-rule="evenodd" clip-rule="evenodd" d="M39.5329 58.3558C39.5329 58.3558 39.5329 58.3558 39.5278 58.201C39.5228 58.0463 39.5228 58.0463 39.5228 58.0463L39.5527 58.0453C39.572 58.0447 39.6007 58.0439 39.6373 58.0427C39.7106 58.0406 39.8162 58.0376 39.9457 58.0343C40.2047 58.0279 40.559 58.0199 40.9405 58.0147C41.6996 58.0042 42.5786 58.0039 43.0217 58.0469C43.7578 58.1185 44.8825 58.4107 45.7607 59.2118C45.824 59.2694 45.8285 59.3674 45.7708 59.4305C45.7132 59.4937 45.6152 59.4982 45.5521 59.4406C44.7401 58.6999 43.6883 58.4228 42.9917 58.3552C42.5692 58.3141 41.7088 58.3138 40.9448 58.3243C40.5649 58.3295 40.2118 58.3375 39.9536 58.3439C39.8246 58.3472 39.7193 58.3502 39.6463 58.3523C39.6098 58.3534 39.5815 58.3543 39.5621 58.3549L39.5329 58.3558ZM39.3731 58.2059C39.3703 58.1206 39.4375 58.049 39.5228 58.0463L39.5278 58.201L39.5329 58.3558C39.4474 58.3585 39.3758 58.2914 39.3731 58.2059Z" fill="#B5CDFB"/>
</svg>
