<svg width="200" height="150" viewBox="0 0 200 150" fill="none" xmlns="http://www.w3.org/2000/svg">
<path d="M0 10C0 4.47715 4.47715 0 10 0H190C195.523 0 200 4.47715 200 10V140C200 145.523 195.523 150 190 150H10C4.47716 150 0 145.523 0 140V10Z" fill="black" fill-opacity="0.1"/>
<path opacity="0.53" d="M101.5 53.767H16.25V56.717H101.5V53.767Z" fill="#62C3DE"/>
<path opacity="0.53" d="M175.575 61.117H156.9C156.6 61.117 156.35 60.867 156.35 60.567V54.917C156.35 54.617 156.6 54.367 156.9 54.367H175.575C175.875 54.367 176.125 54.617 176.125 54.917V60.542C176.15 60.867 175.9 61.117 175.575 61.117Z" fill="#62C3DE"/>
<path opacity="0.53" d="M161.149 25.792H117.149C116.699 25.792 116.324 25.417 116.324 24.967V17.967C116.324 17.517 116.699 17.142 117.149 17.142H161.149C161.599 17.142 161.974 17.517 161.974 17.967V24.967C161.974 25.417 161.599 25.792 161.149 25.792Z" fill="#62C3DE"/>
<path opacity="0.53" d="M160.476 88.967V98.667C160.476 99.817 159.551 100.767 158.376 100.767H122.176V86.892H158.376C159.526 86.867 160.476 87.817 160.476 88.967Z" fill="#62C3DE"/>
<path opacity="0.36" d="M178.1 104.492H133.125V134.342H178.1V104.492Z" fill="#62C3DE"/>
<path opacity="0.68" d="M158.375 107.717H117.025V118.067H158.375V107.717Z" fill="white"/>
<path opacity="0.46" d="M120.2 131.242C123.279 131.242 125.775 128.746 125.775 125.667C125.775 122.588 123.279 120.092 120.2 120.092C117.121 120.092 114.625 122.588 114.625 125.667C114.625 128.746 117.121 131.242 120.2 131.242Z" fill="#143860"/>
<path opacity="0.12" d="M19.1508 136.992C42.9258 136.892 66.6758 136.792 90.4508 136.692C96.9258 135.217 101.101 130.442 100.926 125.842C100.851 123.867 99.9508 120.892 97.5508 119.417C92.9008 116.592 85.8008 121.467 83.9258 118.867C83.5008 118.292 83.5508 117.592 83.5508 117.492C83.8508 112.417 104.326 114.542 110.151 105.167C114.926 97.467 105.276 89.317 109.651 81.667C115.676 71.142 138.626 78.492 141.051 71.767C143.451 65.067 124.176 48.142 114.201 52.367C106.626 55.592 108.876 69.142 101.676 71.267C94.7758 73.292 90.8508 61.442 79.0008 60.067C68.3258 58.817 54.9758 66.517 50.1008 76.767C46.8758 83.542 47.7508 90.642 43.4008 92.142C41.1008 92.942 39.7508 91.392 35.7258 90.367C16.9508 85.492 7.67582 100.142 20.8008 114.642C23.7008 117.842 24.9508 120.417 24.1008 122.292C22.9008 124.892 17.5508 124.167 14.5508 125.342C12.9758 125.942 12.8258 126.667 12.7258 126.867C11.1508 130.167 18.3008 136.267 19.1508 136.992Z" fill="#8FE4FF"/>
<path opacity="0.36" d="M35.1 99.417C39.1593 99.417 42.45 96.1263 42.45 92.067C42.45 88.0077 39.1593 84.717 35.1 84.717C31.0407 84.717 27.75 88.0077 27.75 92.067C27.75 96.1263 31.0407 99.417 35.1 99.417Z" fill="#62C3DE"/>
<path d="M39.1242 87.142L36.5742 86.117L39.4992 79.017L47.0992 77.967L47.4492 80.692L41.4242 81.517L39.1242 87.142Z" fill="#62C3DE"/>
<path d="M48.3575 78.5023L46.1836 80.1866L50.3945 85.6213L52.5684 83.937L48.3575 78.5023Z" fill="#62C3DE"/>
<path opacity="0.36" d="M48.9254 22.317V47.042C48.9254 48.517 47.7254 49.692 46.2754 49.692H18.9254C17.4504 49.692 16.2754 48.492 16.2754 47.042V22.317C16.2754 20.842 17.4754 19.667 18.9254 19.667H46.2754C47.7504 19.642 48.9254 20.842 48.9254 22.317Z" fill="#62C3DE"/>
<path opacity="0.53" d="M48.9254 24.642V47.017C48.9254 48.492 47.7254 49.667 46.2754 49.667H18.9254C17.4504 49.667 16.2754 48.467 16.2754 47.017V37.842C16.8254 37.492 17.3504 37.342 17.8504 37.442C19.3754 37.717 19.2004 40.142 20.5254 40.517C24.1504 41.492 29.8504 24.642 34.5754 25.317C37.8254 25.792 37.9004 34.142 41.1004 34.517C44.3004 34.867 46.4504 26.542 48.9254 24.642Z" fill="#62C3DE"/>
<path fill-rule="evenodd" clip-rule="evenodd" d="M75.6671 63.442H11.625C10.325 63.442 9.25 62.367 9.25 61.067V15.292C9.25 13.992 10.325 12.917 11.625 12.917H107.05C108.35 12.917 109.425 13.992 109.425 15.292V61.067C109.425 62.0866 108.803 62.9434 107.913 63.2842L127.768 69.6922C129.199 68.5066 131.052 67.792 133.075 67.792C137.6 67.792 141.275 71.367 141.275 75.792V86.8672H141.275V90.3921H142.2C144.55 90.3921 146.45 92.2921 146.45 94.6421V107.592H154.4V107.842H146.45V122.092H158.55C158.625 122.092 158.675 122.142 158.675 122.217C158.675 122.292 158.625 122.342 158.55 122.342H146.45V125.092H158.55C158.625 125.092 158.675 125.142 158.675 125.217C158.675 125.292 158.625 125.342 158.55 125.342H146.45V128.067H150.602L150.95 127.467H151.85L152.198 128.067H158.55C158.625 128.067 158.675 128.117 158.675 128.192C158.675 128.267 158.625 128.317 158.55 128.317H152.256L151.85 129.017H150.95L150.544 128.317H146.45V131.467C146.45 133.817 144.55 135.717 142.2 135.717H113.675C111.325 135.717 109.425 133.817 109.425 131.467V94.6421C109.425 92.2921 111.325 90.3921 113.675 90.3921H124.9V86.892H124.875V75.792C124.875 74.4066 125.235 73.1046 125.869 71.9695L98.9696 63.442H81.3352L55.3144 78.8468L55.625 79.3169C56.5733 80.5023 54.7533 83.7498 54.2332 84.6232L55.0248 85.6171C55.7748 86.5671 55.6248 87.9421 54.6748 88.6921L54.5498 88.7671L43.7998 75.2921L43.9248 75.1921C44.8748 74.4421 46.2498 74.5921 46.9998 75.5421L48.0648 76.8791C49.4393 76.4442 52.9118 75.4852 53.8113 76.5749L75.6671 63.442ZM100.03 63.5152L100.181 63.442H103.432L104 64.7171C104.013 64.7432 104.029 64.767 104.048 64.7881L100.03 63.5152ZM104.275 64.5921L103.763 63.442H107L104.35 64.6171C104.325 64.6171 104.275 64.6171 104.275 64.5921ZM107.625 63.4921C107.623 63.4876 107.62 63.4833 107.618 63.4789L111.513 64.7357L111.506 64.739L111.5 64.7421L108.9 66.0421H108.85C108.85 66.0421 108.825 66.0421 108.825 66.0171L107.625 63.4921ZM111.9 64.8671L111.896 64.8591L115.806 66.1207L113.4 67.4921H113.35C113.35 67.4921 113.325 67.4921 113.325 67.4671L111.9 64.8671ZM117.525 68.9421L116.361 66.2999L119.999 67.4736L117.6 68.9671H117.55C117.55 68.9671 117.525 68.9671 117.525 68.9421ZM121.55 70.2421L120.491 67.6324L124.353 68.8785L121.625 70.2671H121.575C121.575 70.2671 121.55 70.2671 121.55 70.2421ZM125.825 71.5171L124.871 69.0453L127.525 69.9017C127.163 70.2268 126.83 70.5834 126.533 70.967L125.9 71.5421H125.85C125.85 71.5421 125.825 71.5421 125.825 71.5171ZM124.55 69.0921L125.515 71.5902L121.818 70.4191L124.475 69.0671H124.525C124.525 69.0671 124.55 69.0671 124.55 69.0921ZM120.175 67.6921L121.202 70.2237L117.75 69.1299L120.1 67.6671H120.15C120.15 67.6671 120.175 67.6671 120.175 67.6921ZM116.025 66.3171L117.185 68.9508L113.388 67.7477C113.392 67.7461 113.397 67.7444 113.402 67.7425C113.407 67.7404 113.412 67.7381 113.418 67.7356C113.428 67.7304 113.439 67.7243 113.45 67.7171L115.95 66.2921H116C116 66.2921 116.025 66.2921 116.025 66.3171ZM113.05 67.5921C113.057 67.6139 113.069 67.6336 113.083 67.6512L108.821 66.3007C108.864 66.2957 108.907 66.2814 108.95 66.2671L111.55 64.9671C111.575 64.9671 111.6 64.9671 111.625 64.9921L113.05 67.5921ZM108.55 66.1421C108.563 66.1802 108.588 66.2118 108.62 66.237L104.354 64.8853C104.37 64.8807 104.385 64.8746 104.4 64.8671L107.275 63.5921C107.3 63.5921 107.35 63.5921 107.35 63.6171L108.55 66.1421ZM103.15 62.0671L103.651 63.192H106.729L103.134 62.0322C103.138 62.0385 103.141 62.0451 103.144 62.052C103.146 62.0569 103.148 62.0619 103.15 62.0671ZM92.6168 58.6389L102.763 61.9126L102.75 61.9171L100.223 63.192H99.7689L98.05 60.5421C97.975 60.4171 97.825 60.3671 97.7 60.4171L94.45 61.5171C94.425 61.5171 94.4 61.5171 94.4 61.4921L92.6168 58.6389ZM102.8 62.1671L100.694 63.192H103.321L102.875 62.1921C102.875 62.1671 102.85 62.1671 102.85 62.1671H102.8ZM97.8 60.6671L99.4378 63.192H99.0103L94.4678 61.7527C94.4787 61.7498 94.4894 61.7463 94.5 61.7421L97.75 60.6421C97.75 60.6421 97.775 60.6421 97.8 60.6671ZM94.15 61.6171C94.1599 61.6335 94.171 61.6487 94.1833 61.6625L88.8144 59.9613L92.225 58.5921C92.225 58.5921 92.25 58.5921 92.275 58.6171L94.15 61.6171ZM88.1776 59.3912L88.4222 59.837L87.7723 59.6311L88.1776 59.3912ZM88.65 59.7171L88.3992 59.26L88.7252 59.067L88.8502 58.992L87.4481 56.9713L91.9826 58.4343L88.725 59.7421C88.7 59.7421 88.65 59.7421 88.65 59.7171ZM87.2913 57.2407L88.2697 59.024L88.4502 58.917L87.2913 57.2407ZM88.0483 59.1554L87.132 57.4855L87.018 59.3921L87.4296 59.5225L88.0483 59.1554ZM107.488 63.147C108.452 62.9456 109.175 62.0919 109.175 61.067V15.292C109.175 14.117 108.225 13.167 107.05 13.167H11.625C10.45 13.167 9.5 14.117 9.5 15.292V61.067C9.5 62.242 10.45 63.192 11.625 63.192H76.0832L86.9457 56.6649L86.9998 56.542L87.0998 56.567L87.1055 56.5688L87.1502 56.542L87.1871 56.5951L107.488 63.147ZM86.7721 57.059L84.0712 58.6816C84.0897 58.6843 84.1077 58.6879 84.125 58.6922L86.6 59.7422C86.6174 59.7596 86.647 59.7528 86.6718 59.747C86.6768 59.7458 86.6817 59.7447 86.6862 59.7438C86.6913 59.7428 86.696 59.7422 86.7 59.7422C86.725 59.7172 86.75 59.6922 86.75 59.6672L86.7558 59.57L85.7998 59.267L86.7721 57.059ZM87.0026 59.6483L87 59.6922C87 59.7255 86.9947 59.757 86.985 59.7863L87.1427 59.6927L87.0026 59.6483ZM87.485 59.8012L81.7575 63.192H98.181L87.485 59.8012ZM86.7711 59.3139L86.1498 59.117L86.8843 57.4219L86.7711 59.3139ZM76.1471 63.442L75.0776 64.0845C75.1528 64.0724 75.2322 64.0833 75.3 64.1172L77.175 65.1172C77.225 65.1422 77.275 65.1172 77.275 65.1172C77.3 65.1172 77.325 65.0922 77.325 65.0172L77.4266 63.442H76.1471ZM71.8669 66.0133L74.8516 64.2202C74.8148 64.2683 74.7881 64.3268 74.775 64.3922L74.375 67.0172C74.375 67.0422 74.35 67.0672 74.325 67.0922C74.3 67.1172 74.25 67.1172 74.225 67.0922L71.875 66.0172L71.8669 66.0133ZM67.8805 68.4081L71.3492 66.3243L70.4 69.3422C70.4 69.3788 70.3866 69.3886 70.3696 69.401C70.3634 69.4056 70.3567 69.4105 70.35 69.4172H70.25L67.9 68.4172C67.8935 68.4139 67.887 68.4109 67.8805 68.4081ZM64.0243 70.7247L67.4212 68.684L66.8 71.4672C66.8 71.4922 66.775 71.5172 66.75 71.5422H66.675L64.0243 70.7247ZM59.8143 73.2539L63.5177 71.029L62.975 73.7672C62.975 73.8172 62.9 73.8672 62.85 73.8422L59.8143 73.2539ZM59.5382 73.4197L59.4033 73.5007C59.4022 73.5036 59.4014 73.5064 59.4008 73.5092C59.4003 73.5119 59.4 73.5145 59.4 73.5172L59.05 76.1672C59.025 76.2672 58.975 76.3422 58.9 76.4172C58.825 76.4922 58.725 76.4922 58.625 76.4672L55.6 75.8672C55.575 75.8672 55.55 75.8672 55.525 75.8922C55.5 75.9172 55.475 75.9422 55.475 75.9672L55.1492 78.5966L55.1859 78.6522L70.3861 69.6341C70.2991 69.6663 70.212 69.6607 70.125 69.6172L67.775 68.6172C67.7401 68.5998 67.7174 68.6066 67.6984 68.6124L67.6983 68.6124L67.6896 68.615L67.6858 68.6159C67.6821 68.6167 67.6786 68.6172 67.675 68.6172C67.65 68.6172 67.625 68.6422 67.625 68.6922L67 71.4922C66.975 71.5922 66.925 71.6672 66.825 71.7172C66.75 71.7672 66.625 71.7672 66.55 71.7422L63.875 70.9172H63.775C63.75 70.9422 63.725 70.9672 63.725 70.9922L63.175 73.7672C63.125 73.9672 62.95 74.0922 62.75 74.0422L59.5382 73.4197ZM55.773 75.6817L59.1848 73.632L58.85 76.1672C58.85 76.1922 58.825 76.2172 58.8 76.2422C58.775 76.2672 58.75 76.2672 58.725 76.2672L55.773 75.6817ZM53.9479 76.778L55.2729 75.9821L54.9438 78.2856L53.9479 76.778ZM74.2704 67.3296L70.5223 69.5533C70.5726 69.5098 70.609 69.4561 70.625 69.3922L71.6 66.2922C71.6 66.2556 71.6134 66.2458 71.6304 66.2333C71.6338 66.2308 71.6374 66.2282 71.641 66.2253C71.644 66.2229 71.647 66.2202 71.65 66.2172C71.7 66.1922 71.725 66.1922 71.75 66.2172L74.1 67.2922C74.1523 67.3184 74.2115 67.3308 74.2704 67.3296ZM80.3857 63.7015L74.5638 67.1556C74.5796 67.1231 74.5913 67.0857 74.6 67.0422L75 64.4172C75 64.3922 75.025 64.3672 75.05 64.3422C75.075 64.3172 75.125 64.3172 75.15 64.3422L77.025 65.3422C77.15 65.3922 77.275 65.3922 77.375 65.3422C77.475 65.2672 77.55 65.1672 77.55 65.0422L77.6532 63.442H79.6837L80.2 63.6672C80.263 63.6924 80.326 63.7049 80.3857 63.7015ZM79.1105 63.192H77.6694L77.7 62.7172C77.7 62.6922 77.725 62.6672 77.75 62.6422C77.7576 62.6422 77.7674 62.6399 77.7782 62.6374C77.803 62.6316 77.8326 62.6248 77.85 62.6422L79.1105 63.192ZM79.8087 63.192H80.468L80.35 61.0922C80.35 61.021 80.3662 60.9498 80.3986 60.8879L77.9253 62.3737C77.9424 62.3781 77.959 62.3842 77.975 62.3922L79.8087 63.192ZM80.631 63.556C80.6541 63.5213 80.6714 63.4826 80.6829 63.442H80.8231L80.631 63.556ZM80.575 61.0922L80.693 63.192H81.2445L83.0401 62.1267C83 62.1217 82.9609 62.1101 82.925 62.0922L80.725 60.9922C80.675 60.9672 80.625 60.9922 80.625 60.9922C80.6 60.9922 80.575 61.0422 80.575 61.0922ZM86.5941 60.0182L83.428 61.8966C83.4371 61.8724 83.4442 61.8461 83.45 61.8172L83.875 59.0172C83.875 58.9922 83.9 58.9672 83.925 58.9422C83.9326 58.9422 83.9424 58.9399 83.9532 58.9374C83.978 58.9316 84.0076 58.9248 84.025 58.9422L86.5 59.9922C86.5296 60.007 86.5614 60.0152 86.5941 60.0182ZM80.6991 60.7074L83.6306 58.9463C83.6286 58.9532 83.6267 58.9602 83.625 58.9672L83.2 61.7672C83.2 61.7922 83.175 61.8172 83.15 61.8422C83.125 61.8672 83.075 61.8672 83.05 61.8422L80.85 60.7422C80.8064 60.7204 80.7534 60.7081 80.6991 60.7074ZM76.5632 63.192L77.4792 62.6417C77.4764 62.658 77.475 62.6749 77.475 62.6922L77.4427 63.192H76.5632ZM188.5 40.8419H115.6C114.3 40.8419 113.225 39.7669 113.225 38.4669V15.8169C113.225 14.5169 114.3 13.4419 115.6 13.4419H188.5C189.8 13.4419 190.875 14.5169 190.875 15.8169V38.4669C190.875 39.7669 189.825 40.8419 188.5 40.8419ZM115.6 13.6919C114.425 13.6919 113.475 14.6419 113.475 15.8169V38.4669C113.475 39.6419 114.425 40.5919 115.6 40.5919H188.5C189.675 40.5919 190.625 39.6419 190.625 38.4669V15.8169C190.625 14.6419 189.675 13.6919 188.5 13.6919H115.6ZM138.525 86.892H138.525V83.7168H132.2C131.65 83.7168 131.2 83.2668 131.2 82.7168C131.2 82.1668 131.65 81.7168 132.2 81.7168H138.525V75.792C138.525 72.892 136.075 70.542 133.075 70.542C130.075 70.542 127.625 72.892 127.625 75.792V81.7168H128.625C129.175 81.7168 129.625 82.1668 129.625 82.7168C129.625 83.2668 129.175 83.7168 128.625 83.7168H127.625V86.8672H127.65V90.3921H138.525V86.892ZM143.7 128.067V125.342H128.7C128.625 125.342 128.575 125.292 128.575 125.217C128.575 125.142 128.625 125.092 128.7 125.092H143.7V122.342H128.7C128.625 122.342 128.575 122.292 128.575 122.217C128.575 122.142 128.625 122.092 128.7 122.092H143.7V107.842H117.15V117.917H139.55V118.167H116.9V107.592H143.7V94.6421C143.7 93.8171 143.025 93.1421 142.2 93.1421H113.675C112.85 93.1421 112.175 93.8171 112.175 94.6421V131.467C112.175 132.292 112.85 132.967 113.675 132.967H142.2C143.025 132.967 143.7 132.292 143.7 131.467V128.317H128.7C128.625 128.317 128.575 128.267 128.575 128.192C128.575 128.117 128.625 128.067 128.7 128.067H143.7ZM117.725 102.042H127.425C127.9 102.042 128.275 101.667 128.275 101.192V100.292C128.275 99.8169 127.9 99.4419 127.425 99.4419H117.725C117.25 99.4419 116.875 99.8169 116.875 100.292V101.192C116.875 101.667 117.25 102.042 117.725 102.042ZM127.425 106.192H117.725C117.25 106.192 116.875 105.817 116.875 105.342V104.442C116.875 103.967 117.25 103.592 117.725 103.592H127.425C127.9 103.592 128.275 103.967 128.275 104.442V105.342C128.275 105.792 127.9 106.192 127.425 106.192ZM125.375 125.417C125.375 128.441 122.924 130.892 119.9 130.892C116.876 130.892 114.425 128.441 114.425 125.417C114.425 122.393 116.876 119.942 119.9 119.942C122.924 119.942 125.375 122.393 125.375 125.417ZM127.4 111.717C127.4 112.062 127.121 112.342 126.775 112.342C126.43 112.342 126.15 112.062 126.15 111.717C126.15 111.372 126.43 111.092 126.775 111.092C127.121 111.092 127.4 111.372 127.4 111.717ZM126.775 114.667C127.121 114.667 127.4 114.387 127.4 114.042C127.4 113.697 127.121 113.417 126.775 113.417C126.43 113.417 126.15 113.697 126.15 114.042C126.15 114.387 126.43 114.667 126.775 114.667ZM129.825 111.717C129.825 112.062 129.545 112.342 129.2 112.342C128.855 112.342 128.575 112.062 128.575 111.717C128.575 111.372 128.855 111.092 129.2 111.092C129.545 111.092 129.825 111.372 129.825 111.717ZM129.2 114.667C129.545 114.667 129.825 114.387 129.825 114.042C129.825 113.697 129.545 113.417 129.2 113.417C128.855 113.417 128.575 113.697 128.575 114.042C128.575 114.387 128.855 114.667 129.2 114.667ZM132.25 111.717C132.25 112.062 131.97 112.342 131.625 112.342C131.28 112.342 131 112.062 131 111.717C131 111.372 131.28 111.092 131.625 111.092C131.97 111.092 132.25 111.372 132.25 111.717ZM131.625 114.667C131.97 114.667 132.25 114.387 132.25 114.042C132.25 113.697 131.97 113.417 131.625 113.417C131.28 113.417 131 113.697 131 114.042C131 114.387 131.28 114.667 131.625 114.667ZM134.675 111.717C134.675 112.062 134.395 112.342 134.05 112.342C133.705 112.342 133.425 112.062 133.425 111.717C133.425 111.372 133.705 111.092 134.05 111.092C134.395 111.092 134.675 111.372 134.675 111.717ZM134.05 114.667C134.395 114.667 134.675 114.387 134.675 114.042C134.675 113.697 134.395 113.417 134.05 113.417C133.705 113.417 133.425 113.697 133.425 114.042C133.425 114.387 133.705 114.667 134.05 114.667ZM137.125 111.717C137.125 112.062 136.845 112.342 136.5 112.342C136.155 112.342 135.875 112.062 135.875 111.717C135.875 111.372 136.155 111.092 136.5 111.092C136.845 111.092 137.125 111.372 137.125 111.717ZM136.5 114.667C136.845 114.667 137.125 114.387 137.125 114.042C137.125 113.697 136.845 113.417 136.5 113.417C136.155 113.417 135.875 113.697 135.875 114.042C135.875 114.387 136.155 114.667 136.5 114.667ZM139.55 111.717C139.55 112.062 139.27 112.342 138.925 112.342C138.58 112.342 138.3 112.062 138.3 111.717C138.3 111.372 138.58 111.092 138.925 111.092C139.27 111.092 139.55 111.372 139.55 111.717ZM138.925 114.667C139.27 114.667 139.55 114.387 139.55 114.042C139.55 113.697 139.27 113.417 138.925 113.417C138.58 113.417 138.3 113.697 138.3 114.042C138.3 114.387 138.58 114.667 138.925 114.667ZM141.975 111.717C141.975 112.062 141.695 112.342 141.35 112.342C141.004 112.342 140.725 112.062 140.725 111.717C140.725 111.372 141.004 111.092 141.35 111.092C141.695 111.092 141.975 111.372 141.975 111.717ZM141.35 114.667C141.695 114.667 141.975 114.387 141.975 114.042C141.975 113.697 141.695 113.417 141.35 113.417C141.004 113.417 140.725 113.697 140.725 114.042C140.725 114.387 141.004 114.667 141.35 114.667ZM181 71.3419H190.875V43.9419H181V71.3419ZM190.625 71.0919H181.25V44.1919H190.625V71.0919ZM176.4 96.0669H156.075C155.075 96.0669 154.25 95.2419 154.25 94.2419V45.7669C154.25 44.7669 155.075 43.9419 156.075 43.9419H176.4C177.4 43.9419 178.225 44.7669 178.225 45.7669V84.5918H184.6C185.75 84.5918 186.675 85.5168 186.675 86.6668V89.7418C186.675 90.8668 185.725 91.8168 184.6 91.8168H178.225V94.2419C178.225 95.2419 177.4 96.0669 176.4 96.0669ZM178 91.8168V94.2419C178 95.1169 177.3 95.8169 176.425 95.8169H156.1C155.225 95.8169 154.525 95.1169 154.525 94.2419V45.7669C154.525 44.8919 155.225 44.1919 156.1 44.1919H176.425C177.3 44.1919 178 44.8919 178 45.7669V84.5918H165.05C163.9 84.5918 162.975 85.5168 162.975 86.6668V89.7418C162.975 90.8918 163.9 91.8168 165.05 91.8168H178ZM54 27.592L57.075 23.917L58.875 26.417L61.6 24.267V27.592H54ZM55.6504 23.6421C56.3408 23.6421 56.9004 23.0824 56.9004 22.3921C56.9004 21.7017 56.3408 21.1421 55.6504 21.1421C54.96 21.1421 54.4004 21.7017 54.4004 22.3921C54.4004 23.0824 54.96 23.6421 55.6504 23.6421ZM67.2998 27.592L70.3748 23.917L72.1998 26.417L74.8998 24.267V27.592H67.2998ZM68.9746 23.6421C69.6746 23.6421 70.2246 23.0921 70.2246 22.3921C70.2246 21.6921 69.6746 21.1421 68.9746 21.1421C68.2746 21.1421 67.7246 21.6921 67.7246 22.3921C67.7246 23.0921 68.2746 23.6421 68.9746 23.6421ZM80.5996 27.592L83.6746 23.917L85.4996 26.417L88.2246 24.267V27.592H80.5996ZM82.2754 23.6421C82.9657 23.6421 83.5254 23.0824 83.5254 22.3921C83.5254 21.7017 82.9657 21.1421 82.2754 21.1421C81.585 21.1421 81.0254 21.7017 81.0254 22.3921C81.0254 23.0824 81.585 23.6421 82.2754 23.6421ZM93.9248 27.592L96.9998 23.917L98.7998 26.417L101.525 24.267V27.592H93.9248ZM95.5752 23.6421C96.2752 23.6421 96.8252 23.0921 96.8252 22.3921C96.8252 21.6921 96.2752 21.1421 95.5752 21.1421C94.8752 21.1421 94.3252 21.6921 94.3252 22.3921C94.3252 23.0921 94.8752 23.6421 95.5752 23.6421ZM54 40.1169L57.075 36.4419L58.875 38.9419L61.6 36.7919V40.1169H54ZM55.6504 36.1919C56.3504 36.1919 56.9004 35.6419 56.9004 34.9419C56.9004 34.2419 56.3504 33.6919 55.6504 33.6919C54.9504 33.6919 54.4004 34.2419 54.4004 34.9419C54.4254 35.6169 54.9754 36.1919 55.6504 36.1919ZM67.2998 40.1169L70.3748 36.4419L72.1998 38.9419L74.8998 36.7919V40.1169H67.2998ZM68.9746 36.1919C69.6746 36.1919 70.2246 35.6419 70.2246 34.9419C70.2246 34.2419 69.6746 33.6919 68.9746 33.6919C68.2746 33.6919 67.7246 34.2419 67.7246 34.9419C67.7246 35.6169 68.2746 36.1919 68.9746 36.1919ZM80.5996 40.1169L83.6746 36.4419L85.4996 38.9419L88.2246 36.7919V40.1169H80.5996ZM82.2754 36.1919C82.9754 36.1919 83.5254 35.6419 83.5254 34.9419C83.5254 34.2419 82.9754 33.6919 82.2754 33.6919C81.5754 33.6919 81.0254 34.2419 81.0254 34.9419C81.0254 35.6169 81.5754 36.1919 82.2754 36.1919ZM93.9248 40.1169L96.9998 36.4419L98.7998 38.9419L101.525 36.7919V40.1169H93.9248ZM95.5752 36.1919C96.2752 36.1919 96.8252 35.6419 96.8252 34.9419C96.8252 34.2419 96.2752 33.6919 95.5752 33.6919C94.8752 33.6919 94.3252 34.2419 94.3252 34.9419C94.3252 35.6169 94.8752 36.1919 95.5752 36.1919ZM18.9248 49.6921H43.5248C43.5248 49.6921 41.2748 44.3671 38.5248 41.8421C37.9748 41.3171 37.3748 40.9171 36.7748 40.6921C35.8498 40.3671 34.9248 40.0921 33.9498 39.9171C33.5748 39.8421 33.2248 39.7921 32.8498 39.7421L32.8498 39.7421C32.6748 39.7171 32.4998 39.6921 32.3248 39.6921C31.3998 39.6171 30.4498 39.6421 29.5248 39.7671C28.9498 39.8421 28.3998 39.9421 27.8248 40.1171C24.7998 40.9921 21.0998 43.4171 19.8498 46.1921C19.6248 46.6921 19.4498 47.2671 19.2998 47.8171C19.0498 48.8171 18.9248 49.6921 18.9248 49.6921ZM21.325 127.542H90.325C94.8 127.542 98.425 123.917 98.425 119.467C98.425 115.017 94.8 111.392 90.35 111.392H21.325C16.875 111.392 13.25 115.017 13.25 119.467C13.25 123.917 16.875 127.542 21.325 127.542ZM13.5 119.442C13.5 115.142 17 111.617 21.325 111.617H90.35C94.65 111.617 98.175 115.117 98.175 119.442C98.175 123.742 94.675 127.267 90.35 127.267H21.325C17.025 127.267 13.5 123.767 13.5 119.442ZM35.125 100.542C34.75 100.542 34.375 100.517 34.025 100.467C31.775 100.167 29.775 99.0169 28.4 97.2419C27.025 95.4419 26.425 93.2169 26.7 90.9669C27 88.7169 28.15 86.7169 29.925 85.3419C31.725 83.9669 33.95 83.3669 36.2 83.6419C38.45 83.9419 40.45 85.0919 41.825 86.8669C43.2 88.6669 43.8 90.8919 43.525 93.1419C43.2953 95.0214 42.4375 96.7265 41.1266 98.0385L46.7253 105.317C47.1003 105.817 47.0003 106.517 46.5253 106.892C46.3253 107.067 46.1003 107.142 45.8503 107.142C45.5253 107.142 45.1753 106.992 44.9503 106.692L39.3465 99.4069C38.0476 100.159 36.6022 100.542 35.125 100.542ZM35.1 85.8169C33.725 85.8169 32.425 86.2669 31.325 87.1169C30 88.1419 29.15 89.5919 28.95 91.2419C28.725 92.8919 29.175 94.5169 30.2 95.8419C31.225 97.1669 32.675 98.0169 34.325 98.2169C35.975 98.4419 37.6 97.9919 38.925 96.9669C40.25 95.9419 41.1 94.4919 41.3 92.8419C41.525 91.1919 41.075 89.5669 40.05 88.2419C39.025 86.9169 37.575 86.0669 35.925 85.8669C35.65 85.8419 35.375 85.8169 35.1 85.8169ZM183.25 53.2421H188.875C189.175 53.2421 189.425 52.9921 189.425 52.6921V47.0671C189.425 46.7671 189.175 46.5171 188.875 46.5171H183.25C182.95 46.5171 182.7 46.7671 182.7 47.0671V52.6921C182.7 52.9921 182.95 53.2421 183.25 53.2421ZM188.875 61.2919H183.25C182.95 61.2919 182.7 61.0419 182.7 60.7419V55.1169C182.7 54.8169 182.95 54.5669 183.25 54.5669H188.875C189.175 54.5669 189.425 54.8169 189.425 55.1169V60.7419C189.425 61.0419 189.175 61.2919 188.875 61.2919ZM183.25 69.3672H188.875C189.175 69.3672 189.425 69.1172 189.425 68.7922V63.1672C189.425 62.8672 189.175 62.6172 188.875 62.6172H183.25C182.95 62.6172 182.7 62.8672 182.7 63.1672V68.8172C182.7 69.1172 182.95 69.3672 183.25 69.3672ZM98.9498 77.0171H98.2998C98.2248 77.0171 98.1748 76.9671 98.1748 76.8921C98.1748 76.8171 98.2248 76.7671 98.2998 76.7671H98.9498C99.0248 76.7671 99.0748 76.8171 99.0748 76.8921C99.0748 76.9671 99.0248 77.0171 98.9498 77.0171ZM96.5498 77.0171H94.7998C94.7248 77.0171 94.6748 76.9671 94.6748 76.8921C94.6748 76.8171 94.7248 76.7671 94.7998 76.7671H96.5498C96.6248 76.7671 96.6748 76.8171 96.6748 76.8921C96.6748 76.9671 96.6248 77.0171 96.5498 77.0171ZM93.0498 77.0171H91.2998C91.2248 77.0171 91.1748 76.9671 91.1748 76.8921C91.1748 76.8171 91.2248 76.7671 91.2998 76.7671H93.0498C93.1248 76.7671 93.1748 76.8171 93.1748 76.8921C93.1748 76.9671 93.1248 77.0171 93.0498 77.0171ZM89.5498 77.0171H87.7998C87.7248 77.0171 87.6748 76.9671 87.6748 76.8921C87.6748 76.8171 87.7248 76.7671 87.7998 76.7671H89.5498C89.6248 76.7671 89.6748 76.8171 89.6748 76.8921C89.6748 76.9671 89.6248 77.0171 89.5498 77.0171ZM86.0498 77.0171H84.2998C84.2248 77.0171 84.1748 76.9671 84.1748 76.8921C84.1748 76.8171 84.2248 76.7671 84.2998 76.7671H86.0498C86.1248 76.7671 86.1748 76.8171 86.1748 76.8921C86.1748 76.9671 86.1248 77.0171 86.0498 77.0171ZM82.5498 77.0171H80.7998C80.7248 77.0171 80.6748 76.9671 80.6748 76.8921C80.6748 76.8171 80.7248 76.7671 80.7998 76.7671H82.5498C82.6248 76.7671 82.6748 76.8171 82.6748 76.8921C82.6748 76.9671 82.6248 77.0171 82.5498 77.0171ZM79.0498 77.0171H77.2998C77.2248 77.0171 77.1748 76.9671 77.1748 76.8921C77.1748 76.8171 77.2248 76.7671 77.2998 76.7671H79.0498C79.1248 76.7671 79.1748 76.8171 79.1748 76.8921C79.1748 76.9671 79.1248 77.0171 79.0498 77.0171ZM98.2998 80.2671H98.9498C99.0248 80.2671 99.0748 80.2171 99.0748 80.1421C99.0748 80.0671 99.0248 80.0171 98.9498 80.0171H98.2998C98.2248 80.0171 98.1748 80.0671 98.1748 80.1421C98.1748 80.2171 98.2248 80.2671 98.2998 80.2671ZM94.7998 80.2671H96.5498C96.6248 80.2671 96.6748 80.2171 96.6748 80.1421C96.6748 80.0671 96.6248 80.0171 96.5498 80.0171H94.7998C94.7248 80.0171 94.6748 80.0671 94.6748 80.1421C94.6748 80.2171 94.7248 80.2671 94.7998 80.2671ZM91.2998 80.2671H93.0498C93.1248 80.2671 93.1748 80.2171 93.1748 80.1421C93.1748 80.0671 93.1248 80.0171 93.0498 80.0171H91.2998C91.2248 80.0171 91.1748 80.0671 91.1748 80.1421C91.1748 80.2171 91.2248 80.2671 91.2998 80.2671ZM87.7998 80.2671H89.5498C89.6248 80.2671 89.6748 80.2171 89.6748 80.1421C89.6748 80.0671 89.6248 80.0171 89.5498 80.0171H87.7998C87.7248 80.0171 87.6748 80.0671 87.6748 80.1421C87.6748 80.2171 87.7248 80.2671 87.7998 80.2671ZM84.2998 80.2671H86.0498C86.1248 80.2671 86.1748 80.2171 86.1748 80.1421C86.1748 80.0671 86.1248 80.0171 86.0498 80.0171H84.2998C84.2248 80.0171 84.1748 80.0671 84.1748 80.1421C84.1748 80.2171 84.2248 80.2671 84.2998 80.2671ZM80.7998 80.2671H82.5498C82.6248 80.2671 82.6748 80.2171 82.6748 80.1421C82.6748 80.0671 82.6248 80.0171 82.5498 80.0171H80.7998C80.7248 80.0171 80.6748 80.0671 80.6748 80.1421C80.6748 80.2171 80.7248 80.2671 80.7998 80.2671ZM77.2998 80.2671H79.0498C79.1248 80.2671 79.1748 80.2171 79.1748 80.1421C79.1748 80.0671 79.1248 80.0171 79.0498 80.0171H77.2998C77.2248 80.0171 77.1748 80.0671 77.1748 80.1421C77.1748 80.2171 77.2248 80.2671 77.2998 80.2671ZM74.4252 88.3168H70.0752V83.9668H74.4252V88.3168ZM70.3252 88.0668H74.1752V84.2168H70.3252V88.0668ZM76.4746 88.3168H80.8246V83.9668H76.4746V88.3168ZM80.5746 88.0668H76.7246V84.2168H80.5746V88.0668ZM87.1996 88.3168H82.8496V83.9668H87.1996V88.3168ZM83.1246 88.0668H86.9746V84.2168H83.1246V88.0668ZM89.25 88.3168H93.6V83.9668H89.25V88.3168ZM93.375 88.0668H89.525V84.2168H93.375V88.0668ZM100 88.3168H95.6504V83.9668H100V88.3168ZM95.9004 88.0668H99.7504V84.2168H95.9004V88.0668ZM118.975 24.4172H123C123.675 24.4172 124.2 23.8922 124.2 23.2172V19.1922C124.2 18.5422 123.65 17.9922 123 17.9922H118.975C118.325 17.9922 117.775 18.5422 117.775 19.1922V23.2172C117.775 23.8672 118.325 24.4172 118.975 24.4172ZM118.025 19.1922C118.025 18.6672 118.45 18.2422 118.975 18.2422H123C123.525 18.2422 123.95 18.6672 123.95 19.1922V23.2172C123.95 23.7422 123.525 24.1672 123 24.1672H118.975C118.45 24.1672 118.025 23.7422 118.025 23.2172V19.1922Z" fill="#E9AFD8"/>
<path fill-rule="evenodd" clip-rule="evenodd" d="M19.1 16.2419C19.1 16.6837 18.7418 17.0419 18.3 17.0419C17.8582 17.0419 17.5 16.6837 17.5 16.2419C17.5 15.8001 17.8582 15.4419 18.3 15.4419C18.7418 15.4419 19.1 15.8001 19.1 16.2419ZM165.325 17.042H170.6V22.317H165.325V17.042ZM54.0496 20.042H61.5496C62.0746 20.042 62.4996 20.467 62.4996 21.017V27.717C62.4996 28.242 62.0746 28.667 61.5496 28.667H54.0496C53.5246 28.667 53.0996 28.242 53.0996 27.717V20.992C53.0996 20.467 53.5246 20.042 54.0496 20.042ZM56.8996 22.392C56.8996 21.692 56.3496 21.142 55.6496 21.142C54.9746 21.142 54.4246 21.717 54.3996 22.392C54.3996 23.092 54.9496 23.642 55.6496 23.642C56.3496 23.642 56.8996 23.092 56.8996 22.392ZM53.9996 27.592H61.5996V24.267L58.8746 26.417L57.0746 23.917L53.9996 27.592ZM171.025 45.392H161.475C160.875 45.392 160.4 44.917 160.4 44.317V43.417H172.1V44.317C172.1 44.917 171.625 45.392 171.025 45.392ZM133.1 80.1669C135.198 80.1669 136.9 78.4656 136.9 76.3669C136.9 74.2682 135.198 72.5669 133.1 72.5669C131.001 72.5669 129.3 74.2682 129.3 76.3669C129.3 78.4656 131.001 80.1669 133.1 80.1669ZM138.525 83.7168V84.8168L132.75 84.0918C132.525 84.0668 132.325 83.9168 132.225 83.7168H138.525ZM119.875 112.217H121.55L122.4 113.667L121.55 115.142H119.875L119.025 113.667L119.875 112.217ZM132.25 121.467H131.35L130.9 122.267L131.35 123.042H132.25L132.725 122.267L132.25 121.467ZM140.45 124.467H141.35L141.8 125.242L141.35 126.042H140.45L140 125.242L140.45 124.467ZM150.275 111.817C150.897 111.817 151.4 111.313 151.4 110.692C151.4 110.071 150.897 109.567 150.275 109.567C149.654 109.567 149.15 110.071 149.15 110.692C149.15 111.313 149.654 111.817 150.275 111.817ZM151.4 114.817C151.4 115.438 150.897 115.942 150.275 115.942C149.654 115.942 149.15 115.438 149.15 114.817C149.15 114.196 149.654 113.692 150.275 113.692C150.897 113.692 151.4 114.196 151.4 114.817ZM149.125 71.3422H168.675C169.825 71.3422 170.75 70.4172 170.75 69.2672V66.1922C170.75 65.0422 169.825 64.1172 168.675 64.1172H149.125C147.975 64.1172 147.05 65.0422 147.05 66.1922V69.2672C147.05 70.4172 147.975 71.3422 149.125 71.3422ZM184.6 81.5668H165.05C163.9 81.5668 162.975 80.6418 162.975 79.4918V76.4168C162.975 75.2668 163.9 74.3418 165.05 74.3418H184.6C185.75 74.3418 186.675 75.2668 186.675 76.4168V79.4918C186.675 80.6418 185.725 81.5668 184.6 81.5668ZM74.8504 20.042H67.3504C66.8254 20.042 66.4004 20.467 66.4004 20.992V27.717C66.4004 28.242 66.8254 28.667 67.3504 28.667H74.8504C75.3754 28.667 75.8004 28.242 75.8004 27.717V21.017C75.8254 20.467 75.3754 20.042 74.8504 20.042ZM68.9754 21.142C69.6754 21.142 70.2254 21.692 70.2254 22.392C70.2254 23.092 69.6754 23.642 68.9754 23.642C68.2754 23.642 67.7254 23.092 67.7254 22.392C67.7254 21.717 68.2754 21.142 68.9754 21.142ZM74.9004 27.592H67.3004L70.3754 23.917L72.1754 26.417L74.9004 24.267V27.592ZM80.6502 20.042H88.1502C88.7002 20.042 89.1252 20.467 89.1002 21.017V27.717C89.1002 28.242 88.6752 28.667 88.1502 28.667H80.6502C80.1252 28.667 79.7002 28.242 79.7002 27.717V20.992C79.7002 20.467 80.1252 20.042 80.6502 20.042ZM83.5252 22.392C83.5252 21.692 82.9752 21.142 82.2752 21.142C81.5752 21.142 81.0252 21.717 81.0252 22.392C81.0252 23.092 81.5752 23.642 82.2752 23.642C82.9752 23.642 83.5252 23.092 83.5252 22.392ZM80.6252 27.592H88.2002V24.267L85.4752 26.417L83.6752 23.917L80.6252 27.592ZM101.45 20.042H93.95C93.425 20.042 93 20.467 93 20.992V27.717C93 28.242 93.425 28.667 93.95 28.667H101.45C101.975 28.667 102.4 28.242 102.4 27.717V21.017C102.425 20.467 102 20.042 101.45 20.042ZM95.575 21.142C96.275 21.142 96.825 21.692 96.825 22.392C96.825 23.092 96.275 23.642 95.575 23.642C94.875 23.642 94.325 23.092 94.325 22.392C94.325 21.717 94.875 21.142 95.575 21.142ZM101.525 27.592H93.925L97 23.917L98.8 26.417L101.525 24.267V27.592ZM54.0496 32.5669H61.5496C62.0746 32.5669 62.4996 33.0169 62.4996 33.5419V40.2419C62.4996 40.7669 62.0746 41.1919 61.5496 41.1919H54.0496C53.5246 41.1919 53.0996 40.7669 53.0996 40.2419V33.5169C53.0996 32.9919 53.5246 32.5669 54.0496 32.5669ZM56.8996 34.9419C56.8996 34.2419 56.3496 33.6919 55.6496 33.6919C54.9746 33.6919 54.4246 34.2419 54.3996 34.9419C54.3996 35.6419 54.9496 36.1919 55.6496 36.1919C56.3496 36.1919 56.8996 35.6419 56.8996 34.9419ZM53.9996 40.1169H61.5996V36.7919L58.8746 38.9419L57.0746 36.4419L53.9996 40.1169ZM74.8504 32.5669H67.3504C66.8254 32.5669 66.4004 32.9919 66.4004 33.5169V40.2419C66.4004 40.7669 66.8254 41.1919 67.3504 41.1919H74.8504C75.3754 41.1919 75.8004 40.7669 75.8004 40.2419V33.5419C75.8254 33.0169 75.3754 32.5669 74.8504 32.5669ZM68.9754 33.6919C69.6754 33.6919 70.2254 34.2419 70.2254 34.9419C70.2254 35.6419 69.6754 36.1919 68.9754 36.1919C68.2754 36.1919 67.7254 35.6419 67.7254 34.9419C67.7254 34.2419 68.2754 33.6919 68.9754 33.6919ZM74.9004 40.1169H67.3004L70.3754 36.4419L72.1754 38.9419L74.9004 36.7919V40.1169ZM80.6502 32.5669H88.1502C88.7002 32.5669 89.1252 33.0169 89.1002 33.5419V40.2419C89.1002 40.7669 88.6752 41.1919 88.1502 41.1919H80.6502C80.1252 41.1919 79.7002 40.7669 79.7002 40.2419V33.5169C79.7002 32.9919 80.1252 32.5669 80.6502 32.5669ZM83.5252 34.9419C83.5252 34.2419 82.9752 33.6919 82.2752 33.6919C81.5752 33.6919 81.0252 34.2419 81.0252 34.9419C81.0252 35.6419 81.5752 36.1919 82.2752 36.1919C82.9752 36.1919 83.5252 35.6419 83.5252 34.9419ZM80.6252 40.1169H88.2252V36.7919L85.5002 38.9419L83.7002 36.4419L80.6252 40.1169ZM101.45 32.5669H93.95C93.425 32.5669 93 32.9919 93 33.5169V40.2419C93 40.7669 93.425 41.1919 93.95 41.1919H101.45C101.975 41.1919 102.4 40.7669 102.4 40.2419V33.5419C102.425 33.0169 102 32.5669 101.45 32.5669ZM95.575 33.6919C96.275 33.6919 96.825 34.2419 96.825 34.9419C96.825 35.6419 96.275 36.1919 95.575 36.1919C94.875 36.1919 94.325 35.6419 94.325 34.9419C94.325 34.2419 94.875 33.6919 95.575 33.6919ZM101.525 40.1169H93.925L97 36.4419L98.8 38.9419L101.525 36.7919V40.1169ZM33.9998 39.5922L34.2056 38.5022C35.7136 37.7714 36.7248 36.255 36.7248 34.492V28.292H27.7998L27.9908 30.8083C27.2942 30.971 26.7754 31.596 26.7754 32.3421C26.7754 33.1697 27.4137 33.8482 28.2249 33.9121C28.2326 35.2792 29.0293 36.5216 29.9498 37.467L29.9742 37.4914L29.8748 38.0172L29.4248 40.3672C29.2248 41.3922 29.7748 42.3672 30.6748 42.7672C30.8248 42.8422 30.9998 42.8922 31.1748 42.9172C32.3498 43.1422 33.4998 42.3672 33.7248 41.1672L33.9498 39.8922L33.9998 39.5922ZM90.325 126.167H21.325C17.625 126.167 14.625 123.167 14.625 119.467C14.625 115.767 17.625 112.767 21.325 112.767H90.35C94.05 112.767 97.05 115.767 97.05 119.467C97.05 123.167 94.05 126.167 90.325 126.167ZM178.15 17.042H172.875V22.317H178.15V17.042ZM180.4 17.042H185.675V22.317H180.4V17.042ZM170.6 24.4922H165.325V29.7672H170.6V24.4922ZM172.875 24.4922H178.15V29.7672H172.875V24.4922ZM185.675 24.4922H180.4V29.7672H185.675V24.4922ZM165.325 31.9419H170.6V37.2169H165.325V31.9419ZM178.15 31.9419H172.875V37.2169H178.15V31.9419ZM180.4 31.9419H185.675V37.2169H180.4V31.9419ZM87.7504 61.3919C89.3934 61.3919 90.7254 60.0599 90.7254 58.4169C90.7254 56.7738 89.3934 55.4419 87.7504 55.4419C86.1073 55.4419 84.7754 56.7738 84.7754 58.4169C84.7754 60.0599 86.1073 61.3919 87.7504 61.3919Z" fill="#8FE4FF"/>
<path opacity="0.2" d="M18.5244 114.142C13.2244 108.292 11.1994 101.967 12.9744 96.792C14.3744 92.717 18.0244 89.892 22.9994 88.992L23.0494 89.242C18.1744 90.117 14.5744 92.892 13.2244 96.867C11.4994 101.942 13.4994 108.192 18.7244 113.967L18.5244 114.142Z" fill="#76F7FF"/>
<path opacity="0.2" d="M98.9 70.667C96.175 70.667 93.825 68.617 91.175 66.317C87.725 63.317 83.825 59.942 77.775 59.242C69.5 58.267 59.25 62.742 52.825 70.117L52.625 69.942C59.1 62.517 69.425 58.017 77.775 58.992C83.9 59.692 87.825 63.117 91.3 66.142C94.55 68.967 97.1 71.192 100.4 70.217L100.475 70.467C99.95 70.592 99.4 70.667 98.9 70.667Z" fill="#76F7FF"/>
<path opacity="0.2" d="M142.55 70.767L142.325 70.692C142.875 69.142 142.275 66.942 140.55 64.342C135.5 56.692 125.775 51.167 119.85 50.817L119.875 50.567C123.3 50.767 127.45 52.442 131.575 55.242C135.375 57.817 138.725 61.092 140.775 64.192C142.5 66.867 143.125 69.142 142.55 70.767Z" fill="#76F7FF"/>
<path opacity="0.2" d="M112.425 80.342L112.275 80.142C114.625 78.542 117.925 77.617 122.65 77.167L122.675 77.417C118 77.842 114.75 78.767 112.425 80.342Z" fill="#76F7FF"/>
<path d="M104.225 106.167H101.4V104.267H101.025V106.167H87.5996V104.267H87.2496V106.167H80.2246C80.1496 106.167 80.0996 106.217 80.0996 106.292C80.0996 106.367 80.1496 106.417 80.2246 106.417H87.2496V108.192H87.6246V106.417H101.05V108.192H101.425V106.417H104.25C104.325 106.417 104.375 106.367 104.375 106.292C104.375 106.217 104.3 106.167 104.225 106.167Z" fill="#CCCCCC"/>
<path d="M107.775 96.867H101.425V95.092H101.05V96.867H87.6246V95.092H87.2496V96.867H80.2246C80.1496 96.867 80.0996 96.917 80.0996 96.992C80.0996 97.067 80.1496 97.117 80.2246 97.117H87.2496V99.017H87.6246V97.117H101.05V99.017H101.425V97.117H107.775C107.85 97.117 107.9 97.067 107.9 96.992C107.9 96.917 107.85 96.867 107.775 96.867Z" fill="#CCCCCC"/>
<path d="M166.625 104.492H169.45V106.392H169.825V104.492H183.25V106.392H183.625V104.492H190.65C190.725 104.492 190.775 104.442 190.775 104.367C190.775 104.292 190.725 104.242 190.65 104.242H183.625V102.467H183.25V104.242H169.825V102.467H169.45V104.242H166.625C166.55 104.242 166.5 104.292 166.5 104.367C166.5 104.442 166.55 104.492 166.625 104.492Z" fill="#CCCCCC"/>
<path d="M163.1 113.792H169.45V115.567H169.825V113.792H183.25V115.567H183.625V113.792H190.65C190.725 113.792 190.775 113.742 190.775 113.667C190.775 113.592 190.725 113.542 190.65 113.542H183.625V111.667H183.25V113.567H169.825V111.667H169.45V113.567H163.1C163.025 113.567 162.975 113.617 162.975 113.692C162.975 113.767 163.025 113.792 163.1 113.792Z" fill="#CCCCCC"/>
<path d="M119.524 130.192C116.949 130.192 114.824 128.092 114.824 125.492C114.824 122.892 116.924 120.792 119.524 120.792C122.124 120.792 124.224 122.892 124.224 125.492C124.224 128.092 122.124 130.192 119.524 130.192ZM119.524 120.917C116.999 120.917 114.949 122.967 114.949 125.492C114.949 128.017 116.999 130.067 119.524 130.067C122.049 130.067 124.099 128.017 124.099 125.492C124.099 122.967 122.049 120.917 119.524 120.917Z" fill="#001F57"/>
<path d="M119.526 131.092C116.426 131.092 113.926 128.567 113.926 125.492C113.926 122.392 116.451 119.892 119.526 119.892C122.601 119.892 125.126 122.417 125.126 125.492C125.126 128.592 122.626 131.092 119.526 131.092ZM119.526 120.017C116.501 120.017 114.051 122.467 114.051 125.492C114.051 128.517 116.501 130.967 119.526 130.967C122.551 130.967 125.001 128.517 125.001 125.492C125.001 122.467 122.551 120.017 119.526 120.017Z" fill="#001F57"/>
<path d="M119.276 123.617C119.226 123.617 119.176 123.567 119.176 123.517V122.192C119.176 122.142 119.226 122.092 119.276 122.092C119.326 122.092 119.376 122.142 119.376 122.192V123.517C119.376 123.567 119.326 123.617 119.276 123.617Z" fill="#F2F2F2"/>
<path d="M119.276 128.817C119.226 128.817 119.176 128.767 119.176 128.717V127.392C119.176 127.342 119.226 127.292 119.276 127.292C119.326 127.292 119.376 127.342 119.376 127.392V128.717C119.376 128.767 119.326 128.817 119.276 128.817Z" fill="#F2F2F2"/>
<path d="M122.55 125.567H121.225C121.175 125.567 121.125 125.517 121.125 125.467C121.125 125.417 121.175 125.367 121.225 125.367H122.55C122.6 125.367 122.65 125.417 122.65 125.467C122.65 125.517 122.6 125.567 122.55 125.567Z" fill="#F2F2F2"/>
<path d="M117.351 125.567H116.026C115.976 125.567 115.926 125.517 115.926 125.467C115.926 125.417 115.976 125.367 116.026 125.367H117.351C117.401 125.367 117.451 125.417 117.451 125.467C117.451 125.517 117.401 125.567 117.351 125.567Z" fill="#F2F2F2"/>
<path d="M119.5 110.817C119.845 110.817 120.125 110.537 120.125 110.192C120.125 109.847 119.845 109.567 119.5 109.567C119.155 109.567 118.875 109.847 118.875 110.192C118.875 110.537 119.155 110.817 119.5 110.817Z" fill="#F26F63"/>
<path d="M121.926 110.817C122.271 110.817 122.551 110.537 122.551 110.192C122.551 109.847 122.271 109.567 121.926 109.567C121.581 109.567 121.301 109.847 121.301 110.192C121.301 110.537 121.581 110.817 121.926 110.817Z" fill="#53C997"/>
<path d="M154.6 111.817C155.221 111.817 155.725 111.313 155.725 110.692C155.725 110.071 155.221 109.567 154.6 109.567C153.978 109.567 153.475 110.071 153.475 110.692C153.475 111.313 153.978 111.817 154.6 111.817Z" fill="#62C3DE"/>
<path d="M154.6 115.942C155.221 115.942 155.725 115.438 155.725 114.817C155.725 114.196 155.221 113.692 154.6 113.692C153.978 113.692 153.475 114.196 153.475 114.817C153.475 115.438 153.978 115.942 154.6 115.942Z" fill="#62C3DE"/>
<path opacity="0.14" d="M158.399 66.242H148.824V67.067H158.399V66.242Z" fill="#143860"/>
<path opacity="0.14" d="M168.949 68.117H148.824V68.942H168.949V68.117Z" fill="#143860"/>
<path opacity="0.14" d="M184.875 76.492V77.317H164.75V76.492" fill="#143860"/>
<path opacity="0.14" d="M184.875 78.367H164.75V79.192H184.875V78.367Z" fill="#143860"/>
<path opacity="0.14" d="M184.875 86.717V87.542H164.75V86.717" fill="#143860"/>
<path opacity="0.14" d="M184.875 88.592H164.75V89.417H184.875V88.592Z" fill="#143860"/>
<path opacity="0.53" d="M174.65 51.367H157.825C157 51.367 156.35 50.717 156.35 49.892C156.35 49.067 157 48.417 157.825 48.417H174.65C175.475 48.417 176.125 49.067 176.125 49.892C176.15 50.692 175.475 51.367 174.65 51.367Z" fill="#62C3DE"/>
<path d="M160.501 31.717H117.776C116.951 31.717 116.301 31.067 116.301 30.242C116.301 29.417 116.951 28.767 117.776 28.767H160.501C161.326 28.767 161.976 29.417 161.976 30.242C161.976 31.067 161.301 31.717 160.501 31.717Z" fill="#62C3DE"/>
<path d="M160.501 37.142H117.776C116.951 37.142 116.301 36.492 116.301 35.667C116.301 34.842 116.951 34.192 117.776 34.192H160.501C161.326 34.192 161.976 34.842 161.976 35.667C161.976 36.467 161.301 37.142 160.501 37.142Z" fill="#62C3DE"/>
<path d="M100.85 48.342H53.7746C53.3996 48.342 53.0996 48.642 53.0996 49.017C53.0996 49.392 53.3996 49.692 53.7746 49.692H100.85C101.225 49.692 101.525 49.392 101.525 49.017C101.525 48.642 101.225 48.342 100.85 48.342Z" fill="#62C3DE"/>
<path d="M100.85 45.517H53.7746C53.3996 45.517 53.0996 45.817 53.0996 46.192C53.0996 46.567 53.3996 46.867 53.7746 46.867H100.85C101.225 46.867 101.525 46.567 101.525 46.192C101.525 45.817 101.225 45.517 100.85 45.517Z" fill="#62C3DE"/>
<path opacity="0.5" d="M34.1996 38.542L33.9996 39.592C33.6496 39.692 33.2746 39.742 32.8746 39.742C31.5996 39.742 30.5496 39.042 29.8496 37.992L29.9496 37.467C30.0496 37.567 30.1496 37.667 30.2496 37.767C31.0996 38.567 33.5246 38.792 34.1496 38.542C34.1746 38.542 34.1746 38.542 34.1996 38.542Z" fill="#613709"/>
<path d="M37.625 29.492H32.375C31.575 29.492 30.825 29.817 30.3 30.342C30 30.642 29.775 30.992 29.625 31.417C29.5 31.717 29.45 32.067 29.45 32.417C29.45 33.267 28.75 34.842 27.9 34.842H27.425C26.575 34.842 25.875 34.142 25.875 33.292V28.242C25.875 27.742 26.075 27.267 26.425 26.942C26.75 26.617 27.225 26.417 27.725 26.417H37.575C38.375 26.417 39.1 27.017 39.175 27.817C39.25 28.717 38.525 29.492 37.625 29.492Z" fill="#001F57"/>
<path d="M32.5996 32.792C32.8067 32.792 32.9746 32.6241 32.9746 32.417C32.9746 32.2099 32.8067 32.042 32.5996 32.042C32.3925 32.042 32.2246 32.2099 32.2246 32.417C32.2246 32.6241 32.3925 32.792 32.5996 32.792Z" fill="#001F57"/>
<path d="M35.7754 32.792C35.9825 32.792 36.1504 32.6241 36.1504 32.417C36.1504 32.2099 35.9825 32.042 35.7754 32.042C35.5683 32.042 35.4004 32.2099 35.4004 32.417C35.4004 32.6241 35.5683 32.792 35.7754 32.792Z" fill="#001F57"/>
<path d="M34.3008 35.092C34.2758 35.092 34.2758 35.092 34.3008 35.092C34.2258 35.092 34.1758 35.042 34.1758 34.967C34.1758 34.892 34.2508 34.842 34.3008 34.842C34.4008 34.842 34.4758 34.817 34.5258 34.742C34.5758 34.667 34.6258 34.592 34.6008 34.492C34.5758 34.192 34.5508 33.867 34.5008 33.567C34.4508 33.092 34.3758 32.617 34.4008 32.142C34.4008 32.067 34.4508 32.017 34.5258 32.017C34.6008 32.017 34.6508 32.067 34.6508 32.142C34.6508 32.592 34.7008 33.067 34.7508 33.542C34.8008 33.842 34.8258 34.167 34.8508 34.492C34.8508 34.642 34.8008 34.792 34.7008 34.917C34.6008 35.017 34.4508 35.092 34.3008 35.092Z" fill="#001F57"/>
<path d="M32.5255 35.742C32.5255 35.742 32.3505 36.867 33.1005 37.117C33.8505 37.367 34.3505 36.267 34.3505 36.267L32.5255 35.742Z" fill="#F2F2F2"/>
<path opacity="0.5" d="M36.75 29.492C36.725 30.367 33.125 29.992 32.2 30.067C31.3 30.142 29.625 31.417 29.625 31.417C29.775 31.017 30 30.642 30.3 30.342C30.825 29.817 31.575 29.492 32.375 29.492H36.75Z" fill="#613709"/>
<path opacity="0.2" d="M31.1254 42.917C30.9254 42.867 30.7754 42.817 30.6504 42.742C30.8004 42.817 30.9754 42.867 31.1254 42.917C32.3254 43.142 33.4754 42.342 33.7004 41.167L33.9254 39.892C34.2004 39.942 35.0504 40.142 35.5004 40.267C35.5254 40.267 35.8004 44.067 31.1254 42.917Z" fill="#1E1E1E"/>
<path opacity="0.1" d="M97.1008 119.492C97.1008 121.342 96.3508 123.017 95.1258 124.242C93.9008 125.467 92.2258 126.217 90.3758 126.217H21.3758C19.1258 126.217 17.1258 125.092 15.9258 123.392H84.9008C86.7508 123.392 88.4258 122.642 89.6508 121.417C90.8758 120.217 91.6258 118.517 91.6258 116.667C91.6258 115.217 91.1758 113.867 90.3758 112.767H90.4258C94.1008 112.792 97.1008 115.792 97.1008 119.492Z" fill="#1E1E1E"/>
<path opacity="0.1" d="M90.7246 135.667H20.9246C19.7746 135.667 18.8496 134.742 18.8496 133.592C18.8496 132.442 19.7746 131.517 20.9246 131.517H90.7246C91.8746 131.517 92.7996 132.442 92.7996 133.592C92.7996 134.742 91.8746 135.667 90.7246 135.667Z" fill="#1E1E1E"/>
<path opacity="0.2" d="M57.4496 125.017C57.4746 125.042 57.5246 125.042 57.5496 125.067C57.5996 125.092 57.6496 125.117 57.6996 125.117C57.7496 125.117 57.7996 125.117 57.8496 125.117C57.8996 125.117 57.9496 125.092 57.9746 125.042C58.0246 125.017 58.0496 124.992 58.0746 124.942C58.0996 124.917 58.0996 124.892 58.1246 124.842C58.1496 124.767 58.1496 124.717 58.1246 124.642C58.0996 124.617 58.0996 124.592 58.0746 124.542C58.0496 124.492 57.9996 124.442 57.9496 124.417C57.9246 124.392 57.8746 124.392 57.8496 124.367C57.7996 124.342 57.7496 124.317 57.6996 124.317C57.6496 124.317 57.5996 124.317 57.5496 124.317C57.4996 124.317 57.4496 124.342 57.4246 124.392C57.3746 124.417 57.3496 124.442 57.3246 124.492C57.2996 124.517 57.2996 124.542 57.2746 124.592C57.2496 124.667 57.2496 124.717 57.2746 124.792C57.2996 124.817 57.2996 124.842 57.3246 124.892C57.3496 124.942 57.3996 124.967 57.4496 125.017Z" fill="black"/>
<path opacity="0.2" d="M61.2 123.342C61.675 123.342 61.675 122.592 61.2 122.592C60.725 122.592 60.725 123.342 61.2 123.342Z" fill="black"/>
<path opacity="0.2" d="M66.6746 125.042C67.1496 125.042 67.1496 124.292 66.6746 124.292C66.1996 124.292 66.1996 125.042 66.6746 125.042Z" fill="black"/>
<path opacity="0.2" d="M78.6992 124.317C79.1742 124.317 79.1742 123.567 78.6992 123.567C78.1992 123.567 78.1992 124.317 78.6992 124.317Z" fill="black"/>
<path opacity="0.2" d="M81.1746 125.442C81.6496 125.442 81.6496 124.692 81.1746 124.692C80.6996 124.692 80.6996 125.442 81.1746 125.442Z" fill="black"/>
<path opacity="0.2" d="M75.7 124.517C76.175 124.517 76.175 123.767 75.7 123.767C75.225 123.767 75.225 124.517 75.7 124.517Z" fill="black"/>
<path opacity="0.2" d="M79.2505 121.642C79.7255 121.642 79.7255 120.892 79.2505 120.892C78.7754 120.892 78.7504 121.642 79.2505 121.642Z" fill="black"/>
<path opacity="0.2" d="M82.3758 120.292C82.8508 120.292 82.8508 119.542 82.3758 119.542C81.9008 119.542 81.9008 120.292 82.3758 120.292Z" fill="black"/>
<path opacity="0.2" d="M82.8008 122.817C83.2758 122.817 83.2758 122.067 82.8008 122.067C82.3008 122.067 82.3008 122.817 82.8008 122.817Z" fill="black"/>
<path opacity="0.2" d="M68.6758 123.617C69.1508 123.617 69.1508 122.867 68.6758 122.867C68.1758 122.867 68.1758 123.617 68.6758 123.617Z" fill="black"/>
<path opacity="0.2" d="M73.3496 122.967C73.8246 122.967 73.8246 122.217 73.3496 122.217C72.8496 122.217 72.8496 122.967 73.3496 122.967Z" fill="black"/>
<path opacity="0.2" d="M72.2508 125.242C72.7258 125.242 72.7258 124.492 72.2508 124.492C71.7758 124.492 71.7758 125.242 72.2508 125.242Z" fill="black"/>
<path opacity="0.2" d="M85.2996 124.767C85.7746 124.767 85.7746 124.017 85.2996 124.017C84.8246 124.017 84.8246 124.767 85.2996 124.767Z" fill="black"/>
<path opacity="0.2" d="M86.075 121.392C86.55 121.392 86.55 120.642 86.075 120.642C85.6 120.642 85.6 121.392 86.075 121.392Z" fill="black"/>
<path opacity="0.2" d="M89.6746 121.967C90.1496 121.967 90.1496 121.217 89.6746 121.217C89.1996 121.217 89.1996 121.967 89.6746 121.967Z" fill="black"/>
<path opacity="0.2" d="M92.5496 119.942C93.0246 119.942 93.0246 119.192 92.5496 119.192C92.0746 119.192 92.0746 119.942 92.5496 119.942Z" fill="black"/>
<path opacity="0.2" d="M95.7996 119.642C96.2746 119.642 96.2746 118.892 95.7996 118.892C95.3246 118.892 95.3246 119.642 95.7996 119.642Z" fill="black"/>
<path opacity="0.2" d="M89.6746 124.317C90.1496 124.317 90.1496 123.567 89.6746 123.567C89.1996 123.567 89.1996 124.317 89.6746 124.317Z" fill="black"/>
<path opacity="0.2" d="M92.7996 124.717C93.2746 124.717 93.2746 123.967 92.7996 123.967C92.3246 123.967 92.3246 124.717 92.7996 124.717Z" fill="black"/>
<path opacity="0.2" d="M89.0008 119.292C89.4758 119.292 89.4758 118.542 89.0008 118.542C88.5258 118.542 88.5258 119.292 89.0008 119.292Z" fill="black"/>
<path opacity="0.2" d="M95 117.617C95.475 117.617 95.475 116.867 95 116.867C94.5 116.867 94.5 117.617 95 117.617Z" fill="black"/>
<path opacity="0.2" d="M94.6258 121.867C95.1008 121.867 95.1008 121.117 94.6258 121.117C94.1508 121.117 94.1508 121.867 94.6258 121.867Z" fill="black"/>
<path opacity="0.2" d="M60.8496 125.442C61.3246 125.442 61.3246 124.692 60.8496 124.692C60.3496 124.692 60.3496 125.442 60.8496 125.442Z" fill="black"/>
<path opacity="0.2" d="M64.4492 124.767C64.9242 124.767 64.9242 124.017 64.4492 124.017C63.9492 124.017 63.9492 124.767 64.4492 124.767Z" fill="black"/>
<path opacity="0.4" d="M165.425 21.6918L165.45 21.7168C165.475 21.7168 165.475 21.7418 165.5 21.7418C165.525 21.7418 165.525 21.7418 165.55 21.7418C165.575 21.7418 165.575 21.7418 165.6 21.7168C165.625 21.7168 165.625 21.6918 165.625 21.6918C165.625 21.6918 165.625 21.6668 165.65 21.6668C165.65 21.6418 165.65 21.6168 165.65 21.5918C165.65 21.5918 165.65 21.5668 165.625 21.5668C165.625 21.5418 165.6 21.5418 165.575 21.5168L165.55 21.4918C165.525 21.4918 165.525 21.4668 165.5 21.4668C165.475 21.4668 165.475 21.4668 165.45 21.4668C165.425 21.4668 165.425 21.4668 165.4 21.4918C165.375 21.4918 165.375 21.5168 165.375 21.5168C165.375 21.5168 165.375 21.5418 165.35 21.5418C165.35 21.5668 165.35 21.5918 165.35 21.6168C165.35 21.6168 165.35 21.6418 165.375 21.6418C165.4 21.6668 165.425 21.6668 165.425 21.6918Z" fill="#262626"/>
<path opacity="0.4" d="M167.424 22.0919C167.599 22.0919 167.599 21.8169 167.424 21.8169C167.249 21.8419 167.249 22.0919 167.424 22.0919Z" fill="#262626"/>
<path opacity="0.4" d="M168.725 21.692C168.9 21.692 168.9 21.417 168.725 21.417C168.55 21.442 168.55 21.692 168.725 21.692Z" fill="#262626"/>
<path opacity="0.4" d="M173.125 22.1168C173.3 22.1168 173.3 21.8418 173.125 21.8418C172.95 21.8668 172.95 22.1168 173.125 22.1168Z" fill="#262626"/>
<path opacity="0.4" d="M173.875 21.8419C174.05 21.8419 174.05 21.5669 173.875 21.5669C173.7 21.5919 173.7 21.8419 173.875 21.8419Z" fill="#262626"/>
<path opacity="0.4" d="M169.901 20.2672C170.076 20.2672 170.076 19.9922 169.901 19.9922C169.726 19.9922 169.726 20.2672 169.901 20.2672Z" fill="#262626"/>
<path opacity="0.4" d="M175.25 21.3668C175.425 21.3668 175.425 21.0918 175.25 21.0918C175.075 21.0918 175.075 21.3668 175.25 21.3668Z" fill="#262626"/>
<path opacity="0.4" d="M170.026 21.2169C170.201 21.2169 170.201 20.9419 170.026 20.9419C169.851 20.9669 169.851 21.2169 170.026 21.2169Z" fill="#262626"/>
<path opacity="0.4" d="M169.401 21.0421C169.576 21.0421 169.576 20.7671 169.401 20.7671C169.226 20.7671 169.226 21.0421 169.401 21.0421Z" fill="#262626"/>
<path opacity="0.4" d="M170.15 19.317C170.325 19.317 170.325 19.042 170.15 19.042C170 19.067 170 19.317 170.15 19.317Z" fill="#262626"/>
<path opacity="0.4" d="M175.125 21.9918C175.3 21.9918 175.3 21.7168 175.125 21.7168C174.95 21.7168 174.95 21.9918 175.125 21.9918Z" fill="#262626"/>
<path opacity="0.4" d="M169.549 22.1168C169.724 22.1168 169.724 21.8418 169.549 21.8418C169.374 21.8668 169.374 22.1168 169.549 22.1168Z" fill="#262626"/>
<path opacity="0.4" d="M177.6 21.2169C177.775 21.2169 177.775 20.9419 177.6 20.9419C177.425 20.9669 177.425 21.2169 177.6 21.2169Z" fill="#262626"/>
<path opacity="0.4" d="M175.95 21.2169C176.125 21.2169 176.125 20.9419 175.95 20.9419C175.775 20.9669 175.775 21.2169 175.95 21.2169Z" fill="#262626"/>
<path opacity="0.4" d="M170.026 21.8419C170.201 21.8419 170.201 21.5669 170.026 21.5669C169.851 21.5669 169.851 21.8419 170.026 21.8419Z" fill="#262626"/>
<path opacity="0.4" d="M176.901 21.442C177.076 21.442 177.076 21.167 176.901 21.167C176.726 21.167 176.726 21.442 176.901 21.442Z" fill="#262626"/>
<path opacity="0.4" d="M177.45 21.8668C177.625 21.8668 177.625 21.5918 177.45 21.5918C177.3 21.5918 177.3 21.8668 177.45 21.8668Z" fill="#262626"/>
<path opacity="0.4" d="M176.075 21.9918C176.25 21.9918 176.25 21.7168 176.075 21.7168C175.9 21.7168 175.9 21.9918 176.075 21.9918Z" fill="#262626"/>
<path opacity="0.4" d="M180.975 36.7921C181.15 36.7921 181.15 36.5171 180.975 36.5171C180.8 36.5171 180.8 36.7921 180.975 36.7921Z" fill="#262626"/>
<path opacity="0.4" d="M181.726 36.5172C181.901 36.5172 181.901 36.2422 181.726 36.2422C181.576 36.2422 181.576 36.5172 181.726 36.5172Z" fill="#262626"/>
<path opacity="0.4" d="M183.125 36.0172C183.3 36.0172 183.3 35.7422 183.125 35.7422C182.95 35.7672 182.95 36.0172 183.125 36.0172Z" fill="#262626"/>
<path opacity="0.4" d="M183 36.6671C183.175 36.6671 183.175 36.3921 183 36.3921C182.825 36.3921 182.825 36.6671 183 36.6671Z" fill="#262626"/>
<path opacity="0.4" d="M185.45 35.8922C185.625 35.8922 185.625 35.6172 185.45 35.6172C185.275 35.6172 185.275 35.8922 185.45 35.8922Z" fill="#262626"/>
<path opacity="0.4" d="M183.799 35.8922C183.974 35.8922 183.974 35.6172 183.799 35.6172C183.624 35.6172 183.624 35.8922 183.799 35.8922Z" fill="#262626"/>
<path opacity="0.4" d="M184.749 36.0919C184.924 36.0919 184.924 35.8169 184.749 35.8169C184.599 35.8419 184.599 36.0919 184.749 36.0919Z" fill="#262626"/>
<path opacity="0.4" d="M185.325 36.5172C185.5 36.5172 185.5 36.2422 185.325 36.2422C185.15 36.2672 185.15 36.5172 185.325 36.5172Z" fill="#262626"/>
<path opacity="0.4" d="M183.924 36.6671C184.099 36.6671 184.099 36.3921 183.924 36.3921C183.749 36.3921 183.749 36.6671 183.924 36.6671Z" fill="#262626"/>
<path opacity="0.4" d="M166.651 21.8419C166.826 21.8419 166.826 21.5669 166.651 21.5669C166.476 21.5919 166.476 21.8419 166.651 21.8419Z" fill="#262626"/>
<path opacity="0.4" d="M167.924 21.6168C168.099 21.6168 168.099 21.3418 167.924 21.3418C167.749 21.3418 167.749 21.6168 167.924 21.6168Z" fill="#262626"/>
<path opacity="0.21" d="M165.425 29.0922L165.45 29.1172C165.475 29.1172 165.475 29.1422 165.5 29.1422C165.525 29.1422 165.525 29.1422 165.55 29.1422C165.575 29.1422 165.575 29.1422 165.6 29.1172C165.625 29.1172 165.625 29.0922 165.625 29.0922C165.625 29.0922 165.625 29.0672 165.65 29.0672C165.65 29.0422 165.65 29.0172 165.65 28.9922C165.65 28.9922 165.65 28.9672 165.625 28.9672C165.625 28.9422 165.6 28.9422 165.575 28.9172L165.55 28.8922C165.525 28.8922 165.525 28.8672 165.5 28.8672C165.475 28.8672 165.475 28.8672 165.45 28.8672C165.425 28.8672 165.425 28.8672 165.4 28.8922C165.375 28.8922 165.375 28.9172 165.375 28.9172C165.375 28.9172 165.375 28.9422 165.35 28.9422C165.35 28.9672 165.35 28.9922 165.35 29.0172C165.35 29.0172 165.35 29.0422 165.375 29.0422C165.4 29.0672 165.425 29.0922 165.425 29.0922Z" fill="#262626"/>
<path opacity="0.21" d="M167.424 29.5172C167.599 29.5172 167.599 29.2422 167.424 29.2422C167.249 29.2422 167.249 29.5172 167.424 29.5172Z" fill="#262626"/>
<path opacity="0.21" d="M168.725 29.1168C168.9 29.1168 168.9 28.8418 168.725 28.8418C168.55 28.8418 168.55 29.1168 168.725 29.1168Z" fill="#262626"/>
<path opacity="0.21" d="M173.125 29.5421C173.3 29.5421 173.3 29.2671 173.125 29.2671C172.95 29.2671 172.95 29.5421 173.125 29.5421Z" fill="#262626"/>
<path opacity="0.21" d="M173.875 29.2672C174.05 29.2672 174.05 28.9922 173.875 28.9922C173.7 28.9922 173.7 29.2672 173.875 29.2672Z" fill="#262626"/>
<path opacity="0.21" d="M169.901 27.6671C170.076 27.6671 170.076 27.3921 169.901 27.3921C169.726 27.4171 169.726 27.6671 169.901 27.6671Z" fill="#262626"/>
<path opacity="0.21" d="M173.75 28.5172C173.925 28.5172 173.925 28.2422 173.75 28.2422C173.575 28.2422 173.575 28.5172 173.75 28.5172Z" fill="#262626"/>
<path opacity="0.21" d="M175.25 28.7672C175.425 28.7672 175.425 28.4922 175.25 28.4922C175.075 28.5172 175.075 28.7672 175.25 28.7672Z" fill="#262626"/>
<path opacity="0.21" d="M170.026 28.6422C170.201 28.6422 170.201 28.3672 170.026 28.3672C169.851 28.3672 169.851 28.6422 170.026 28.6422Z" fill="#262626"/>
<path opacity="0.21" d="M169.401 28.4669C169.576 28.4669 169.576 28.1919 169.401 28.1919C169.226 28.1919 169.226 28.4669 169.401 28.4669Z" fill="#262626"/>
<path opacity="0.21" d="M170.15 26.7418C170.325 26.7418 170.325 26.4668 170.15 26.4668C170 26.4668 170 26.7418 170.15 26.7418Z" fill="#262626"/>
<path opacity="0.21" d="M175.125 29.4171C175.3 29.4171 175.3 29.1421 175.125 29.1421C174.95 29.1421 174.95 29.4171 175.125 29.4171Z" fill="#262626"/>
<path opacity="0.21" d="M169.549 29.5421C169.724 29.5421 169.724 29.2671 169.549 29.2671C169.374 29.2671 169.374 29.5421 169.549 29.5421Z" fill="#262626"/>
<path opacity="0.21" d="M177.6 28.6422C177.775 28.6422 177.775 28.3672 177.6 28.3672C177.425 28.3672 177.425 28.6422 177.6 28.6422Z" fill="#262626"/>
<path opacity="0.21" d="M175.95 28.6422C176.125 28.6422 176.125 28.3672 175.95 28.3672C175.775 28.3672 175.775 28.6422 175.95 28.6422Z" fill="#262626"/>
<path opacity="0.21" d="M170.026 29.2418C170.201 29.2418 170.201 28.9668 170.026 28.9668C169.851 28.9668 169.851 29.2418 170.026 29.2418Z" fill="#262626"/>
<path opacity="0.21" d="M176.901 28.8419C177.076 28.8419 177.076 28.5669 176.901 28.5669C176.726 28.5919 176.726 28.8419 176.901 28.8419Z" fill="#262626"/>
<path opacity="0.21" d="M177.45 29.2672C177.625 29.2672 177.625 28.9922 177.45 28.9922C177.3 29.0172 177.3 29.2672 177.45 29.2672Z" fill="#262626"/>
<path opacity="0.21" d="M176.075 29.4171C176.25 29.4171 176.25 29.1421 176.075 29.1421C175.9 29.1421 175.9 29.4171 176.075 29.4171Z" fill="#262626"/>
<path opacity="0.21" d="M177.674 27.942C177.849 27.942 177.849 27.667 177.674 27.667C177.499 27.667 177.499 27.942 177.674 27.942Z" fill="#262626"/>
<path opacity="0.21" d="M166.651 29.2672C166.826 29.2672 166.826 28.9922 166.651 28.9922C166.476 28.9922 166.476 29.2672 166.651 29.2672Z" fill="#262626"/>
<path opacity="0.21" d="M167.924 29.0172C168.099 29.0172 168.099 28.7422 167.924 28.7422C167.749 28.7422 167.749 29.0172 167.924 29.0172Z" fill="#262626"/>
<path opacity="0.4" d="M165.425 36.517L165.45 36.542C165.475 36.542 165.475 36.567 165.5 36.567C165.525 36.567 165.525 36.567 165.55 36.567C165.575 36.567 165.575 36.567 165.6 36.542C165.625 36.542 165.625 36.517 165.625 36.517C165.625 36.517 165.625 36.492 165.65 36.492C165.65 36.467 165.65 36.442 165.65 36.417C165.65 36.417 165.65 36.392 165.625 36.392C165.625 36.367 165.6 36.367 165.575 36.342L165.55 36.317C165.525 36.317 165.525 36.292 165.5 36.292C165.475 36.292 165.475 36.292 165.45 36.292C165.425 36.292 165.425 36.292 165.4 36.317C165.375 36.317 165.375 36.342 165.375 36.342C165.375 36.342 165.375 36.367 165.35 36.367C165.35 36.392 165.35 36.417 165.35 36.442C165.35 36.442 165.35 36.467 165.375 36.467C165.4 36.492 165.425 36.517 165.425 36.517Z" fill="#262626"/>
<path opacity="0.4" d="M167.424 36.9171C167.599 36.9171 167.599 36.6421 167.424 36.6421C167.249 36.6671 167.249 36.9171 167.424 36.9171Z" fill="#262626"/>
<path opacity="0.4" d="M168.725 36.5172C168.9 36.5172 168.9 36.2422 168.725 36.2422C168.55 36.2672 168.55 36.5172 168.725 36.5172Z" fill="#262626"/>
<path opacity="0.4" d="M173.125 36.9669C173.3 36.9669 173.3 36.6919 173.125 36.6919C172.95 36.6919 172.95 36.9669 173.125 36.9669Z" fill="#262626"/>
<path opacity="0.4" d="M173.875 36.6671C174.05 36.6671 174.05 36.3921 173.875 36.3921C173.7 36.4171 173.7 36.6671 173.875 36.6671Z" fill="#262626"/>
<path opacity="0.4" d="M169.901 35.0919C170.076 35.0919 170.076 34.8169 169.901 34.8169C169.726 34.8169 169.726 35.0919 169.901 35.0919Z" fill="#262626"/>
<path opacity="0.4" d="M173.75 35.9171C173.925 35.9171 173.925 35.6421 173.75 35.6421C173.575 35.6421 173.575 35.9171 173.75 35.9171Z" fill="#262626"/>
<path opacity="0.4" d="M175.25 36.192C175.425 36.192 175.425 35.917 175.25 35.917C175.075 35.917 175.075 36.192 175.25 36.192Z" fill="#262626"/>
<path opacity="0.4" d="M170.026 36.0421C170.201 36.0421 170.201 35.7671 170.026 35.7671C169.851 35.7921 169.851 36.0421 170.026 36.0421Z" fill="#262626"/>
<path opacity="0.4" d="M169.401 35.8668C169.576 35.8668 169.576 35.5918 169.401 35.5918C169.226 35.5918 169.226 35.8668 169.401 35.8668Z" fill="#262626"/>
<path opacity="0.4" d="M170.15 34.1671C170.325 34.1671 170.325 33.8921 170.15 33.8921C170 33.8921 170 34.1671 170.15 34.1671Z" fill="#262626"/>
<path opacity="0.4" d="M175.125 36.817C175.3 36.817 175.3 36.542 175.125 36.542C174.95 36.567 174.95 36.817 175.125 36.817Z" fill="#262626"/>
<path opacity="0.4" d="M169.549 36.9669C169.724 36.9669 169.724 36.6919 169.549 36.6919C169.374 36.6919 169.374 36.9669 169.549 36.9669Z" fill="#262626"/>
<path opacity="0.4" d="M177.6 36.0421C177.775 36.0421 177.775 35.7671 177.6 35.7671C177.425 35.7921 177.425 36.0421 177.6 36.0421Z" fill="#262626"/>
<path opacity="0.4" d="M175.95 36.0421C176.125 36.0421 176.125 35.7671 175.95 35.7671C175.775 35.7921 175.775 36.0421 175.95 36.0421Z" fill="#262626"/>
<path opacity="0.4" d="M170.026 36.6671C170.201 36.6671 170.201 36.3921 170.026 36.3921C169.851 36.3921 169.851 36.6671 170.026 36.6671Z" fill="#262626"/>
<path opacity="0.4" d="M176.901 36.2672C177.076 36.2672 177.076 35.9922 176.901 35.9922C176.726 35.9922 176.726 36.2672 176.901 36.2672Z" fill="#262626"/>
<path opacity="0.4" d="M177.45 36.692C177.625 36.692 177.625 36.417 177.45 36.417C177.3 36.417 177.3 36.692 177.45 36.692Z" fill="#262626"/>
<path opacity="0.4" d="M176.075 36.817C176.25 36.817 176.25 36.542 176.075 36.542C175.9 36.567 175.9 36.817 176.075 36.817Z" fill="#262626"/>
<path opacity="0.4" d="M180.85 29.4918C181.025 29.4918 181.025 29.2168 180.85 29.2168C180.675 29.2168 180.675 29.4918 180.85 29.4918Z" fill="#262626"/>
<path opacity="0.4" d="M181.6 29.2169C181.775 29.2169 181.775 28.9419 181.6 28.9419C181.425 28.9419 181.425 29.2169 181.6 29.2169Z" fill="#262626"/>
<path opacity="0.4" d="M181.475 28.442C181.65 28.442 181.65 28.167 181.475 28.167C181.3 28.192 181.3 28.442 181.475 28.442Z" fill="#262626"/>
<path opacity="0.4" d="M183 28.7169C183.175 28.7169 183.175 28.4419 183 28.4419C182.825 28.4419 182.825 28.7169 183 28.7169Z" fill="#262626"/>
<path opacity="0.4" d="M182.851 29.3419C183.026 29.3419 183.026 29.0669 182.851 29.0669C182.701 29.0919 182.701 29.3419 182.851 29.3419Z" fill="#262626"/>
<path opacity="0.4" d="M185.325 28.5919C185.5 28.5919 185.5 28.3169 185.325 28.3169C185.15 28.3169 185.15 28.5919 185.325 28.5919Z" fill="#262626"/>
<path opacity="0.4" d="M183.674 28.5919C183.849 28.5919 183.849 28.3169 183.674 28.3169C183.499 28.3169 183.499 28.5919 183.674 28.5919Z" fill="#262626"/>
<path opacity="0.4" d="M184.625 28.7921C184.8 28.7921 184.8 28.5171 184.625 28.5171C184.45 28.5421 184.45 28.7921 184.625 28.7921Z" fill="#262626"/>
<path opacity="0.4" d="M185.2 29.2169C185.375 29.2169 185.375 28.9419 185.2 28.9419C185.025 28.9419 185.025 29.2169 185.2 29.2169Z" fill="#262626"/>
<path opacity="0.4" d="M183.799 29.3419C183.974 29.3419 183.974 29.0669 183.799 29.0669C183.624 29.0919 183.624 29.3419 183.799 29.3419Z" fill="#262626"/>
<path opacity="0.4" d="M180.85 21.942C181.025 21.942 181.025 21.667 180.85 21.667C180.675 21.667 180.675 21.942 180.85 21.942Z" fill="#262626"/>
<path opacity="0.4" d="M181.6 21.6671C181.775 21.6671 181.775 21.3921 181.6 21.3921C181.425 21.3921 181.425 21.6671 181.6 21.6671Z" fill="#262626"/>
<path opacity="0.4" d="M181.475 20.9171C181.65 20.9171 181.65 20.6421 181.475 20.6421C181.3 20.6421 181.3 20.9171 181.475 20.9171Z" fill="#262626"/>
<path opacity="0.4" d="M183 21.1671C183.175 21.1671 183.175 20.8921 183 20.8921C182.825 20.9171 182.825 21.1671 183 21.1671Z" fill="#262626"/>
<path opacity="0.4" d="M182.851 21.817C183.026 21.817 183.026 21.542 182.851 21.542C182.701 21.542 182.701 21.817 182.851 21.817Z" fill="#262626"/>
<path opacity="0.4" d="M185.325 21.0421C185.5 21.0421 185.5 20.7671 185.325 20.7671C185.15 20.7671 185.15 21.0421 185.325 21.0421Z" fill="#262626"/>
<path opacity="0.4" d="M183.674 21.0421C183.849 21.0421 183.849 20.7671 183.674 20.7671C183.499 20.7671 183.499 21.0421 183.674 21.0421Z" fill="#262626"/>
<path opacity="0.4" d="M184.625 21.2418C184.8 21.2418 184.8 20.9668 184.625 20.9668C184.45 20.9918 184.45 21.2418 184.625 21.2418Z" fill="#262626"/>
<path opacity="0.4" d="M185.2 21.6671C185.375 21.6671 185.375 21.3921 185.2 21.3921C185.025 21.4171 185.025 21.6671 185.2 21.6671Z" fill="#262626"/>
<path opacity="0.4" d="M183.799 21.817C183.974 21.817 183.974 21.542 183.799 21.542C183.624 21.542 183.624 21.817 183.799 21.817Z" fill="#262626"/>
<path opacity="0.4" d="M166.651 36.6671C166.826 36.6671 166.826 36.3921 166.651 36.3921C166.476 36.4171 166.476 36.6671 166.651 36.6671Z" fill="#262626"/>
<path opacity="0.4" d="M167.924 36.442C168.099 36.442 168.099 36.167 167.924 36.167C167.749 36.167 167.749 36.442 167.924 36.442Z" fill="#262626"/>
<path opacity="0.3" d="M158.752 132.017C158.777 132.042 158.827 132.042 158.852 132.067C158.902 132.092 158.952 132.117 159.002 132.117C159.052 132.117 159.102 132.117 159.152 132.117C159.202 132.117 159.252 132.092 159.277 132.042C159.327 132.017 159.352 131.992 159.377 131.942C159.402 131.917 159.402 131.892 159.427 131.842C159.452 131.767 159.452 131.717 159.427 131.642C159.402 131.617 159.402 131.592 159.377 131.542C159.352 131.492 159.302 131.442 159.252 131.417C159.227 131.392 159.177 131.392 159.152 131.367C159.102 131.342 159.052 131.317 159.002 131.317C158.952 131.317 158.902 131.317 158.852 131.317C158.802 131.317 158.752 131.342 158.727 131.392C158.677 131.417 158.652 131.442 158.627 131.492C158.602 131.517 158.602 131.542 158.577 131.592C158.552 131.667 158.552 131.717 158.577 131.792C158.602 131.817 158.602 131.842 158.627 131.892C158.652 131.942 158.677 131.992 158.752 132.017Z" fill="black"/>
<path opacity="0.3" d="M165.802 131.567C166.277 131.567 166.277 130.817 165.802 130.817C165.327 130.817 165.327 131.567 165.802 131.567Z" fill="black"/>
<path opacity="0.3" d="M157.477 133.567C157.952 133.567 157.952 132.817 157.477 132.817C156.977 132.817 156.977 133.567 157.477 133.567Z" fill="black"/>
<path opacity="0.3" d="M168.501 131.192C168.976 131.192 168.976 130.442 168.501 130.442C168.026 130.442 168.026 131.192 168.501 131.192Z" fill="black"/>
<path opacity="0.3" d="M169.176 133.442C169.651 133.442 169.651 132.692 169.176 132.692C168.676 132.692 168.676 133.442 169.176 133.442Z" fill="black"/>
<path opacity="0.3" d="M164.027 133.267C164.502 133.267 164.502 132.517 164.027 132.517C163.527 132.517 163.527 133.267 164.027 133.267Z" fill="black"/>
<path opacity="0.3" d="M176.326 118.267C176.801 118.267 176.801 117.517 176.326 117.517C175.826 117.517 175.826 118.267 176.326 118.267Z" fill="black"/>
<path opacity="0.3" d="M174.776 122.542C175.251 122.542 175.251 121.792 174.776 121.792C174.301 121.792 174.301 122.542 174.776 122.542Z" fill="black"/>
<path opacity="0.3" d="M172.801 130.292C173.276 130.292 173.276 129.542 172.801 129.542C172.301 129.542 172.301 130.292 172.801 130.292Z" fill="black"/>
<path opacity="0.3" d="M173.677 127.692C174.152 127.692 174.152 126.942 173.677 126.942C173.202 126.942 173.202 127.692 173.677 127.692Z" fill="black"/>
<path opacity="0.3" d="M163.202 132.092C163.677 132.092 163.677 131.342 163.202 131.342C162.727 131.342 162.702 132.092 163.202 132.092Z" fill="black"/>
<path opacity="0.3" d="M160.576 133.642C161.051 133.642 161.051 132.892 160.576 132.892C160.076 132.892 160.076 133.642 160.576 133.642Z" fill="black"/>
<path opacity="0.3" d="M166.625 133.067C167.1 133.067 167.1 132.317 166.625 132.317C166.125 132.317 166.125 133.067 166.625 133.067Z" fill="black"/>
<path opacity="0.3" d="M173.427 125.267C173.902 125.267 173.902 124.517 173.427 124.517C172.952 124.517 172.952 125.267 173.427 125.267Z" fill="black"/>
<path opacity="0.3" d="M170.552 129.417C171.027 129.417 171.027 128.667 170.552 128.667C170.077 128.667 170.077 129.417 170.552 129.417Z" fill="black"/>
<path opacity="0.3" d="M172.427 133.567C172.902 133.567 172.902 132.817 172.427 132.817C171.952 132.817 171.952 133.567 172.427 133.567Z" fill="black"/>
<path opacity="0.3" d="M176.677 127.092C177.152 127.092 177.152 126.342 176.677 126.342C176.202 126.342 176.202 127.092 176.677 127.092Z" fill="black"/>
<path opacity="0.3" d="M170.552 131.767C171.027 131.767 171.027 131.017 170.552 131.017C170.077 131.017 170.077 131.767 170.552 131.767Z" fill="black"/>
<path opacity="0.3" d="M173.677 132.167C174.152 132.167 174.152 131.417 173.677 131.417C173.202 131.417 173.202 132.167 173.677 132.167Z" fill="black"/>
<path opacity="0.3" d="M177.051 133.667C177.526 133.667 177.526 132.917 177.051 132.917C176.551 132.917 176.551 133.667 177.051 133.667Z" fill="black"/>
<path opacity="0.3" d="M176.977 123.092C177.452 123.092 177.452 122.342 176.977 122.342C176.502 122.342 176.502 123.092 176.977 123.092Z" fill="black"/>
<path opacity="0.3" d="M175.875 125.067C176.35 125.067 176.35 124.317 175.875 124.317C175.375 124.317 175.375 125.067 175.875 125.067Z" fill="black"/>
<path opacity="0.3" d="M175.501 129.317C175.976 129.317 175.976 128.567 175.501 128.567C175.026 128.567 175.026 129.317 175.501 129.317Z" fill="black"/>
<path opacity="0.3" d="M176.427 130.642C176.902 130.642 176.902 129.892 176.427 129.892C175.952 129.892 175.952 130.642 176.427 130.642Z" fill="black"/>
<path opacity="0.3" d="M151.626 133.617C152.101 133.617 152.101 132.867 151.626 132.867C151.151 132.867 151.151 133.617 151.626 133.617Z" fill="black"/>
<path opacity="0.3" d="M154.651 133.367C155.126 133.367 155.126 132.617 154.651 132.617C154.176 132.617 154.176 133.367 154.651 133.367Z" fill="black"/>
<path d="M56.6507 79.242L56.4757 79.392C56.2257 79.592 55.8257 79.567 55.6257 79.292L53.2757 76.342C53.0757 76.092 53.1007 75.692 53.3757 75.492L53.5507 75.342C53.8007 75.142 54.2007 75.167 54.4007 75.442L56.7507 78.392C56.9507 78.667 56.9257 79.042 56.6507 79.242Z" fill="#62C3DE"/>
<path d="M14.2004 71.192C14.5732 71.192 14.8754 70.8898 14.8754 70.517C14.8754 70.1442 14.5732 69.842 14.2004 69.842C13.8276 69.842 13.5254 70.1442 13.5254 70.517C13.5254 70.8898 13.8276 71.192 14.2004 71.192Z" fill="#62C3DE"/>
<path d="M14.2004 75.592C14.5732 75.592 14.8754 75.2898 14.8754 74.917C14.8754 74.5442 14.5732 74.242 14.2004 74.242C13.8276 74.242 13.5254 74.5442 13.5254 74.917C13.5254 75.2898 13.8276 75.592 14.2004 75.592Z" fill="#62C3DE"/>
<path d="M31.3758 70.892H16.9258C16.7258 70.892 16.5508 70.717 16.5508 70.517C16.5508 70.317 16.7258 70.142 16.9258 70.142H31.4008C31.6008 70.142 31.7758 70.317 31.7758 70.517C31.7758 70.717 31.6008 70.892 31.3758 70.892Z" fill="#62C3DE"/>
<path d="M31.3758 75.292H16.9258C16.7258 75.292 16.5508 75.117 16.5508 74.917C16.5508 74.717 16.7258 74.542 16.9258 74.542H31.4008C31.6008 74.542 31.7758 74.717 31.7758 74.917C31.7758 75.117 31.6008 75.292 31.3758 75.292Z" fill="#62C3DE"/>
<path d="M31.3758 79.692H16.9258C16.7258 79.692 16.5508 79.517 16.5508 79.317C16.5508 79.117 16.7258 78.942 16.9258 78.942H31.4008C31.6008 78.942 31.7758 79.117 31.7758 79.317C31.7758 79.517 31.6008 79.692 31.3758 79.692Z" fill="#62C3DE"/>
<path d="M15.2004 17.042C15.6422 17.042 16.0004 16.6838 16.0004 16.242C16.0004 15.8002 15.6422 15.442 15.2004 15.442C14.7586 15.442 14.4004 15.8002 14.4004 16.242C14.4004 16.6838 14.7586 17.042 15.2004 17.042Z" fill="#F26F63"/>
<path d="M21.3996 17.042C21.8414 17.042 22.1996 16.6838 22.1996 16.242C22.1996 15.8002 21.8414 15.442 21.3996 15.442C20.9578 15.442 20.5996 15.8002 20.5996 16.242C20.5996 16.6838 20.9578 17.042 21.3996 17.042Z" fill="#53C997"/>
<path opacity="0.53" d="M143.375 19.067H125.85V19.692H143.375V19.067Z" fill="#62C3DE"/>
<path opacity="0.53" d="M154.85 20.892H125.85V21.517H154.85V20.892Z" fill="#62C3DE"/>
<path opacity="0.53" d="M157.95 22.742H125.85V23.367H157.95V22.742Z" fill="#62C3DE"/>
<path opacity="0.53" d="M167.175 59.467H158.4V60.092H167.175V59.467Z" fill="#62C3DE"/>
<path opacity="0.53" d="M171.525 57.617H158.4V58.242H171.525V57.617Z" fill="#62C3DE"/>
<path opacity="0.53" d="M174.625 55.767H158.4V56.392H174.625V55.767Z" fill="#62C3DE"/>
<path d="M39.1504 27.792L28.4254 27.692C27.6754 27.742 27.0254 27.192 26.9504 26.442C26.9004 25.692 27.4504 25.042 28.2004 24.967C28.2004 24.967 36.1004 24.342 37.6254 24.192C39.1504 24.042 39.1504 27.792 39.1504 27.792Z" fill="#001F57"/>
<path opacity="0.2" d="M43.5258 49.692H18.9258L36.0258 49.242L36.4508 47.942L37.5258 49.342C41.8758 49.092 41.0508 46.417 38.5508 41.817C41.2758 44.367 43.5258 49.692 43.5258 49.692Z" fill="#1E1E1E"/>
<path d="M113.475 48.0921C113.5 48.1171 113.55 48.1171 113.575 48.1421C113.625 48.1671 113.675 48.1921 113.725 48.1921C113.775 48.1921 113.825 48.1921 113.875 48.1921C113.925 48.1921 113.975 48.1671 114 48.1171C114.05 48.0921 114.075 48.0671 114.1 48.0171C114.125 47.9921 114.125 47.9671 114.15 47.9171C114.175 47.8421 114.175 47.7921 114.15 47.7171C114.125 47.6921 114.125 47.6671 114.1 47.6171C114.075 47.5671 114.025 47.5171 113.975 47.4921C113.95 47.4671 113.9 47.4671 113.875 47.4421C113.825 47.4171 113.775 47.3921 113.725 47.3921C113.675 47.3921 113.625 47.3921 113.575 47.3921C113.525 47.3921 113.475 47.4171 113.45 47.4671C113.4 47.4921 113.375 47.5171 113.35 47.5671C113.325 47.5921 113.325 47.6171 113.3 47.6671C113.275 47.7421 113.275 47.7921 113.3 47.8671C113.325 47.8921 113.325 47.9171 113.35 47.9671C113.375 48.0171 113.425 48.0671 113.475 48.0921Z" fill="#647F9D" fill-opacity="0.58"/>
<path d="M117.225 46.417C117.7 46.417 117.7 45.667 117.225 45.667C116.75 45.667 116.75 46.417 117.225 46.417Z" fill="#647F9D" fill-opacity="0.58"/>
<path d="M122.7 48.1172C123.175 48.1172 123.175 47.3672 122.7 47.3672C122.225 47.3672 122.225 48.1172 122.7 48.1172Z" fill="#647F9D" fill-opacity="0.58"/>
<path d="M134.725 47.3921C135.2 47.3921 135.2 46.6421 134.725 46.6421C134.225 46.6421 134.225 47.3921 134.725 47.3921Z" fill="#647F9D" fill-opacity="0.58"/>
<path d="M137.2 48.542C137.675 48.542 137.675 47.792 137.2 47.792C136.725 47.792 136.725 48.542 137.2 48.542Z" fill="#647F9D" fill-opacity="0.58"/>
<path d="M131.725 47.5918C132.2 47.5918 132.2 46.8418 131.725 46.8418C131.25 46.8418 131.25 47.5918 131.725 47.5918Z" fill="#647F9D" fill-opacity="0.58"/>
<path d="M121.35 45.292C121.825 45.292 121.825 44.542 121.35 44.542C120.875 44.542 120.875 45.292 121.35 45.292Z" fill="#647F9D" fill-opacity="0.58"/>
<path d="M134.475 45.792C134.95 45.792 134.95 45.042 134.475 45.042C134 45.042 134 45.792 134.475 45.792Z" fill="#647F9D" fill-opacity="0.58"/>
<path d="M138.824 45.917C139.299 45.917 139.299 45.167 138.824 45.167C138.324 45.167 138.324 45.917 138.824 45.917Z" fill="#647F9D" fill-opacity="0.58"/>
<path d="M124.699 46.7168C125.174 46.7168 125.174 45.9668 124.699 45.9668C124.199 45.9668 124.199 46.7168 124.699 46.7168Z" fill="#647F9D" fill-opacity="0.58"/>
<path d="M129.375 46.042C129.85 46.042 129.85 45.292 129.375 45.292C128.875 45.292 128.875 46.042 129.375 46.042Z" fill="#647F9D" fill-opacity="0.58"/>
<path d="M128.274 48.3418C128.749 48.3418 128.749 47.5918 128.274 47.5918C127.799 47.5918 127.799 48.3418 128.274 48.3418Z" fill="#647F9D" fill-opacity="0.58"/>
<path d="M141.325 47.8672C141.8 47.8672 141.8 47.1172 141.325 47.1172C140.85 47.1172 140.825 47.8672 141.325 47.8672Z" fill="#647F9D" fill-opacity="0.58"/>
<path d="M125.05 49.3169C125.525 49.3169 125.525 48.5669 125.05 48.5669C124.575 48.5669 124.575 49.3169 125.05 49.3169Z" fill="#647F9D" fill-opacity="0.58"/>
<path d="M145.7 45.042C146.175 45.042 146.175 44.292 145.7 44.292C145.225 44.292 145.225 45.042 145.7 45.042Z" fill="#647F9D" fill-opacity="0.58"/>
<path d="M151.475 48.4922C151.95 48.4922 151.95 47.7422 151.475 47.7422C150.975 47.7422 150.975 48.4922 151.475 48.4922Z" fill="#647F9D" fill-opacity="0.58"/>
<path d="M114.15 45.2168C114.625 45.2168 114.625 44.4668 114.15 44.4668C113.65 44.4668 113.65 45.2168 114.15 45.2168Z" fill="#647F9D" fill-opacity="0.58"/>
<path d="M145.7 47.3921C146.175 47.3921 146.175 46.6421 145.7 46.6421C145.225 46.6421 145.225 47.3921 145.7 47.3921Z" fill="#647F9D" fill-opacity="0.58"/>
<path d="M148.825 47.8169C149.3 47.8169 149.3 47.0669 148.825 47.0669C148.35 47.0669 148.35 47.8169 148.825 47.8169Z" fill="#647F9D" fill-opacity="0.58"/>
<path d="M143.376 48.9419C143.851 48.9419 143.851 48.1919 143.376 48.1919C142.901 48.1919 142.901 48.9419 143.376 48.9419Z" fill="#647F9D" fill-opacity="0.58"/>
<path d="M147.876 44.8418C148.351 44.8418 148.351 44.0918 147.876 44.0918C147.401 44.0918 147.401 44.8418 147.876 44.8418Z" fill="#647F9D" fill-opacity="0.58"/>
<path d="M150.649 44.9419C151.124 44.9419 151.124 44.1919 150.649 44.1919C150.174 44.1919 150.174 44.9419 150.649 44.9419Z" fill="#647F9D" fill-opacity="0.58"/>
<path d="M116.875 48.542C117.35 48.542 117.35 47.792 116.875 47.792C116.375 47.792 116.375 48.542 116.875 48.542Z" fill="#647F9D" fill-opacity="0.58"/>
<path d="M120.475 47.8672C120.95 47.8672 120.95 47.1172 120.475 47.1172C119.975 47.1172 119.975 47.8672 120.475 47.8672Z" fill="#647F9D" fill-opacity="0.58"/>
<path fill-rule="evenodd" clip-rule="evenodd" d="M40.5742 90.892L40.9492 93.617L49.8492 92.392L52.4196 86.0989L51.3102 84.6936L50.2242 84.242L47.9242 89.892L40.5742 90.892Z" fill="#62C3DE"/>
</svg>
